<svg width="169" height="10" viewBox="0 0 169 10" fill="none" xmlns="http://www.w3.org/2000/svg">
<path d="M10.8394 9.71347L9.72254 7.62178H3.50813L2.39126 9.71347H0L5.16913 0H8.03291L13.1877 9.71347H10.8394ZM6.54374 1.76218L4.41022 5.75931H8.70589L6.54374 1.76218Z" fill="#141414"/>
<path d="M37.487 9.71347L32.9335 5.05731L30.4564 6.80516V9.67049H28.0938V0H30.4564V4.52722L36.8569 0H40.1073L34.7234 3.81089L40.5942 9.71347H37.487Z" fill="#141414"/>
<path d="M65.105 9.71347L64.0025 7.62178H57.8167L56.6998 9.71347H54.3086L59.4777 0H62.3415L67.4963 9.71347H65.105ZM60.8094 1.76218L58.6759 5.75931H62.9715L60.8094 1.76218Z" fill="#141414"/>
<path d="M94.5057 6.92016C94.5057 8.53907 93.0738 9.78549 90.8401 9.78549H82.3633V0.000392083H90.568C91.0845 -0.00702125 91.5971 0.0907615 92.0747 0.287795C92.5522 0.484829 92.9847 0.776994 93.3459 1.14652C93.7681 1.59692 94.0035 2.19094 94.0046 2.80842C94.0151 3.17948 93.928 3.5468 93.7521 3.87364C93.5762 4.20048 93.3176 4.47539 93.0022 4.67088C93.4438 4.85968 93.8209 5.17279 94.0878 5.57212C94.3548 5.97145 94.4999 6.43979 94.5057 6.92016ZM91.6419 2.80842C91.6407 2.67467 91.6115 2.54266 91.5563 2.42086C91.501 2.29906 91.421 2.19015 91.3212 2.10113C91.2214 2.0121 91.1041 1.94491 90.9769 1.90388C90.8497 1.86285 90.7153 1.84888 90.5823 1.86286H84.7545V3.78263H90.6683C90.7942 3.78076 90.9186 3.75408 91.0343 3.70411C91.15 3.65413 91.2547 3.58185 91.3425 3.49138C91.4302 3.40092 91.4993 3.29404 91.5458 3.17685C91.5922 3.05967 91.6152 2.93447 91.6133 2.80842H91.6419ZM92.1431 6.80555C92.1431 6.11787 91.599 5.64509 90.7112 5.64509H84.7545V7.8514H90.6683C91.599 7.8514 92.1861 7.46458 92.1861 6.80555H92.1431Z" fill="#141414"/>
<path d="M116.17 10C112.533 10 110.285 8.4957 110.285 6.44699V0H112.648V6.11748C112.648 7.30659 113.922 8.12321 116.17 8.12321C118.418 8.12321 119.678 7.30659 119.678 6.11748V0H122.041V6.44699C122.041 8.4957 119.793 10 116.17 10Z" fill="#141414"/>
<path d="M148.026 9.71347L143.473 5.05731L140.995 6.80516V9.67049H138.633V0H140.995V4.52722L147.396 0H150.646L145.262 3.81089L151.119 9.71347H148.026Z" fill="#141414"/>
<path d="M165.969 9.71347V0H168.331V9.71347H165.969Z" fill="#141414"/>
</svg>
