<svg width="232" height="28" viewBox="0 0 232 28" fill="none" xmlns="http://www.w3.org/2000/svg">
<path d="M14.8801 20.5989L13.3469 17.6705H4.81589L3.28267 20.5989H0L7.09608 7H11.0274L18.1038 20.5989H14.8801ZM8.98313 9.46705L6.05426 15.063H11.9513L8.98313 9.46705Z" fill="#141414"/>
<path d="M51.4612 20.5989L45.2104 14.0802L41.8098 16.5272V20.5387H38.5664V7H41.8098V13.3381L50.5963 7H55.0584L47.6675 12.3352L55.7267 20.5989H51.4612Z" fill="#141414"/>
<path d="M89.3758 20.5989L87.8623 17.6705H79.3706L77.8374 20.5989H74.5547L81.6508 7H85.5821L92.6585 20.5989H89.3758ZM83.4788 9.46705L80.55 15.063H86.447L83.4788 9.46705Z" fill="#141414"/>
<path d="M129.735 16.6882C129.735 18.9547 127.77 20.6997 124.703 20.6997H113.066V7.00055H124.33C125.039 6.99017 125.742 7.12707 126.398 7.40291C127.054 7.67876 127.647 8.08779 128.143 8.60513C128.723 9.23568 129.046 10.0673 129.047 10.9318C129.062 11.4513 128.942 11.9655 128.701 12.4231C128.459 12.8807 128.104 13.2655 127.671 13.5392C128.277 13.8035 128.795 14.2419 129.162 14.801C129.528 15.36 129.727 16.0157 129.735 16.6882ZM125.804 10.9318C125.802 10.7445 125.762 10.5597 125.686 10.3892C125.611 10.2187 125.501 10.0662 125.364 9.94158C125.227 9.81694 125.066 9.72288 124.891 9.66544C124.716 9.60799 124.532 9.58843 124.349 9.608H116.349V12.2957H124.467C124.64 12.2931 124.811 12.2557 124.97 12.1857C125.129 12.1158 125.272 12.0146 125.393 11.8879C125.513 11.7613 125.608 11.6117 125.672 11.4476C125.736 11.2835 125.767 11.1083 125.765 10.9318H125.804ZM126.492 16.5278C126.492 15.565 125.745 14.9031 124.526 14.9031H116.349V17.992H124.467C125.745 17.992 126.551 17.4504 126.551 16.5278H126.492Z" fill="#141414"/>
<path d="M159.475 21C154.483 21 151.396 18.894 151.396 16.0258V7H154.64V15.5645C154.64 17.2292 156.389 18.3725 159.475 18.3725C162.562 18.3725 164.291 17.2292 164.291 15.5645V7H167.535V16.0258C167.535 18.894 164.449 21 159.475 21Z" fill="#141414"/>
<path d="M203.207 20.5989L196.956 14.0802L193.556 16.5272V20.5387H190.312V7H193.556V13.3381L202.342 7H206.804L199.414 12.3352L207.453 20.5989H203.207Z" fill="#141414"/>
<path d="M227.838 20.5989V7H231.081V20.5989H227.838Z" fill="#141414"/>
</svg>
