<svg width="300" height="300" fill="none" xmlns="http://www.w3.org/2000/svg"><path d="M48.209 225.968c-1.202-.308-2.355-.536-3.46-.925-1.835-.634-3.605-1.397-5.425-2.031a25.56 25.56 0 01-7.763-4.271c-1.77-1.478-3.785-2.632-5.539-4.11a29.089 29.089 0 01-6.09-6.903c-1.625-2.793-3.59-5.49-5.247-8.316-1.105-1.9-1.917-3.979-2.875-5.961-.357-.714-.796-1.397-1.153-2.111a22.712 22.712 0 01-1.121-2.485 552.265 552.265 0 01-3.654-10.314 20.553 20.553 0 01-.634-3.005 53.957 53.957 0 01-1.04-17.444 69.86 69.86 0 012.03-10.915 113.837 113.837 0 015.36-13.725 82.534 82.534 0 014.873-8.121 30.684 30.684 0 015.052-6.253c1.202-1.153 2.29-2.42 3.46-3.606a69.964 69.964 0 017.292-6.058 45.456 45.456 0 019.746-5.068c1.494-.698 2.956-1.429 4.434-2.144V90.508c0-1.624.26-3.249.325-5.003.13-3.248.21-6.675.357-10.021.097-1.998.341-3.98.455-5.961a9.447 9.447 0 00-.212-2.242 1.186 1.186 0 01.829-1.527 6.304 6.304 0 011.705-.373c3.249-.162 6.367-.309 9.55-.406a647.13 647.13 0 0110.12-.211c2.89 0 5.798-.195 8.673 0 4.873.292 9.632-.211 14.456-.114a2.762 2.762 0 002.956-2.144 34.86 34.86 0 014.077-7.682c1.624-2.193 2.923-4.532 4.564-6.644a36.962 36.962 0 014.629-4.872 49.917 49.917 0 014.759-3.346 69.677 69.677 0 002.485-1.803 32.255 32.255 0 0110.427-5.019c3.46-1.056 6.903-2.111 10.412-2.956a42.101 42.101 0 016.399-.877 66.209 66.209 0 017.39-.357c3.769 0 7.521.324 11.273.584 2.355.163 4.677.78 7 1.137a63.447 63.447 0 0111.467 2.891c.608.23 1.24.388 1.884.471a9.744 9.744 0 013.963 1.332 80.52 80.52 0 016.984 4.045 66.168 66.168 0 015.734 4.97c.52.454 1.007.958 1.543 1.396a28.386 28.386 0 014.45 5.312c1.625 2.274 3.444 4.564 4.987 6.951a14.728 14.728 0 012.387 6.14c0 .52.228 1.04.341 1.624 2.534 0 4.987-.097 7.439 0 2.453.098 5.133.146 7.699 0 1.624 0 3.346-.146 5.019-.195l16.502-.454a2.808 2.808 0 013.346 2.68 23.65 23.65 0 01.146 3.248V92.1c0 1.494-.195 3.004-.26 4.515 0 1.153.13 1.332 1.186 1.77 1.056.439 2.03.959 3.054 1.43 2.127 1.007 4.336 1.916 6.399 3.053a44.856 44.856 0 014.418 2.989 53.375 53.375 0 018.121 7.244 41.698 41.698 0 017.374 9.55c.617 1.186 1.446 2.258 2.16 3.411 2.745 4.386 4.175 9.339 6.107 14.082a47.354 47.354 0 012.437 10.525c.393 2.219.567 4.471.52 6.724-.098 1.82.227 3.671 0 5.474a96.28 96.28 0 01-1.722 10.785 66.439 66.439 0 01-2.696 7.406c-.276.748-.455 1.543-.682 2.307a11.091 11.091 0 01-1.641 3.931 5.065 5.065 0 00-.666 1.283 67.577 67.577 0 01-6.822 12.441 29.712 29.712 0 01-5.051 6.692c-1.413 1.234-2.745 2.583-4.239 3.703a40.257 40.257 0 01-9.258 6.14c-2.989 1.153-5.848 2.794-9.08 3.248-.991.163-1.007.812-1.023 1.527 0 1.283-.081 2.583-.13 3.882-.26 5.717-.601 11.37-.747 17.168-.195 7.618-.228 15.235-.325 22.869 0 .699 0 1.397.13 2.095.146 1.706-.325 2.339-2.014 2.307-1.689-.033-3.443-.244-5.181-.26h-8.901a38.694 38.694 0 00-6.302.26c-2.924.52-5.799-.179-8.69 0-3.378.244-6.805 0-10.2 0-3.395 0-6.789.308-10.184.373h-26.426c-3.736 0-7.455-.211-11.191-.292-5.279-.114-10.574-.195-15.852-.292l-16.243-.26c-4.141-.098-8.283-.325-12.425-.309-6.107 0-12.214.146-18.321.309-3.557.114-7.114.471-10.671.585-4.532.146-9.064.178-13.595.243-2.437 0-4.873.13-7.277.114-4.694 0-9.372-.114-14.066-.163h-1.77c-1.072 0-1.624-.503-1.624-1.624v-5.49c-.098-3.995-.179-7.991-.358-11.986-.162-3.395-.536-6.79-.665-10.184-.163-4.743-.163-9.502-.244-14.261a22.638 22.638 0 01-.13-1.446zm199.26-114.524c-.487-.698-1.153-.162-1.721-.244-.147-.113-.293-.324-.439-.341-1.446-.146-2.907-.227-4.337-.406a5.786 5.786 0 01-1.965-.552 2.459 2.459 0 01-1.251-2.306c0-.991.812-1.365 1.543-1.625a8.126 8.126 0 014.597-.373 30.149 30.149 0 017.114 2.03c.324.087.656.141.991.163a5.275 5.275 0 00-1.819-.991c-3.249-1.007-6.335-2.128-9.746-1.624a4.347 4.347 0 01-1.9-.309 2.258 2.258 0 01-1.413-2.842c.26-1.17 1.153-1.462 2.095-1.722a9.045 9.045 0 014.321 0l4.255.942a4.65 4.65 0 002.453.715 3.817 3.817 0 00-2.469-.699 12.843 12.843 0 00-1.901-.812c-1.624-.39-3.378-.698-5.067-1.023a2.141 2.141 0 01-1.771-1.624c-.162-.877.471-1.332 1.056-1.625a3.738 3.738 0 011.836-.487c1.624.098 3.102.325 4.645.552 1.543.228 2.826.504 4.434.796.162-2.436.422-4.678.455-6.919v-12.36c0-3.086.146-6.189.195-9.275-.02-.41-.08-.819-.179-1.218h-19.052c-6.302 0-12.588-.276-19.004-.406.338 1.088.551 2.21.634 3.346 0 .99.974 2.014-.146 3.248a6.38 6.38 0 01-1.105-1.397 49.676 49.676 0 01-2.014-5.44 24.151 24.151 0 00-2.94-6.969 121.753 121.753 0 00-8.494-11.37 27.436 27.436 0 00-2.291-2.257 33.229 33.229 0 00-5.652-5.035c-2.258-1.364-4.564-2.664-6.838-3.98a3.255 3.255 0 00-.763-.26 407.479 407.479 0 00-6.319-1.948c-2.111-.634-4.629-1.446-6.984-2.03a61.792 61.792 0 00-6.497-1.186c-2.712-.341-5.457-.504-8.121-.715a51.26 51.26 0 00-5.23-.26c-2.469 0-4.872.276-7.39.471a31.57 31.57 0 00-4.288.552c-2.94.699-5.863 1.479-8.755 2.307a43.402 43.402 0 00-11.58 4.873c-2.355 1.526-4.743 3.02-6.936 4.742a28.255 28.255 0 00-5.181 4.873 113.432 113.432 0 00-6.822 10.022 32.649 32.649 0 00-3.85 8.705c-.503 1.982-.99 3.947-1.38 5.945a4.126 4.126 0 00.861 3.248 4.158 4.158 0 001.803-2.842c.487-1.624 1.04-3.15 1.494-4.759.276-.91.796-1.023 1.624-.796 0 .487.147.991 0 1.316a48.698 48.698 0 00-1.9 6.318c-.195.536-.357 1.007.179 1.624a3.848 3.848 0 002.322-2.89c.536-1.528.894-3.103 1.332-4.662.13-.455.325-.942.829-.748a1.142 1.142 0 01.519.991c-.13 1.007-.454 1.998-.666 2.989-.259 1.316-.487 2.631-.747 3.947-.113.65.163 1.007.812 1.202a8.13 8.13 0 001.755-3.606c.308-1.478.633-2.956.99-4.434a1.63 1.63 0 01.439-.845c.321-.258.725-.39 1.137-.373.243 0 .471.536.585.86.039.264.005.534-.098.78-.341 1.413-.715 2.81-1.056 4.223-.146.617-.308 1.25.325 1.754.894-.34 1.17-1.153 1.543-1.851.569-1.105.91-2.323 1.624-3.379 1.511-2.534 3.103-5.019 4.694-7.52a6.628 6.628 0 011.137-1.364 44.795 44.795 0 0110.363-7.39c1.624-.78 3.102-1.527 4.678-2.242a37.914 37.914 0 018.933-3.248 80.956 80.956 0 0111.37-1.495c2.046 0 4.125.114 6.155-.097a21.425 21.425 0 016.903.39l8.528 1.819a25.772 25.772 0 019.956 4.873c.812.6 1.624 1.185 2.518 1.737a14.79 14.79 0 014.076 3.492c.5.72 1.042 1.41 1.625 2.063a36.709 36.709 0 014.304 6.984c1.121 2.08.926 4.418 1.364 6.627a.945.945 0 01-.601 1.186c-.601.179-.909-.227-1.153-.666a13.224 13.224 0 01-1.104-3.118 37.56 37.56 0 00-1.836-4.435c-.308-.747-.747-1.315-1.705-1.137a6.642 6.642 0 01-1.137 0c-3.833 0-7.65.18-11.483.163-3.834-.016-7.326-.13-10.98-.244-.975 0-1.933-.162-2.891-.178h-7.894c-1.624 0-3.249.162-4.629.26a24494.38 24494.38 0 01-.893 31.006c1.218-.86 2.208-1.494 3.134-2.209a8.821 8.821 0 014.873-1.9 10.526 10.526 0 017.618 2.566 12.993 12.993 0 014.466 8.868 30.396 30.396 0 01-.39 6.497 19.18 19.18 0 01-1.039 4.548c-1.088 3.248-4.873 4.743-7.585 4.743a16.41 16.41 0 01-5.035-.829 30.257 30.257 0 01-4.727-1.526c-.162-.098-.406 0-.828 0 .844 9.436 0 18.792-.211 28.212.411.091.829.146 1.25.163.812 0 1.625-.163 2.42-.146 2.843.097 5.701.292 8.56.341 5.766.113 11.548.097 17.331.227 3.248 0 6.367.26 9.534.504 2.68.195 2.745.438 1.77 2.956a191.599 191.599 0 00-2.55 7.016 9.11 9.11 0 00-.227 4.873 4.274 4.274 0 003.248 3.492c2.49.766 5.116.988 7.699.65 2.339-.374 4.678-.861 7.001-1.397a4.406 4.406 0 002.988-2.306 8.576 8.576 0 00.422-7.212c-.747-2.03-1.803-3.931-2.728-5.88-.423-.909-.228-1.445.714-1.624.37-.071.745-.109 1.121-.114 1.998 0 3.996-.178 5.993-.195 4.045 0 8.122-.081 12.15 0 4.028.082 8.121.325 12.149.472 3.395.113 6.805.162 10.2.227.324-.027.644-.081.958-.163v-3.622c0-3.329.082-6.675.13-10.005a87.098 87.098 0 00-.13-8.982c-.097-1.137 0-5.002 0-5.262 0-.26.212-1.348-.146-1.787-1.624-2.014-6.497-3.703-7.211-3.947a5.241 5.241 0 01-3.249-2.712c-.682-1.365-.179-2.258 1.332-2.225 1.511.032 2.875.259 4.32.389l1.722.26a13.424 13.424 0 003.411 1.462l.162-.438-3.638-1.17zm-196.207 4.548a5.196 5.196 0 00-3.394 1.543l3.362-1.624 1.722-.26c1.397-.13 2.777-.325 4.158-.39 1.38-.065 1.624.422 1.624 1.494a3.41 3.41 0 01-2.08 2.891 9.24 9.24 0 00-1.9.878c-.308.194-4.255 1.624-4.872 2.777 0 .114-.081 5.474-.098 6.172-.08 3.248-.47 6.383-.26 9.599.18 2.469.114 4.873.18 7.423 0 .536.08 1.056.13 1.624h1.623c3.606-.081 7.228-.26 10.85-.26s7.017.211 10.541.293h6.302c.748 0 1.511.097 2.258 0 .747-.098 1.706.357 2.55-.212a2.917 2.917 0 00-.292-.633 15.543 15.543 0 01-2.826-8.495 12.001 12.001 0 018.624-12.604 27.616 27.616 0 0113.157-.584 24.361 24.361 0 0110.849 4.401c3.834 2.924 4.694 6.822 4.077 11.224a36.581 36.581 0 01-1.624 5.246c-.13.39-.195.796-.325 1.364 3.785.179 7.39-.227 10.98-.292 3.589-.065 7.341-.114 11.012-.26 3.671-.146 7.195.26 10.882 0v-4.532c.195-3.443.569-6.886.666-10.346.147-4.353.098-8.738.114-13.107a3.961 3.961 0 00-.536-2.632 1.05 1.05 0 010-1.007 1.318 1.318 0 011.105-.357 6.197 6.197 0 011.835.958 9.052 9.052 0 003.248 1.624c1.154.26 2.307.585 3.476.813 1.029.244 2.079.385 3.135.422a5.651 5.651 0 005.993-4.986c.179-1.43.601-2.843.731-4.288a14.23 14.23 0 00-.649-7.261 9.948 9.948 0 00-8.787-6.383 4.468 4.468 0 00-2.372.292c-2.322 1.219-4.872 2.177-6.497 4.305a4.19 4.19 0 01-1.055.666 3.962 3.962 0 01-.618-3.249c0-1.494.325-2.989.358-4.483 0-4.044 0-8.12.081-12.133 0-2.469.39-4.872.471-7.422a21.141 21.141 0 000-6.708c-.536 0-1.072-.114-1.624-.13l-9.535-.114c-2.208 0-4.417-.276-6.61-.13a79.409 79.409 0 01-9.632 0c-2.355-.114-4.726 0-7 0a22.045 22.045 0 00-4.256 7.114 6.836 6.836 0 01-1.884 2.859c-1.478 1.364-1.624 1.364-3.248.243h-.309c-1.234 2.502-2.631 2.745-4.775.747a2.94 2.94 0 01-4.012-.536c-1.624.439-2.404.277-2.907-.698a7.926 7.926 0 01-.764-5.636l1.3-5.1h-1.072l-2.908.211c-2.144.13-4.271-.179-6.497 0-3.443.292-6.903.179-10.362.227-3.102 0-6.221 0-9.34.13-1.624 0-3.248.146-4.872.228a58.867 58.867 0 00-8.625.34c-.455 0-.926.13-1.527.212v6.578c0 4.727 0 9.47-.21 14.196-.196 4.125 0 8.267.13 12.393 0 .097 0 .195.243.471l1.933-.26c1.981-.276 3.947-.617 5.928-.812a3.556 3.556 0 011.82.487c.584.325 1.217.78 1.055 1.624a2.092 2.092 0 01-1.77 1.624 14.76 14.76 0 00-1.917.293 15.715 15.715 0 00-5.051 1.543 8.028 8.028 0 00-5.377 2.176l5.36-2.192c1.9-.39 3.801-.796 5.701-1.154a6.498 6.498 0 013.639.39 2.292 2.292 0 01-.244 4.369 9.194 9.194 0 01-2.225.212h-2.242c-2.303.212-4.57.726-6.74 1.526-.747.249-1.475.553-2.177.91a1.63 1.63 0 001.186 0 31.423 31.423 0 016.984-1.949 8.256 8.256 0 014.613.26c.731.325 1.624.698 1.543 1.624a2.5 2.5 0 01-1.25 2.306 4.953 4.953 0 01-1.803.553c-.91.097-1.852 0-2.745.097-.746.156-1.479.368-2.193.633-.504.439-1.17-.016-1.64.634zM189.5 150.734c-1.429 0-2.712-.227-3.995-.243-8.43 0-16.86-.195-25.289-.195a64.615 64.615 0 00-10.493.162c-.21.024-.423.024-.633 0-.699-.081-1.381-.195-2.079-.211h-15.723c-2.599 0-4.743.179-7.114.292-1.299 0-2.599.195-3.882.228h-6.123c-1.023 0-1.624-.406-1.462-1.413.149-.847.372-1.678.666-2.486.585-1.851 1.332-3.67 1.787-5.538a8.823 8.823 0 00-4.093-9.892 20.165 20.165 0 00-6.124-2.517 36.737 36.737 0 00-10.898-1.17 14.034 14.034 0 00-7.31 2.81 7.575 7.575 0 00-3.394 4.775 14.23 14.23 0 001.738 10.607 24.566 24.566 0 011.445 2.355c.358.714 0 1.267-.73 1.462a6.54 6.54 0 01-1.137 0c-2.096.113-4.207.259-6.302.292H63.736c-4.206 0-8.43.162-12.636.309-1.234 0-1.348.211-1.397 1.461a702.21 702.21 0 00-.292 10.201c0 1.331.162 2.68.178 4.028 0 3.622 0 7.244.082 10.866.097 3.995.308 7.991.406 11.986.097 4.37 0 8.739.162 13.124.13 4.646.374 9.291.552 13.936.114 3.395.358 6.789.244 10.184-.195 5.782 0 11.565.227 17.331.18 4.369.488 8.738.683 13.107.113 2.371.13 4.743.194 7.114 0 1.624.098 3.249.163 5.133h3.248c3.151 0 6.286.113 9.42.113 3.623 0 7.245-.243 10.85-.162 5.572.13 11.11-.309 16.665-.552 4.743-.211 9.502-.471 14.261-.569 4.369-.097 8.738 0 13.124 0 2.046 0 4.093 0 6.156.098 4.32.113 8.624.308 12.993.39h19.946c6.497.113 12.864.276 19.296.373h10.525c4.743 0 9.502.26 14.244 0a289.623 289.623 0 0116.356-.146h8.917c2.323 0 4.629-.097 6.952-.097h12.766v-16.032c.163-6.383.342-12.75.618-19.117.341-8.04.99-16.063.958-24.103 0-4.11.438-8.121.552-12.312.163-5.23.249-10.471.26-15.722 0-4.11-.179-8.203-.195-12.312 0-1.998.228-3.996.292-5.994.114-3.021.179-6.025.26-9.046v-2.68c-6.951-.098-13.692-.114-20.432-.293-6.741-.178-13.546-.178-20.498.211.147.417.332.819.552 1.202a13.356 13.356 0 012.501 7.082 8.427 8.427 0 01-6.838 9.42c-1.884.439-3.817.731-5.733.991a21.121 21.121 0 01-8.998-.649 6.498 6.498 0 01-4.873-5.458 11.69 11.69 0 01.406-5.75c.828-2.046 1.689-4.369 2.647-6.984zM47.868 123.788a6.66 6.66 0 00-3.72 1.624c-1.38 1.105-2.517 2.518-3.93 3.574a30.848 30.848 0 00-6.497 7.91 97.724 97.724 0 00-4.873 8.559 17.73 17.73 0 00-1.527 3.736c-.617 2.453-1.072 4.954-1.51 7.455a61.578 61.578 0 00-.715 5.441c-.162 1.82-.114 3.249-.195 4.873-.207 2.367.08 4.751.845 7.001a18.66 18.66 0 01.942 3.752 27.615 27.615 0 003.46 9.176 61.461 61.461 0 002.696 4.418 37.286 37.286 0 003.98 5.506c2.89 2.973 6.707 4.565 10.605 6.319-.26-26.589-.877-52.885.439-79.344zm204.912 74.033c2.031-1.089 4.077-2.047 5.994-3.249a13.48 13.48 0 003.443-2.891 72.51 72.51 0 008.121-13.205c.316-.677.561-1.384.731-2.112.617-2.355 1.023-4.775 1.803-7.049a16.516 16.516 0 00.893-6.367 80.296 80.296 0 00-.747-9.485 46.837 46.837 0 00-2.94-11.89c-.341-.779-.763-1.526-1.153-2.29-.666-1.283-1.25-2.615-1.998-3.865-1.072-1.787-2.192-3.557-3.394-5.263a30.237 30.237 0 00-3.249-3.979c-1.77-1.819-3.719-3.427-5.506-5.214a2.044 2.044 0 00-1.9-.796c0 .552-.179 1.04-.195 1.527v20.823c-.019 2.635.1 5.27.357 7.893a52.055 52.055 0 01-.113 8.121c-.13 3.834-.39 7.667-.439 11.5 0 4.32.114 8.641.179 12.994 0 1.088.113 2.16.113 3.248.017 3.785 0 7.504 0 11.549zM190.118 65.949l.227-.39c-1.039-1.364-1.981-2.81-3.135-4.06a26.846 26.846 0 00-3.248-2.615 64.322 64.322 0 00-5.198-3.8 24.577 24.577 0 00-5.1-2.356c-2.501-.812-5.084-1.397-7.666-1.981a30.873 30.873 0 00-5.425-.861c-2.729-.13-5.474 0-8.121.097-1.771 0-3.557.179-5.311.374a42.4 42.4 0 00-4.776.796c-2.306.52-4.612 1.088-6.854 1.835-1.624.504-3.005 1.397-4.564 1.998a46.658 46.658 0 00-9.599 5.246 30.823 30.823 0 00-2.843 2.128 6.828 6.828 0 00-2.517 3.102h1.218a38.979 38.979 0 014.353-.097c4.255.357 8.495-.244 12.75 0 2.566.097 5.149 0 7.732 0 3.492 0 6.967.357 10.476.21 7.807-.413 15.63-.413 23.437 0 3.996.245 7.992.26 11.987.358.731.033 1.478.016 2.177.016zm61.038 36.269l-.114.325 1.625.91c.145.024.293.024.438 0l.098-.228-2.047-1.007zm8.037 158.444l13.562.276c2.956 0 5.912 0 8.852.13 1.624 0 3.086.423 4.645.536 2.356.163 4.711.228 7.066.341.893 0 1.786.001 2.68.098.893.097 1.12.731.536 1.348a2.062 2.062 0 01-1.251.601 77.104 77.104 0 01-9.096 0c-4.125-.374-8.283-.503-12.409-.845-3.654-.308-7.292.098-10.914 0-2.372-.113-4.727-.324-7.098-.243a1.722 1.722 0 01-1.04-.325.736.736 0 01-.339-.617.731.731 0 01.339-.617c.373-.308.822-.51 1.3-.585h3.248l-.081-.098zM4.531 264.544c0-1.218.341-1.721 1.365-1.819 2.468-.211 4.872-.552 7.406-.714 3.248-.212 6.497-.325 9.86-.406 3.654-.098 7.308-.098 10.963-.114 1.17 0 2.339.114 3.524.13 1.186.016 2.225 0 3.606 0l1.267 1.527c-.244.243-.406.503-.617.568a7.963 7.963 0 01-5.068.114 3.36 3.36 0 00-1.364-.325c-5.393.195-10.785.422-16.242.633-1.625 0-3.346 0-5.02.098-2.533.113-5.05.308-7.568.422a21.276 21.276 0 01-2.112-.114zm252.68-196.662c1.446-.942 2.745-1.9 4.142-2.696 3.394-1.965 6.789-3.963 10.297-5.717a45.166 45.166 0 016.497-2.372 1.236 1.236 0 011.771.829 1.528 1.528 0 01-1.024 1.624c-2.192.91-4.418 1.722-6.594 2.68-2.566 1.12-5.116 2.29-7.601 3.557-1.755.893-3.411 1.998-5.117 2.972-.893.536-1.526.325-2.371-.877zm-14.373-11.924c.373-1.38.682-2.794 1.137-4.158.844-2.55 1.835-5.051 2.647-7.601a41.92 41.92 0 012.502-6.822c.552-1.04 1.055-1.446 1.624-1.235.568.212.958 1.008.585 2.08-1.251 3.443-2.567 6.854-3.834 10.28A33.651 33.651 0 00245.047 55a7.71 7.71 0 01-.975 2.339.805.805 0 01-.633.357c-.13 0-.39-.227-.422-.39a8.474 8.474 0 01-.082-1.283l-.097-.065zm7.115 2.617c1.072-1.527 1.998-2.988 3.07-4.32 1.9-2.388 3.882-4.727 5.847-7.066a9.198 9.198 0 011.267-1.25 1.232 1.232 0 011.754 0c.422.536.195.974-.211 1.445-1.218 1.413-2.404 2.843-3.606 4.272l-3.703 4.45a2.903 2.903 0 01-.471.423c-.666.617-1.397 1.17-2.014 1.835-.617.666-1.007.763-1.933.211zm19.068 19.213a1.624 1.624 0 01-1.771 1.218 27.796 27.796 0 01-6.643-1.917 1.317 1.317 0 01-.584-1.624c.292-.617.779-.552 1.364-.39 1.965.569 3.947 1.04 5.912 1.625.502.176.982.41 1.43.698.162.049.227.292.292.39zm-31.527-23.062c-.21-.591-.367-1.2-.471-1.819a389.185 389.185 0 01-.536-8.12c0-.667-.162-1.495.78-1.722.52-.114.958.535.958 1.624 0 2.241 0 4.483-.097 6.724 0 1.056-.098 2.112-.163 3.167l-.471.146z" fill="#141414"/><path d="M199.779 193.775a16.754 16.754 0 002.777-4.97c.163-.455.374-.894.569-1.332.308-.764.828-.942 1.737-.471-.162 2.956-2.127 5.084-3.784 7.487l2.696 2.144c2.632-1.981 3.492-5.148 5.311-7.585.878.244 1.121.764.878 1.397a18.77 18.77 0 01-1.625 3.443 47.31 47.31 0 01-3.151 3.59l1.381 1.023a21.123 21.123 0 005.019-6.318c.152-.404.391-.769.698-1.072a1.243 1.243 0 01.975-.26 1.171 1.171 0 01.487.91 5.163 5.163 0 01-1.413 3.346c-1.364 1.624-2.875 3.053-4.418 4.661 0 .341.292 1.056 0 1.462a6.81 6.81 0 01-1.998 2.29 44.42 44.42 0 01-10.785 5.409c-1.81.52-3.656.911-5.522 1.169-2.807.589-5.7.645-8.527.163-2.388-.569-4.694-1.511-7.049-2.307a31.605 31.605 0 01-8.804-5.311c-1.283-.991-1.461-1.884-.308-3.102a21.553 21.553 0 014.077-3.622 54.782 54.782 0 019.014-5.019 27.386 27.386 0 017.488-1.884 15.864 15.864 0 013.394.162c.845.114 1.625.455 2.502.601a12.878 12.878 0 015.343 2.242 34.435 34.435 0 003.038 1.754zm-23.341-.114a49.709 49.709 0 00-10.492 7.195c1.9 1.316 3.525 2.632 5.327 3.655a58.158 58.158 0 006.497 3.005 18.826 18.826 0 005.295 1.348 36.582 36.582 0 009.616-.91 21.451 21.451 0 004.743-1.494c1.77-.763 3.459-1.738 5.181-2.648a12.267 12.267 0 003.865-2.972 81.084 81.084 0 00-9.404-6.399c.083 1 .083 2.005 0 3.005a11.499 11.499 0 01-6.497 8.494 13.615 13.615 0 01-7 1.446 7.28 7.28 0 01-6.871-5.994c-.259-1.25-.276-2.55-.519-3.817a5.142 5.142 0 01.292-3.004 3.85 3.85 0 00-.033-.91zm-35.926 6.141l-1.624 1.315c-1.105.845-2.193 1.625-3.33 2.502a32.474 32.474 0 01-8.007 3.833 25.998 25.998 0 01-14.618 1.072 29.904 29.904 0 01-7.179-2.826 45.044 45.044 0 01-6.92-3.85c-.178-.13-.373-.211-.552-.357-1.153-.926-1.25-1.316-.747-2.794a15.507 15.507 0 01-5.002-5.36 12.493 12.493 0 01-.796-1.916c-.276-.731 0-1.121.942-1.413a46.984 46.984 0 002.241 4.174 47.697 47.697 0 003.248 3.93l2.096-2.144a2.942 2.942 0 00-.358-.568 12.764 12.764 0 01-4.174-5.831 1.623 1.623 0 01.358-1.9c.763 0 .925.649 1.153 1.185a23.16 23.16 0 001.3 2.973c.649 1.088 1.493 2.062 2.37 3.248l2.274-1.478a16.504 16.504 0 01-3.362-6.692c-.113-.584-.422-1.283.341-1.543.764-.26 1.056.455 1.283.975.358.893.585 1.851.926 2.761.302.801.655 1.582 1.056 2.339.569 1.039 1.04 1.202 1.933.568a33.848 33.848 0 017.634-3.492 17.06 17.06 0 019.063-.812c2.31.17 4.576.719 6.708 1.624a36.379 36.379 0 0111.191 8.381c.633.78.65.764.552 2.096zm-41.808-.374c.432.361.888.692 1.365.991 2.794 1.527 5.538 3.151 8.43 4.499a20.265 20.265 0 009.875 2.436h.65a17.307 17.307 0 003.687-.211 42.074 42.074 0 007.341-2.387 40.176 40.176 0 006.497-3.687 26.27 26.27 0 002.128-1.901c-2.16-2.891-8.008-7.146-10.233-7.455.114 1.462.13 2.924.341 4.353a4.873 4.873 0 01-.552 3.135 33.487 33.487 0 01-2.826 4.093 3.652 3.652 0 01-1.429 1.039 12.057 12.057 0 01-11.76-.601 7.2 7.2 0 01-2.209-1.835 9.84 9.84 0 01-1.981-5.896c0-1.04 0-2.095-.114-3.151-2.193.341-7.309 3.996-9.21 6.497v.081zm14.245 16.453c2.04-.21 4.097.185 5.913 1.137.295.135.56.329.779.569a9.95 9.95 0 013.249 8.933 7.236 7.236 0 01-3.866 5.652 33.548 33.548 0 01-3.362 1.625 6.703 6.703 0 01-2.209.259c-1.023 0-2.047-.162-3.07-.227a5.692 5.692 0 01-3.524-1.478 10.694 10.694 0 01-3.769-5.149 7.999 7.999 0 012.144-8.316 8.394 8.394 0 017.066-2.94c.218-.004.435-.026.649-.065zm79.277.161c1.126.154 2.239.393 3.33.715 4.629 1.835 5.571 8.121 4.125 11.922a7.627 7.627 0 01-4.369 4.872 11.565 11.565 0 01-6.497.536 11.137 11.137 0 01-4.093-1.396 7.214 7.214 0 01-3.102-5.101 11.203 11.203 0 01.666-5.863 7.82 7.82 0 016.318-5.116c1.137-.276 2.323-.39 3.622-.569zm-39.289 13.317a12.42 12.42 0 01-8.121-3.687 5.628 5.628 0 01-.991-1.624c-.244-.504-.406-1.105.146-1.462s.958.146 1.348.552a29.898 29.898 0 002.437 2.339 7.437 7.437 0 009.16.406 22.342 22.342 0 002.956-2.485c.536-.471.91-1.332 1.836-.958.568.227.341.942-.26 2.128-1.413 2.745-4.061 3.541-6.692 4.401-.617.195-1.364.293-1.819.39zm69.338-131.184a13.852 13.852 0 018.965 2.81c.05.023.094.056.13.097 2.047 1.722 2.112 2.68.195 4.564a12.996 12.996 0 01-7.796 4.321 17.871 17.871 0 01-12.052-2.745c-2.42-1.625-2.501-2.339-.39-4.353a14.623 14.623 0 0110.948-4.694zm-10.671 6.643a15.958 15.958 0 006.153 2.992c2.243.542 4.577.59 6.84.143a12.104 12.104 0 006.806-4.613 14.393 14.393 0 00-8.69-3.509c.114.943.142 1.895.081 2.843a7.797 7.797 0 01-.877 2.404 3.126 3.126 0 01-2.339 1.299c-2.273.536-3.427-.276-5.132-3.622a8.98 8.98 0 00-.958.536c-.455.439-1.105.91-1.884 1.527zm-16.341 5.325c-3.525-.293-6.968-.39-9.924-2.404a26.227 26.227 0 01-2.355-1.917 1.088 1.088 0 01-.351-.396 1.091 1.091 0 010-1.027c.083-.158.203-.294.351-.396a34.454 34.454 0 013.346-3.021 14.746 14.746 0 0112.994-2.323 9.745 9.745 0 015.928 3.671c.796 1.17.828 1.332-.081 2.388a14.444 14.444 0 01-8.657 5.295l-1.251.13zm.195-10.314c.325 4.255-.357 5.798-2.778 6.497-2.42.698-3.735-.146-5.457-3.541a7.376 7.376 0 00-2.729 2.063c5.506 4.515 15.106 5.181 19.491-1.624a14.192 14.192 0 00-8.527-3.395zm17.136 27.191c-.633-.113-1.283-.195-1.9-.357-.195 0-.503-.374-.471-.552a1.138 1.138 0 01.455-.748 2.496 2.496 0 011.088-.243 12.298 12.298 0 006.318-2.664 3.675 3.675 0 001.527-2.923 8.283 8.283 0 01.65-2.469 1.135 1.135 0 01.926-.471 1.035 1.035 0 01.617.796 8.292 8.292 0 01-.228 2.988 10.018 10.018 0 01-8.982 6.643zm-102.505-13.304a2.61 2.61 0 01-.617 2.647 14.46 14.46 0 01-3.769 3.671 3.886 3.886 0 01-3.248.536 15.22 15.22 0 01-3.07-.698 6.492 6.492 0 01-4.174-4.987c.893-1.12 2.111-1.023 3.248-1.201a16.6 16.6 0 012.713 0c2.609 0 5.224-.033 7.845-.098.361.006.72.05 1.072.13zm-28.195-13.367c1.154-.958 1.284-.975 2.128 0 .845.975 1.836 2.111 2.778 3.151a5.941 5.941 0 004.37 2.047 10.043 10.043 0 007.422-3.33 4.015 4.015 0 012.176-1.462 1.627 1.627 0 01-.179 2.03 11.95 11.95 0 01-6.302 4.337 9.03 9.03 0 01-8.267-1.446c-.715-.584-1.478-1.104-2.176-1.624a5.368 5.368 0 01-1.95-3.703zm23.598 1.82l.829-1.283c.389.357.73.601 1.023.909a13.087 13.087 0 004.97 2.94c.73.187 1.495.187 2.225 0a19.56 19.56 0 006.188-2.274c.255-.186.484-.404.683-.649.342-.413.711-.804 1.104-1.17.374-.325.796-.926 1.364-.39a1.317 1.317 0 01.114 1.787 9.078 9.078 0 01-3.606 2.924 23.525 23.525 0 01-6.026 2.095 7.164 7.164 0 01-6.383-2.03c-.861-.845-1.591-1.82-2.485-2.859z" fill="#141414"/><path d="M176.439 193.664c.036.302.036.608 0 .91a5.153 5.153 0 00-.292 3.005c.243 1.266.26 2.566.519 3.816a7.275 7.275 0 006.871 5.994c2.421.15 4.837-.349 7-1.446a11.499 11.499 0 006.497-8.494c.083-1 .083-2.005 0-3.005a81.308 81.308 0 019.405 6.399 12.285 12.285 0 01-3.866 2.973c-1.722.909-3.411 1.884-5.181 2.647a21.451 21.451 0 01-4.743 1.494 36.582 36.582 0 01-9.616.91 18.792 18.792 0 01-5.295-1.348 58.06 58.06 0 01-6.496-3.005c-1.803-1.023-3.428-2.339-5.328-3.654a49.688 49.688 0 0110.525-7.196zm-77.734 5.684c1.9-2.501 7.017-6.156 9.161-6.497 0 1.056.162 2.111.113 3.151a9.848 9.848 0 001.982 5.896 7.2 7.2 0 002.209 1.835 12.054 12.054 0 0011.759.601 3.655 3.655 0 001.43-1.039 33.487 33.487 0 002.826-4.093c.53-.954.724-2.058.552-3.135-.211-1.429-.227-2.891-.341-4.353 2.225.309 8.121 4.564 10.233 7.455a26.44 26.44 0 01-2.128 1.901 40.176 40.176 0 01-6.497 3.687 42.14 42.14 0 01-7.342 2.387 17.307 17.307 0 01-3.687.211h-.649a20.269 20.269 0 01-9.876-2.436c-2.891-1.348-5.636-2.972-8.429-4.499a12.37 12.37 0 01-1.316-1.072zm112.899-94.533c.779-.617 1.364-1.088 1.965-1.527a8.98 8.98 0 01.958-.536c1.706 3.346 2.859 4.158 5.133 3.622a3.141 3.141 0 002.339-1.299c.422-.748.719-1.56.877-2.404.06-.948.033-1.9-.082-2.843a14.387 14.387 0 018.69 3.509 12.11 12.11 0 01-6.805 4.613 15.971 15.971 0 01-13.075-3.135zm-16.145-4.987a14.2 14.2 0 018.592 3.427c-4.45 6.757-14.049 6.091-19.49 1.625a7.373 7.373 0 012.728-2.063c1.722 3.395 3.021 4.239 5.458 3.541 2.436-.699 3.037-2.274 2.712-6.53z" fill="#fff"/></svg>