<?xml version="1.0" encoding="utf-8"?><svg viewBox="0 0 232 30" xmlns="http://www.w3.org/2000/svg" xmlns:xlink="http://www.w3.org/1999/xlink"><style>:root>svg{display:none}:root>svg:target{display:block}</style><svg fill="none" viewBox="0 0 15 14" id="arrow-right" xmlns="http://www.w3.org/2000/svg"><path d="m8 12.994 5.996-5.996-6-6m6 6L0 7.002" stroke="currentColor" stroke-miterlimit="10"/></svg><svg fill="none" viewBox="0 0 12 12" id="check" xmlns="http://www.w3.org/2000/svg"><path d="m10.125 3.375-5.25 5.25L2.25 6" stroke="currentColor" stroke-width="1.25" stroke-linecap="round"/></svg><svg fill="none" viewBox="0 0 9 14" id="chevron-right" xmlns="http://www.w3.org/2000/svg"><path d="M1.055 1.167 6.888 7l-5.833 5.833" stroke="currentColor" stroke-width="1.944"/></svg><svg viewBox="0 0 30 30" fill="none" id="close" xmlns="http://www.w3.org/2000/svg"><path d="M23.438 6.563 6.563 23.438m16.875 0L6.563 6.563" stroke="currentColor" stroke-width="2" stroke-linecap="round" stroke-linejoin="round"/></svg><svg fill="none" viewBox="0 0 169 10" id="logo-footer" xmlns="http://www.w3.org/2000/svg"><path d="M10.84 9.713 9.722 7.622H3.508L2.391 9.713H0L5.17 0h2.863l5.155 9.713h-2.349zm-4.296-7.95L4.41 5.758h4.296L6.544 1.762zm30.943 7.95-4.553-4.656-2.478 1.748V9.67h-2.362V0h2.362v4.527L36.856 0h3.251l-5.384 3.81 5.871 5.903h-3.107zm27.618 0-1.103-2.091h-6.185L56.7 9.713h-2.391L59.478 0h2.864l5.154 9.713h-2.391zm-4.296-7.95-2.133 3.996h4.295L60.81 1.762zM94.506 6.92c0 1.62-1.432 2.865-3.666 2.865h-8.477V0h8.205a3.807 3.807 0 0 1 2.778 1.147 2.44 2.44 0 0 1 .659 1.661 2.121 2.121 0 0 1-1.003 1.863 2.477 2.477 0 0 1 1.504 2.25zm-2.864-4.112a.96.96 0 0 0-1.06-.945h-5.828v1.92h5.914a.96.96 0 0 0 .945-.975h.029zm.501 3.998c0-.688-.544-1.16-1.432-1.16h-5.957V7.85h5.914c.931 0 1.518-.386 1.518-1.045h-.043zM116.17 10c-3.637 0-5.885-1.504-5.885-3.553V0h2.363v6.117c0 1.19 1.274 2.006 3.522 2.006 2.248 0 3.508-.816 3.508-2.006V0h2.363v6.447c0 2.049-2.248 3.553-5.871 3.553zm31.856-.287-4.553-4.656-2.478 1.748V9.67h-2.362V0h2.362v4.527L147.396 0h3.25l-5.384 3.81 5.857 5.903h-3.093zm17.943 0V0h2.362v9.713h-2.362z" fill="#141414"/></svg><svg fill="none" viewBox="0 0 232 28" id="logo-header" xmlns="http://www.w3.org/2000/svg"><path d="m14.88 20.599-1.533-2.928H4.816l-1.533 2.928H0L7.096 7h3.931l7.077 13.599H14.88zM8.983 9.467l-2.929 5.596h5.897L8.983 9.467zm42.478 11.132-6.25-6.519-3.401 2.447v4.012h-3.244V7h3.244v6.338L50.596 7h4.462l-7.39 5.335 8.059 8.264H51.46zm37.915 0-1.514-2.928h-8.491l-1.534 2.928h-3.282L81.65 7h3.931l7.077 13.599h-3.283zM83.479 9.467l-2.929 5.596h5.897l-2.968-5.596zm46.256 7.221c0 2.267-1.965 4.012-5.032 4.012h-11.637V7h11.264a5.137 5.137 0 0 1 2.068.403 5.222 5.222 0 0 1 1.745 1.202c.58.63.903 1.462.904 2.327a3.016 3.016 0 0 1-.346 1.491 2.95 2.95 0 0 1-1.03 1.116 3.423 3.423 0 0 1 1.491 1.262c.366.559.565 1.215.573 1.887zm-3.931-5.756a1.369 1.369 0 0 0-.44-.99 1.31 1.31 0 0 0-1.015-.334h-8v2.688h8.118a1.297 1.297 0 0 0 .926-.408 1.357 1.357 0 0 0 .372-.956h.039zm.688 5.596c0-.963-.747-1.625-1.966-1.625h-8.177v3.089h8.118c1.278 0 2.084-.542 2.084-1.464h-.059zM159.475 21c-4.992 0-8.079-2.106-8.079-4.974V7h3.244v8.565c0 1.664 1.749 2.807 4.835 2.807 3.087 0 4.816-1.143 4.816-2.807V7h3.244v9.026c0 2.868-3.086 4.974-8.06 4.974zm43.732-.401-6.251-6.519-3.4 2.447v4.012h-3.244V7h3.244v6.338L202.342 7h4.462l-7.39 5.335 8.039 8.264h-4.246zm24.631 0V7h3.243v13.599h-3.243z" fill="#141414"/></svg></svg>