<svg width="300" height="300" viewBox="0 0 300 300" fill="none" xmlns="http://www.w3.org/2000/svg">
<path d="M90.4401 143.708C89.7897 143.708 89.3939 143.595 89.0263 143.595C85.7746 143.595 82.5511 143.341 79.3135 143.03C75.3314 142.673 71.3868 141.977 67.5225 140.952C63.527 140.023 59.6817 138.538 56.099 136.54C51.3213 133.86 47.7914 129.405 46.2732 124.142C45.1408 119.966 45.6466 115.515 47.687 111.7C47.841 111.412 47.9779 111.114 48.097 110.809C48.097 110.725 48.097 110.626 48.097 110.484C47.0084 109.65 45.8208 108.873 44.8028 107.925C42.4471 105.68 40.4831 103.056 38.9921 100.164C38.2287 98.7498 37.3946 97.336 36.7583 95.9222C36.1876 94.5774 35.7151 93.193 35.3446 91.7798C35.2598 91.3283 35.0467 90.9108 34.7308 90.5773C34.4148 90.2438 34.0094 90.0085 33.5632 89.8995C30.8942 89.1616 28.4452 87.7847 26.4277 85.888C24.4103 83.9912 22.8852 81.6317 21.9842 79.0133C20.8052 75.3519 20.6778 71.4331 21.6166 67.7029C22.3866 63.9372 24.3737 60.5292 27.2718 58.0043C28.927 56.397 30.7968 55.0267 32.828 53.9326C33.648 53.5367 33.6339 53.3812 33.1815 52.5188C32.6737 51.6101 32.2342 50.665 31.8666 49.6912C30.8311 46.9405 30.6329 43.9448 31.2971 41.0817C31.9613 38.2185 33.4582 35.616 35.599 33.6022C39.898 29.4606 45.3577 26.7283 51.2497 25.7698C55.1007 25.1088 58.9937 24.7214 62.8994 24.6105C64.4546 24.6105 65.9956 24.4267 67.5508 24.3843C67.692 24.3959 67.834 24.3794 67.9689 24.3359C68.1037 24.2924 68.2285 24.2226 68.3363 24.1306C68.444 24.0387 68.5325 23.9263 68.5967 23.8C68.6608 23.6737 68.6994 23.5359 68.7101 23.3946C68.8656 22.5605 69.0635 21.7405 69.1908 20.9064C69.6149 18.0788 70.0249 15.3219 70.449 12.5367C70.7777 10.5784 71.4477 8.69302 72.4283 6.96638C72.7539 6.37748 73.2485 5.8997 73.8483 5.59476C74.4481 5.28981 75.1256 5.1717 75.7932 5.25568C77.518 5.39706 79.257 5.55258 80.9818 5.75051C84.0356 6.08982 87.0611 6.51396 90.1008 6.78258C92.5325 6.99465 94.9783 7.02293 97.4242 7.13603C97.608 7.13603 97.8059 7.13603 97.9897 7.13603C101.609 7.20672 105.228 7.41879 108.834 7.30568C111.7 7.19009 114.557 6.89735 117.387 6.42913C122.222 5.67982 127.015 4.74672 131.822 3.91258C134.749 3.33666 137.765 3.38484 140.672 4.05396C144.03 4.64254 147.13 6.23467 149.565 8.62051C149.811 8.89977 150.12 9.11607 150.467 9.25135C150.814 9.38662 151.188 9.43694 151.558 9.3981C155.984 9.3981 160.395 9.3981 164.82 9.3981C168.156 9.3981 171.493 9.49706 174.829 9.49706C179.071 9.49706 183.454 9.3981 187.78 9.42637C190.169 9.42637 192.572 9.68086 194.962 9.73741C197.648 9.82224 200.334 9.73741 203.006 9.86465C208.266 10.0909 213.553 9.53948 218.798 10.204C220.636 10.4302 222.502 10.8402 223.506 12.6357C224.042 13.6238 224.41 14.694 224.595 15.8026C225.047 18.6302 225.33 21.585 225.698 24.4833C225.811 25.3598 225.995 26.2222 226.178 27.2119C226.956 27.2119 227.592 27.2119 228.341 27.2119C231.208 27.0961 234.079 27.2285 236.923 27.6078C239.803 27.908 242.645 28.5002 245.406 29.375C247.997 30.1097 250.414 31.3549 252.517 33.0375C254.62 34.72 256.365 36.8059 257.649 39.1726C259.51 42.4358 260.193 46.2388 259.586 49.9457C259.586 50.2709 259.586 50.6102 259.445 50.9353C259.346 51.2251 259.35 51.5405 259.459 51.827C259.567 52.1135 259.772 52.3532 260.039 52.5047C262.192 54.0272 264.034 55.9466 265.468 58.1598C266.88 60.3905 267.881 62.8566 268.422 65.4409C269.27 70.2457 268.573 75.1957 266.429 79.5788C264.766 83.5708 261.874 86.9286 258.172 89.1643C257.812 89.3264 257.513 89.5985 257.317 89.9414C257.122 90.2844 257.04 90.6805 257.084 91.0729C257.101 95.5747 255.836 99.9883 253.436 103.797C252.41 105.754 251.147 107.577 249.676 109.226C247.72 111.27 245.423 112.959 242.889 114.217C241.688 114.839 241.716 114.825 241.956 116.125C242.694 120.079 242.262 124.162 240.712 127.874C239.186 131.572 237.2 135.063 234.802 138.265C232.525 141.354 229.638 143.943 226.32 145.872C222.106 148.278 217.67 150.272 213.072 151.824C211.744 152.29 210.344 152.559 208.987 152.94C208.625 153.061 208.271 153.203 207.926 153.365C208.068 154.51 208.181 155.57 208.322 156.63C208.753 160.602 208.853 164.603 208.619 168.591C208.492 172.295 208.492 176.028 208.322 179.732C208.152 183.676 207.813 187.621 207.573 191.565C207.347 195.17 207.163 198.79 206.937 202.395C206.668 206.848 206.385 211.316 206.117 215.769C206.123 216.04 206.151 216.309 206.201 216.575C206.482 216.268 206.742 215.942 206.979 215.6C208.492 213.069 210.047 210.567 211.461 207.979C212.507 206.043 213.384 204.021 214.288 202.013C216.466 197.065 218.53 192.117 220.778 187.168C222.2 183.993 224.024 181.014 226.207 178.304C227.752 176.474 229.621 174.945 231.72 173.794C235.142 171.857 238.167 173.964 239.171 177.187C239.999 179.925 239.819 182.87 238.662 185.486C236.216 191.382 233.502 197.178 230.985 203.045C230.095 205.152 229.402 207.357 228.681 209.535C227.865 212.137 227.334 214.82 227.097 217.537C226.952 218.562 226.905 219.599 226.956 220.633C227.182 223.206 227.507 225.765 227.79 228.324L228.115 228.437C228.599 227.788 229.025 227.097 229.388 226.373C231.629 221.101 234.266 216.006 237.277 211.132C238.902 208.305 240.571 205.477 242.324 202.649C243.822 200.274 245.434 197.956 247.046 195.651C247.62 194.824 247.899 193.828 247.838 192.824C247.753 189.779 247.687 186.73 247.64 183.676C247.64 180.396 247.64 177.102 247.64 173.78C247.651 173.126 247.713 172.473 247.823 171.829C247.906 171.511 247.885 171.174 247.763 170.869C247.641 170.564 247.424 170.306 247.145 170.132C245.467 168.678 244.364 166.672 244.035 164.477C243.837 163.671 244.346 163.063 245.349 162.78C246.718 162.357 248.159 162.221 249.582 162.382C251.006 162.542 252.381 162.996 253.62 163.714C255.179 164.63 256.357 166.075 256.942 167.785L257.324 169.001C257.748 170.274 257.621 170.599 256.433 171.263C254.564 172.206 252.425 172.47 250.382 172.013C249.997 171.948 249.614 171.863 249.237 171.758C248.969 178.643 249.096 185.415 249.039 192.527C249.421 192.131 249.577 192.004 249.704 191.848C251.556 189.431 253.351 186.971 255.26 184.595C257.536 181.768 259.883 178.94 262.244 176.113C262.994 175.222 263.884 174.444 264.704 173.61C265.029 173.257 265.326 172.861 265.651 172.479C263.94 170.395 262.883 167.852 262.612 165.17C262.569 164.975 262.568 164.772 262.609 164.577C262.65 164.381 262.732 164.196 262.849 164.035C262.967 163.873 263.117 163.738 263.291 163.639C263.464 163.54 263.657 163.478 263.856 163.459C266.097 163.118 268.383 163.219 270.586 163.756C271.877 164.119 273.075 164.757 274.097 165.625C275.12 166.494 275.943 167.573 276.509 168.789C277.204 170.183 277.681 171.676 277.923 173.214C277.983 173.44 277.961 173.679 277.86 173.889C277.758 174.099 277.585 174.266 277.372 174.359C275.579 175.327 273.513 175.666 271.505 175.321C269.78 175.165 268.134 174.528 266.754 173.483C258.321 182.565 250.806 192.458 244.317 203.017C253.493 197.871 262.993 193.403 272.522 188.879C272.475 188.637 272.404 188.4 272.31 188.172C271.45 186.502 270.913 184.684 270.727 182.814C270.655 182.477 270.667 182.128 270.761 181.797C270.855 181.465 271.029 181.162 271.268 180.914C271.506 180.666 271.802 180.48 272.129 180.372C272.457 180.265 272.805 180.239 273.145 180.297C274.488 180.453 275.845 180.58 277.188 180.764C278.453 180.917 279.671 181.337 280.761 181.998C281.851 182.659 282.787 183.544 283.508 184.595C283.978 185.366 284.394 186.169 284.752 186.999C286.378 186.603 287.664 185.316 289.474 185.302C289.487 185.588 289.407 185.87 289.246 186.107C289.086 186.344 288.853 186.523 288.583 186.617C287.749 187.069 286.915 187.508 286.123 188.031C285.671 188.299 285.063 188.526 285.204 189.445L288.866 188.936C290.068 188.752 291.227 188.017 292.697 188.695C292.33 189.049 292.146 189.332 291.891 189.43C291.325 189.665 290.738 189.845 290.138 189.968C288.583 190.265 287.014 190.519 285.402 190.802L284.893 193.304C284.059 193.304 283.762 193.064 283.734 192.343C283.718 191.174 283.623 190.007 283.451 188.851C283.041 186.419 281.274 183.535 278.545 182.969C278.619 183.59 278.562 184.219 278.377 184.816C278.191 185.412 277.883 185.964 277.471 186.433C277.086 186.96 276.556 187.362 275.946 187.591C275.335 187.82 274.671 187.864 274.035 187.72C273.88 188.837 274.742 189.317 275.322 189.756C277.125 191.212 279.33 192.085 281.641 192.258C282.221 192.258 282.886 192.103 283.31 192.668C283.31 193.29 282.857 193.46 282.461 193.502C281.726 193.615 280.977 193.615 280.242 193.502C278.171 193.194 276.219 192.34 274.587 191.028C274.247 190.717 273.866 190.434 273.555 190.18C271.646 191.07 269.808 191.862 268.012 192.767C264.704 194.421 261.438 196.16 258.116 197.814C255.925 198.903 253.662 199.822 251.499 200.953C249.336 202.084 247.357 203.328 245.293 204.53C244.95 204.774 244.585 204.987 244.204 205.166C242.861 205.693 241.763 206.701 241.122 207.994C238.492 212.56 235.891 217.127 233.276 221.693C233.046 222.075 232.915 222.507 232.894 222.952L234.887 220.59C237.305 217.655 240.329 215.277 243.752 213.62C244.67 213.141 245.665 212.825 246.692 212.687C247.361 212.595 248.041 212.668 248.675 212.9C249.308 213.132 249.875 213.517 250.324 214.02C250.774 214.523 251.093 215.128 251.254 215.783C251.414 216.439 251.411 217.123 251.245 217.777C250.736 220.265 249.958 222.697 249.393 225.157C248.484 228.495 248.662 232.036 249.902 235.266C250.043 235.605 250.043 236.001 250.156 236.354C250.309 236.727 250.484 237.09 250.679 237.443C251.542 236.623 252.291 235.845 253.111 235.153C253.931 234.46 255.218 233.442 256.264 232.594C256.674 232.268 257.07 231.929 257.437 231.576C259.134 229.8 261.391 228.661 263.828 228.352C264.691 228.13 265.588 228.077 266.471 228.197C266.909 228.278 267.318 228.472 267.658 228.76C267.997 229.047 268.256 229.419 268.408 229.837C268.726 230.765 268.839 231.75 268.742 232.726C268.644 233.702 268.338 234.645 267.843 235.492C266.254 238.762 264.144 241.751 261.594 244.342C258.724 247.483 256.799 251.368 256.038 255.554C255.868 257.09 255.868 258.64 256.038 260.177C256.038 261.958 256.221 263.725 256.306 265.507C256.306 266.298 256.391 267.09 256.306 267.868C256.191 270.977 255.212 273.993 253.479 276.577C252.644 277.858 251.898 279.195 251.245 280.578C250.918 281.455 250.686 282.365 250.552 283.292C250.326 284.381 250.128 285.484 249.916 286.643C250.109 286.654 250.303 286.654 250.496 286.643C252.319 286.643 254.143 286.53 255.967 286.502C261.269 286.403 266.585 286.332 271.9 286.219C274.728 286.219 277.626 286.049 280.482 285.993C283.338 285.936 285.925 285.908 288.654 285.879C289.135 285.879 289.771 285.667 289.884 286.431C289.955 286.954 289.502 287.322 288.71 287.378C285.798 287.548 282.871 287.76 279.959 287.845C274.982 287.972 270.062 288.099 265.029 288.028C259.996 287.958 255.133 288.255 250.241 288.537C250.147 288.53 250.052 288.53 249.958 288.537C248.884 288.636 244.572 288.891 243.497 288.962C241.15 289.117 238.818 289.315 236.428 289.428C232.866 289.584 229.359 289.668 225.726 289.81C223.28 289.895 220.834 290.036 218.402 290.135C215.066 290.276 211.744 290.432 208.407 290.517C204.166 290.644 199.924 290.701 195.584 290.771L182.86 290.941C181.658 290.941 180.456 291.153 179.255 291.181C176.582 291.181 173.91 291.181 171.238 291.181C167.152 291.181 163.067 291.181 158.967 291.181C153.849 291.181 148.717 291.068 143.599 291.026C140.206 291.026 136.827 290.941 133.448 290.927H114.376C110.049 290.927 105.723 290.927 101.411 290.927C96.1942 291.026 90.9914 291.224 85.7746 291.365C83.159 291.436 80.5294 291.464 77.9139 291.521L71.7073 291.634C69.3746 291.634 67.0277 291.634 64.6383 291.704L50.6983 291.987C45.0432 292.091 39.388 292.171 33.7328 292.227C30.778 292.227 27.809 292.227 24.8542 292.227C22.5497 292.227 20.2452 292.044 17.9408 292.058C16.2159 292.058 14.4911 292.242 12.7521 292.341C12.2432 292.341 11.7342 292.454 11.2111 292.439C11.1041 292.447 10.9966 292.433 10.895 292.399C10.7934 292.365 10.6997 292.31 10.6194 292.239C10.5391 292.168 10.4737 292.082 10.4273 291.985C10.3808 291.888 10.3541 291.783 10.3487 291.676C10.3487 291.082 10.7446 291.012 11.1828 290.941C13.5097 290.479 15.8803 290.275 18.2518 290.333C22.3801 290.545 26.5083 290.531 30.6366 290.333C33.6904 290.234 36.7442 290.333 39.798 290.333C40.2928 290.333 40.7877 290.234 41.3956 290.177C40.5615 288.764 39.7273 287.59 39.0911 286.289C37.4652 282.995 35.7263 279.744 34.4115 276.393C33.3911 273.46 32.5554 270.467 31.909 267.429C31.2021 264.602 30.5942 261.774 30.0428 258.947C29.7318 257.335 29.7318 255.667 29.3783 254.055C28.6756 250.142 26.9432 246.487 24.3594 243.466C23.3839 242.391 22.4932 241.232 21.6166 240.058C19.6797 237.457 20.0615 235.153 22.6628 233.286C22.7865 233.195 22.9003 233.091 23.0021 232.975L22.7901 230.473C22.7689 230.096 22.7689 229.719 22.7901 229.342C22.7433 228.75 22.8334 228.154 23.0534 227.602C23.2734 227.051 23.6175 226.557 24.0589 226.159C24.5004 225.761 25.0274 225.47 25.5992 225.309C26.1711 225.147 26.7724 225.12 27.3566 225.228C28.539 225.25 29.6969 225.568 30.7244 226.153C31.7519 226.739 32.6162 227.573 33.238 228.578C34.6518 230.699 35.8677 232.919 37.3097 234.983C38.7518 237.047 40.0666 238.546 41.4804 240.299C41.7349 240.638 42.1025 240.878 42.3711 241.204C43.8338 242.814 45.6756 244.034 47.7294 244.752C49.0159 245.304 50.3025 245.883 51.5608 246.491C52.0521 246.781 52.5243 247.102 52.9746 247.453C52.7908 246.477 52.7201 245.657 52.4939 244.894C51.5513 241.557 50.5428 238.235 49.4684 234.926C49.3457 234.578 49.1365 234.267 48.8604 234.022C45.7218 230.982 42.5549 227.97 39.4163 224.931C37.4652 223.05 35.5001 221.184 33.4642 219.403C31.8666 217.989 30.2125 216.731 28.5866 215.402C27.4273 214.469 26.1549 213.677 24.9814 212.772C23.808 211.867 23.1152 211.217 22.1539 210.425C21.0511 210.948 19.9766 211.542 18.8597 211.952C18.0063 212.214 17.1309 212.399 16.2442 212.504C15.4666 212.645 14.6749 212.744 13.8832 212.857C12.7663 213.027 12.3563 212.744 12.2856 211.669C12.1692 210.308 12.3242 208.938 12.7416 207.637C13.1591 206.336 13.8306 205.131 14.7173 204.092C16.2926 202.331 18.3871 201.118 20.6977 200.628L22.1963 200.218C23.2566 199.935 23.6101 200.218 23.7232 201.193C23.9976 203.34 23.8875 205.518 23.398 207.626C23.1767 208.146 23.1666 208.733 23.3698 209.26C23.573 209.788 23.9735 210.216 24.4866 210.454C28.0796 212.673 31.4464 215.24 34.5387 218.116C35.6839 219.092 36.8008 220.082 37.8752 221.114C38.9497 222.146 40.2363 223.503 41.4239 224.705L43.4739 226.839L47.7152 231.222C47.8708 231.392 48.0404 231.533 48.3514 231.83C48.2766 230.584 47.9898 229.36 47.5032 228.211C47.0225 226.599 46.4146 225.016 45.8066 223.432C43.7849 218.173 41.6784 212.956 39.2042 207.881C38.1297 205.689 37.2249 203.413 36.1646 201.222C34.9911 198.818 33.7894 196.429 32.4887 194.153C30.9194 191.325 29.2794 188.497 27.597 185.797C26.8194 184.525 25.8439 183.365 24.9108 182.065C24.0625 182.475 23.2001 182.842 22.3801 183.28C20.4493 184.371 18.2775 184.964 16.0604 185.005C15.608 185.005 15.1415 185.189 14.6466 185.232C13.3742 185.345 12.9783 184.949 12.9783 183.634C12.9783 183.365 12.9783 183.097 12.9783 182.644H7.74732C7.41925 182.665 7.09068 182.612 6.78594 182.489C6.66774 182.425 6.56636 182.334 6.49017 182.223C6.41397 182.113 6.36513 181.986 6.34766 181.853C6.37582 181.721 6.43382 181.598 6.51716 181.493C6.60051 181.387 6.70699 181.302 6.82835 181.245C7.31815 181.089 7.82741 181.004 8.34111 180.99C9.7549 180.99 11.0697 180.99 12.427 180.99C12.8652 180.99 13.3035 180.99 13.4308 180.425C13.558 179.859 13.0914 179.605 12.6532 179.421L7.77559 177.498C7.77559 176.664 8.18559 176.508 8.69456 176.607C9.38408 176.728 10.0609 176.913 10.7163 177.159C11.7625 177.541 12.7804 177.979 13.8266 178.417C14.6882 176.987 15.6323 175.609 16.6542 174.289C18.777 171.854 21.7006 170.26 24.8966 169.793C25.9175 169.649 26.9478 169.582 27.9787 169.595C28.3977 169.635 28.8079 169.74 29.1946 169.906L30.1842 169.199C30.6059 171.464 30.34 173.803 29.4208 175.915C28.7573 178.085 27.4509 180.002 25.6742 181.414L26.9749 182.998C27.3036 183.336 27.6106 183.695 27.8939 184.072C29.5339 186.603 31.2728 189.091 32.7715 191.707C34.8639 195.354 36.8856 199.073 38.7377 202.847C40.5897 206.622 42.2863 210.496 43.9687 214.356C45.0856 216.943 46.1318 219.558 47.0649 222.202C48.2383 225.525 49.2987 228.875 50.359 232.226C51.3487 235.35 52.3242 238.489 53.1866 241.642C54.049 244.795 54.7842 248.131 55.6042 251.355C55.7369 251.903 55.9215 252.438 56.1556 252.952C57.3636 255.497 59.2712 257.645 61.6552 259.145L62.9983 260.021C63.0832 259.314 63.1539 258.706 63.2387 258.084C63.3235 257.462 63.4508 256.784 63.5497 256.147C63.7759 254.498 63.3775 252.824 62.4328 251.454C61.2454 249.279 60.5731 246.86 60.4677 244.385C60.4807 242.08 60.0486 239.795 59.1952 237.655C58.2621 235.76 57.2442 233.908 56.2263 232C54.7277 229.243 53.1018 226.543 51.688 223.729C51.2133 222.556 50.8765 221.332 50.6842 220.082C50.2601 218.201 49.9773 216.293 49.4825 214.426C48.6518 211.976 47.5267 209.636 46.1318 207.456C44.6402 204.624 42.8281 201.972 40.7311 199.553C39.4592 198.244 38.2604 196.866 37.1401 195.425C36.2328 194.307 35.5723 193.01 35.2019 191.619C34.8316 190.227 34.7597 188.773 34.9911 187.352C35.1489 186.248 35.7164 185.244 36.5809 184.539C37.4454 183.835 38.5434 183.481 39.6566 183.549C42.0429 183.767 44.3535 184.5 46.4287 185.698C49.4666 187.447 52.3102 189.513 54.9114 191.862C55.4487 192.301 56.0142 192.682 56.707 193.191C56.8152 192.848 56.877 192.491 56.8908 192.131C56.6358 189.181 56.7212 186.211 57.1452 183.28C57.233 181.44 56.8279 179.61 55.9718 177.979C55.2225 176.367 54.3459 174.798 53.6532 173.158C52.9971 171.646 52.7956 169.975 53.0735 168.351C53.1761 167.953 53.3579 167.58 53.608 167.254C53.8582 166.928 54.1714 166.656 54.5292 166.454C54.8869 166.252 55.2816 166.125 55.6899 166.079C56.0981 166.033 56.5113 166.07 56.9049 166.188C57.9636 166.564 58.9597 167.098 59.8597 167.771C61.0353 168.78 62.1274 169.881 63.1256 171.065C65.119 173.313 67.0701 175.604 69.007 177.894C69.8835 178.94 70.6894 180.043 71.5659 181.16C72.1324 180.81 72.7343 180.521 73.3614 180.297C73.9693 180.104 74.6158 180.064 75.2427 180.183C75.8696 180.301 76.4572 180.574 76.9525 180.976C78.1401 181.98 79.3135 182.984 80.4728 184.002C80.897 184.369 81.2787 184.779 81.8866 185.415C81.9997 184.581 82.1128 184.002 82.1694 183.422C82.6218 179.35 83.0742 175.293 83.5125 171.221C83.7528 168.93 83.9366 166.64 84.2194 164.35C84.768 160.03 85.7146 155.771 87.047 151.626C87.6239 149.995 88.2845 148.395 89.0263 146.833C89.4787 145.829 89.9311 144.896 90.4401 143.708ZM188.897 62.5991C188.86 62.9705 188.86 63.3446 188.897 63.716C189.098 64.7138 189.041 65.7466 188.732 66.7164C188.423 67.6862 187.871 68.5611 187.129 69.2581C186.479 69.9526 185.656 70.4633 184.746 70.7388C183.835 71.0143 182.867 71.0449 181.941 70.8274C181.022 70.7143 180.117 70.5729 179.198 70.4315C179.183 71.2648 179.112 72.0961 178.986 72.9198C178.761 74.2063 178.121 75.3837 177.163 76.2722C176.206 77.1606 174.984 77.7112 173.684 77.8398C172.512 77.839 171.343 77.7254 170.192 77.5005C169.57 77.4157 168.948 77.246 168.312 77.1188C168.142 78.0236 168.029 78.7588 167.874 79.494C167.578 80.9565 166.789 82.2731 165.639 83.223C164.488 84.1728 163.046 84.6982 161.554 84.7109C159.248 84.6204 156.994 84.0013 154.966 82.9012C154.739 82.7568 154.473 82.686 154.205 82.6987C153.937 82.7114 153.679 82.8068 153.467 82.9719C151.643 84.3181 149.542 85.2407 147.317 85.6722C145.837 85.9816 144.296 85.7771 142.948 85.0926C142.239 84.7595 141.652 84.2116 141.272 83.5265C140.891 82.8413 140.736 82.0537 140.828 81.2753C140.828 80.8936 140.828 80.5119 140.828 80.1019C139.626 80.5402 138.58 80.936 137.519 81.3036C136.078 81.9006 134.485 82.0292 132.967 81.6712C131.856 81.4307 130.871 80.7917 130.199 79.8748C129.527 78.9579 129.214 77.8266 129.319 76.6947C129.34 76.4312 129.34 76.1664 129.319 75.9029C129.15 75.9029 129.037 75.9029 128.966 75.9029C128.633 76.0741 128.311 76.2678 128.005 76.4826C126.826 77.4238 125.41 78.0209 123.913 78.2081C122.416 78.3952 120.896 78.165 119.522 77.5429C119.093 77.3728 118.704 77.118 118.377 76.7936C117.769 76.2884 117.315 75.6237 117.066 74.8743C116.816 74.125 116.78 73.3207 116.963 72.5522C117.132 71.7464 117.217 70.9264 117.373 69.8943C116.765 70.1488 116.383 70.2902 115.959 70.4598C114.435 71.3193 112.676 71.6663 110.94 71.4495C110.569 71.4282 110.208 71.3269 109.88 71.1526C108.028 69.7388 106.685 67.9574 107.052 65.3843C107.052 64.946 107.052 64.4795 107.123 64.1684L98.4139 61.355L89.3797 58.5274C85.8311 57.4388 82.3108 56.2936 78.7339 55.2191C76.0643 54.5146 73.451 53.612 70.9156 52.5188C69.5692 51.9343 68.4277 50.9617 67.6369 49.7252C66.8462 48.4887 66.4421 47.0444 66.4763 45.5771C66.3912 40.9608 66.6891 36.3454 67.367 31.7784C67.4942 30.7181 67.579 29.6577 67.6921 28.4984C67.3152 28.6058 66.9247 28.6582 66.5328 28.654C64.2001 28.1874 61.8814 28.9933 59.5487 28.654C59.3149 28.6118 59.0755 28.6118 58.8418 28.654C57.1735 28.9509 55.5476 29.7426 53.7804 29.1488C53.5825 29.1488 53.328 29.2336 53.0877 29.276C52.4939 29.4174 51.9001 29.5164 51.3204 29.6719C50.3873 29.9405 49.4542 30.2515 48.4928 30.5202C47.8976 30.7586 47.267 30.8972 46.6266 30.9302C46.3656 30.8751 46.0944 30.895 45.8442 30.9876C45.594 31.0801 45.3751 31.2416 45.2128 31.4533C45.1139 31.5947 44.8877 31.835 44.8452 31.8209C44.0111 31.326 43.587 32.2309 42.979 32.4288C42.3059 32.5723 41.6855 32.8991 41.1865 33.3732C40.6875 33.8472 40.3293 34.4501 40.1515 35.115C39.7833 34.9805 39.3805 34.9744 39.0084 35.0976C38.6362 35.2207 38.3167 35.466 38.1014 35.7936C37.6914 36.4015 37.3946 37.0802 37.0128 37.7729C35.7404 38.2819 35.8252 38.3384 35.1042 39.3988C33.959 41.1095 34.157 43.004 34.1287 44.856C34.0838 45.7468 34.2234 46.6373 34.5387 47.4716C35.077 49.2004 36.0058 50.7822 37.2532 52.0946C37.9177 51.9957 38.7518 51.9108 39.5859 51.7695C40.4201 51.6281 40.9997 51.4302 41.7914 51.3171C44.9821 50.5979 48.3073 50.7493 51.4194 51.7553C52.1508 51.902 52.8355 52.2244 53.4143 52.6949C53.9932 53.1654 54.4488 53.7697 54.7418 54.4557C55.1005 55.5242 55.0295 56.6903 54.5439 57.7074C54.148 58.6688 53.6815 59.6302 52.3808 59.616C52.2393 59.6328 52.1063 59.692 51.999 59.7857C51.558 60.0999 51.0491 60.3059 50.5137 60.3869C49.9783 60.468 49.4313 60.4218 48.917 60.2522C45.8799 59.9324 42.8989 59.2098 40.0525 58.1033C38.9921 57.6367 37.8611 57.2691 36.7725 56.8309C36.4632 56.6561 36.0995 56.6042 35.7538 56.6854C35.408 56.7666 35.1054 56.975 34.9063 57.2691C34.6801 57.5378 34.5246 57.8205 34.1146 57.4671C34.1146 57.4671 33.6904 57.6509 33.4925 57.7781C33.2946 57.9053 33.139 58.1881 33.0259 58.1457C32.2483 57.9477 31.7535 58.4709 31.2446 58.8526C29.4995 60.1359 27.9679 61.6866 26.7063 63.4474C26.0859 64.2029 25.5809 65.0462 25.2077 65.9498C23.8007 69.8806 23.8007 74.1777 25.2077 78.1084C25.4904 78.8436 25.6177 79.6636 26.6215 79.8474C26.8052 79.8474 26.9466 80.3564 27.0315 80.6391C27.0919 80.9273 27.1203 81.2213 27.1163 81.5157C28.007 81.5157 28.4028 82.0246 28.7846 82.6467C29.0507 83.0797 29.396 83.4586 29.8025 83.7636C30.3385 84.1376 30.9062 84.464 31.499 84.7391C32.4604 85.2057 33.4501 85.6157 34.4821 86.1529C34.9346 84.7391 35.2456 83.3253 35.7263 82.0953C36.1196 80.8322 36.7594 79.6595 37.6088 78.6451C38.4581 77.6308 39.5001 76.7948 40.6746 76.1857C41.9092 75.6299 43.1798 75.1576 44.4777 74.7719C47.0887 74.0959 49.8245 74.062 52.4515 74.6729C54.2046 75.0212 55.8778 75.6924 57.3856 76.6522C57.6234 76.7921 57.815 76.9985 57.937 77.246C58.2766 77.9148 58.5741 78.6042 58.8277 79.3102C59.2583 80.641 59.2504 82.075 58.805 83.401C58.3596 84.727 57.5003 85.875 56.3535 86.676C55.0639 87.7501 53.5945 88.5877 52.0132 89.1502C50.6842 89.6026 49.4118 90.2388 48.0546 90.564C45.5824 91.1102 43.0456 91.3054 40.519 91.1436C39.2042 91.1436 38.6811 91.7798 39.1052 93.0098C39.388 93.7874 39.6566 94.5933 40.7028 94.8195C40.4684 95.0793 40.3386 95.4168 40.3386 95.7667C40.3386 96.1167 40.4684 96.4542 40.7028 96.7139C41.2401 97.5905 41.8056 98.4671 42.3146 99.3577C43.8304 102.029 45.8922 104.351 48.3656 106.172C50.4721 107.742 50.4297 107.727 52.607 106.172C56.7763 103.254 61.8484 101.916 66.9146 102.397C67.85 102.512 68.7507 102.823 69.5573 103.31C70.3639 103.797 71.0581 104.45 71.5942 105.225C71.7401 105.409 71.8329 105.629 71.8628 105.861C72.2021 108.562 71.7073 110.187 69.4028 111.7C67.71 112.831 65.7707 113.539 63.7477 113.764C60.9154 114.149 58.0356 113.986 55.2649 113.284C53.9642 112.902 52.6635 112.548 51.2073 112.138C50.7832 113.1 50.4721 114.033 49.9915 114.881C48.7561 117.221 48.492 119.954 49.2563 122.487C49.7893 125.513 51.3895 128.247 53.7663 130.193C54.7842 132.214 57.2301 132.398 58.6297 133.939C58.8136 134.084 59.0253 134.19 59.2518 134.25C61.3866 135.056 63.4932 135.933 65.6563 136.611C67.8194 137.29 70.0815 137.813 72.3294 138.294C74.0684 138.675 75.8356 138.916 77.6028 139.17C78.2956 139.283 79.0166 139.17 79.7094 139.297C81.0525 139.453 82.3814 139.736 83.7246 139.778C86.3542 139.863 88.9839 139.778 91.6277 139.849C91.9483 139.876 92.2693 139.8 92.5439 139.632C92.8185 139.464 93.0324 139.213 93.1546 138.916C93.7925 137.665 94.5807 136.497 95.5015 135.438C98.0988 132.722 101.081 130.402 104.352 128.553C106.826 127.139 109.371 125.725 111.972 124.594C115.147 123.03 118.604 122.122 122.137 121.922C122.55 121.907 122.962 121.979 123.345 122.134C123.728 122.288 124.074 122.522 124.361 122.82C124.648 123.117 124.869 123.472 125.009 123.86C125.15 124.249 125.207 124.663 125.177 125.075C125.106 125.414 125.106 125.782 125.064 126.163C125.229 126.175 125.394 126.175 125.559 126.163C127.241 126.078 128.924 125.909 130.62 125.895C132.317 125.881 132.755 126.474 132.614 128.072C132.614 128.821 132.387 129.486 132.302 130.306C132.218 131.126 132.204 131.719 132.147 132.511L141.139 133.261V135.098C138.141 135.296 135.271 134.646 132.26 134.773C132.076 137.332 131.907 139.75 131.723 142.238L140.206 142.959L139.979 144.953L131.638 144.429C131.553 145.348 131.468 146.126 131.398 146.918C131.313 148.049 131.27 149.18 131.129 150.297C130.988 151.414 130.507 151.866 129.334 151.711C127.51 151.527 125.686 151.286 123.876 151.004C122.576 150.82 121.303 150.537 119.932 150.268C119.776 150.792 119.607 151.23 119.494 151.682C118.87 154.059 117.789 156.292 116.312 158.256C114.969 160.066 113.485 161.763 112.17 163.586C111.344 164.611 110.707 165.774 110.29 167.022C109.548 169.878 108.981 172.777 108.593 175.703C108.141 179.152 107.9 182.63 107.731 186.094C107.49 191.028 107.434 195.99 107.236 200.91C107.123 203.738 106.897 206.566 106.755 209.393C106.586 212.447 106.458 215.501 106.303 218.555C106.152 219.818 106.312 221.099 106.769 222.287C108.244 225.597 109.436 229.026 110.332 232.537C110.544 233.301 110.855 234.05 111.11 234.813C111.665 234.059 112.113 233.231 112.439 232.353C113.245 230.289 114.065 228.239 114.814 226.175C115.308 224.956 115.682 223.692 115.931 222.4C116.359 221.238 116.667 220.034 116.85 218.809C116.989 217.978 117.211 217.163 117.514 216.377C118.232 212.736 119.176 209.142 120.342 205.618C121.477 201.832 123.219 198.256 125.502 195.029C126.267 194.086 127.145 193.24 128.118 192.513C128.425 192.288 128.788 192.152 129.166 192.12C129.545 192.088 129.926 192.16 130.267 192.329C130.989 192.609 131.628 193.069 132.123 193.665C132.617 194.262 132.952 194.974 133.094 195.736C133.638 198.047 133.44 200.471 132.529 202.664C131.375 205.386 130.54 208.232 130.04 211.146C129.812 212.634 129.774 214.145 129.927 215.642C130.224 218.102 130.761 220.534 131.256 222.98C131.69 224.423 131.796 225.944 131.567 227.433C131.101 229.398 130.521 231.335 129.913 233.258C129.155 235.279 128.762 237.419 128.754 239.578C128.75 241.322 129.007 243.056 129.517 244.724C130.04 246.138 130.422 247.636 130.931 249.064C131.327 250.139 131.85 251.171 132.345 252.302C132.504 252.025 132.632 251.731 132.727 251.425C132.925 250.28 133.122 249.135 133.25 247.976C133.476 246.109 133.631 244.229 133.829 242.321C133.942 241.062 133.985 239.776 134.197 238.532C134.876 234.785 135.512 231.038 136.36 227.32C137.293 223.206 138.396 219.12 139.499 215.034C140.121 212.73 140.912 210.468 141.605 208.121C141.333 207.885 141.034 207.681 140.715 207.513C138.141 206.58 136.473 204.544 134.536 202.706C133.829 202.013 133.942 201.617 134.72 200.967C134.895 200.81 135.09 200.677 135.3 200.571C137.406 199.652 139.541 198.733 141.662 197.899C142.365 197.633 143.116 197.513 143.867 197.546C146.623 197.628 149.273 198.623 151.403 200.373C151.558 200.204 151.714 200.034 151.855 199.85C152.162 199.397 152.589 199.039 153.089 198.817C153.589 198.594 154.141 198.516 154.683 198.592C156.278 198.761 157.77 199.457 158.924 200.571C160.512 201.9 161.864 203.487 162.925 205.265C163.363 205.885 163.835 206.48 164.339 207.046C165.088 206.481 165.824 206.043 166.431 205.477C167.435 204.597 168.379 203.653 169.259 202.649C170.673 200.995 171.846 199.214 173.204 197.546C173.942 196.56 174.952 195.811 176.11 195.392C177.268 194.972 178.523 194.9 179.721 195.185C180.838 195.411 181.927 195.75 183.114 196.075C183.326 194.662 183.581 193.403 183.694 192.117C183.864 190.01 183.906 187.875 184.061 185.783C184.217 183.69 184.471 181.683 184.669 179.619C184.938 176.791 185.122 173.822 185.532 170.952C185.624 170.523 185.608 170.078 185.488 169.657C185.367 169.235 185.144 168.85 184.839 168.535C183.662 167.314 182.684 165.916 181.941 164.392C180.923 162.116 179.99 159.812 178.986 157.535C178.574 156.564 178.102 155.62 177.572 154.708C177.406 154.398 177.145 154.149 176.826 153.999C176.508 153.849 176.15 153.805 175.805 153.874C173.224 154.248 170.592 153.75 168.326 152.46C167.794 152.16 167.176 152.05 166.573 152.149C164.198 152.46 161.822 152.743 159.433 152.969C158.274 153.082 157.086 153.096 155.913 153.11C155.797 153.132 155.677 153.131 155.561 153.106C155.446 153.08 155.336 153.032 155.24 152.963C155.143 152.894 155.062 152.807 155 152.706C154.938 152.605 154.898 152.492 154.881 152.375C154.767 151.972 154.686 151.561 154.64 151.145C154.739 148.134 154.838 145.122 154.994 142.111C155.149 139.099 155.418 135.918 155.616 132.822C155.715 131.225 155.786 129.613 155.899 128.015C155.998 126.7 156.591 126.248 157.892 126.248C160.801 126.49 163.679 127.01 166.488 127.803C167.105 127.975 167.709 128.188 168.298 128.439C168.632 127.899 169.074 127.434 169.597 127.074C170.121 126.713 170.713 126.466 171.337 126.347C174.449 125.815 177.638 125.945 180.697 126.729C183.273 127.426 185.812 128.256 188.303 129.217C191.478 130.262 194.516 131.686 197.351 133.458C199.074 134.399 200.615 135.639 201.904 137.12C202.653 138.124 203.176 139.297 203.925 140.329C204.973 141.997 205.764 143.813 206.272 145.716C206.725 147.031 207.205 148.346 207.686 149.774C208.223 149.66 208.718 149.576 209.199 149.434C209.896 149.145 210.608 148.895 211.333 148.685C212.844 148.348 214.297 147.79 215.646 147.031C215.867 146.863 216.123 146.748 216.395 146.692C217.937 146.484 219.417 145.949 220.735 145.122C222.418 144.26 224.086 143.369 225.712 142.408C227.648 141.366 229.396 140.009 230.886 138.393C232.003 137.092 232.936 135.636 233.926 134.222C234.828 133.023 235.659 131.772 236.414 130.475C237.283 128.916 238.002 127.278 238.563 125.584C239.022 124.012 239.311 122.396 239.426 120.763C239.711 119.275 239.466 117.734 238.733 116.408C238.323 116.408 237.856 116.408 237.404 116.535C235.043 116.917 232.682 117.384 230.335 117.681C227.886 118.053 225.383 117.552 223.266 116.267C221.221 115.161 219.671 113.322 218.926 111.121C218.609 110.006 218.656 108.82 219.061 107.734C219.465 106.648 220.205 105.72 221.174 105.084C222.77 104.142 224.639 103.768 226.475 104.023C229.615 104.425 232.62 105.548 235.255 107.303C236.769 108.254 238.132 109.427 239.298 110.781C239.394 110.943 239.522 111.085 239.673 111.197C239.824 111.31 239.997 111.391 240.18 111.435C240.363 111.48 240.553 111.488 240.739 111.458C240.925 111.428 241.104 111.362 241.264 111.262C241.598 111.1 241.923 110.92 242.239 110.725C243.059 110.173 243.653 109.311 244.77 109.212C245.052 109.212 245.321 108.873 245.59 108.689C247.567 107.15 249.212 105.226 250.425 103.034C251.841 100.911 252.902 98.5708 253.563 96.106C253.903 94.6922 254.002 93.2784 254.256 91.6243C253.564 91.8081 253.125 91.8929 252.701 92.0343C249.093 93.4495 245.12 93.6432 241.391 92.5857C239.313 91.9963 237.342 91.08 235.552 89.8712C234.709 89.3274 233.995 88.607 233.458 87.76C232.921 86.913 232.574 85.9595 232.441 84.9653C232.265 84.0102 232.383 83.0239 232.781 82.1378C233.426 81.0349 234.302 80.0848 235.349 79.3526C236.396 78.6205 237.589 78.1237 238.846 77.8964C240.631 77.5019 242.448 77.2747 244.275 77.2177C246.258 77.1252 248.224 77.6168 249.93 78.6315C252.598 80.1752 254.688 82.5483 255.882 85.3895C256.335 86.5629 257.027 86.3509 257.706 85.7853C258.02 85.5064 258.318 85.2089 258.597 84.8946C259.516 83.9757 260.505 83.1133 261.424 82.0671C262.854 80.2693 263.907 78.2017 264.52 75.9878C265.787 73.034 266.127 69.7655 265.496 66.6143C265.171 65.4126 264.874 64.1826 264.478 62.995C264.222 62.4389 263.929 61.9005 263.601 61.3833C262.357 59.1228 260.599 57.1859 258.469 55.7281C258.13 56.2795 257.819 56.7319 257.55 57.1419C256.075 60.2398 253.478 62.6608 250.284 63.914C246.297 65.3278 242.409 65.5964 238.761 62.7971C237.93 62.2256 237.251 61.4588 236.785 60.564C236.32 59.6692 236.08 58.6738 236.089 57.665C236.04 56.7233 236.245 55.7857 236.683 54.9505C237.573 53.4782 238.752 52.2017 240.149 51.1981C241.547 50.1945 243.133 49.4847 244.812 49.1115C248.072 48.164 251.556 48.3332 254.709 49.5922C255.301 49.8037 255.905 49.9784 256.518 50.1153C256.936 49.08 257.049 47.9468 256.844 46.8495C256.892 45.1935 256.543 43.5502 255.826 42.0567C255.064 40.3024 253.936 38.731 252.517 37.4478C251.217 36.3167 250.156 34.9029 248.276 34.6202C248.12 34.6202 248.007 34.394 247.852 34.295C247.117 33.8137 246.346 33.3884 245.547 33.0226C244.573 32.6831 243.577 32.4138 242.564 32.2167C240.288 31.7078 238.026 31.0857 235.721 30.8029C233.063 30.4919 230.363 30.506 227.691 30.3929C227.26 30.41 226.831 30.4525 226.405 30.5202C226.405 30.9867 226.32 31.3543 226.405 31.7219C226.489 33.6871 226.56 35.6664 226.687 37.6315C226.998 40.3911 227.083 43.1713 226.942 45.9447C226.744 47.8391 226.433 49.6629 224.694 50.9071C223.584 51.6805 222.321 52.2061 220.99 52.4481C218.077 53.0136 215.165 53.5226 212.252 54.0174C208.534 54.6395 204.816 55.2191 201.098 55.7846C200.865 55.7985 200.641 55.8774 200.451 56.0124C200.261 56.1474 200.113 56.333 200.023 56.5481C199.044 58.4415 197.581 60.0416 195.782 61.1853C195.013 61.774 194.134 62.2025 193.196 62.4453C192.259 62.6882 191.283 62.7405 190.325 62.5991C189.849 62.5709 189.372 62.5709 188.897 62.5991ZM124.767 41.5195C124.138 40.9022 123.583 40.2143 123.113 39.4695C122.661 38.6053 122.391 37.658 122.318 36.6856C122.245 35.7132 122.371 34.7362 122.689 33.8143C123.606 30.809 124.858 27.9161 126.421 25.1902C128.363 21.5402 130.736 18.1369 133.49 15.0533C134.872 13.3759 136.63 12.0486 138.622 11.1795C140.367 10.4726 142.205 10.0203 144.079 9.83637C145.366 9.70913 146.638 9.55362 148.123 9.38396C146.847 8.23356 145.351 7.35346 143.726 6.79672C140.167 5.25529 136.234 4.79317 132.416 5.46775C128.655 6.04741 124.937 6.88154 121.19 7.60258C115.734 8.57897 110.187 8.95822 104.649 8.73362C104.277 8.71241 103.904 8.71241 103.532 8.73362C98.8792 8.98384 94.2144 8.87986 89.5777 8.42258C85.0677 8.08327 80.5859 7.53189 76.0901 7.09361C74.3794 6.92396 73.8139 7.26327 73.2625 8.93155C72.8693 10.0828 72.5528 11.2588 72.3152 12.4519C71.6083 16.2409 70.9014 20.0157 70.3077 23.7622C69.7139 27.5088 69.3321 31.6936 68.8939 35.6664C68.7242 37.0802 68.5828 38.5788 68.5404 40.035C68.5404 42.2829 68.4273 44.545 68.5404 46.7929C68.5473 47.5501 68.7568 48.2917 69.1471 48.9406C69.5374 49.5895 70.0944 50.122 70.7601 50.4829C72.4375 51.4278 74.2286 52.1547 76.0901 52.646C80.5294 53.8902 84.9263 55.2616 89.3373 56.6047C91.4863 57.2691 93.5787 58.0184 95.7559 58.7112C97.9332 59.404 100.436 60.125 102.825 60.8177C104.352 61.2843 105.865 61.7933 107.391 62.2315C107.631 62.3619 107.912 62.395 108.175 62.3239C108.438 62.2528 108.664 62.0831 108.805 61.8498C109.668 60.6905 110.572 59.5595 111.463 58.4284C111.591 58.2957 111.734 58.1772 111.887 58.075C112.6 57.5476 113.351 57.075 114.135 56.6612C115.873 55.5596 117.785 54.7613 119.79 54.3002C122.307 53.8336 124.71 54.0881 126.294 56.4915C126.888 57.3822 127.298 58.3719 127.891 59.4888C128.514 59.4888 132.868 59.1212 134.013 59.4888C134.859 59.7795 135.658 60.1888 136.388 60.7046C137.478 61.4702 138.252 62.6058 138.566 63.8998C138.76 64.9261 138.616 65.9879 138.156 66.9253C138.721 66.7133 139.075 66.6143 139.386 66.4588C141.063 65.598 142.929 65.1703 144.815 65.2146C145.416 65.2375 146.004 65.392 146.539 65.6671C147.046 65.9821 147.519 66.3468 147.953 66.7557C148.621 67.2012 149.158 67.8181 149.506 68.5418C149.854 69.2656 150.001 70.0696 149.932 70.8698C149.906 71.2228 149.906 71.5772 149.932 71.9302C150.625 71.8595 151.233 71.8029 151.827 71.7181C152.421 71.6333 153.114 71.4636 153.764 71.3929C154.341 71.3683 154.917 71.4591 155.458 71.66C156 71.8609 156.496 72.1679 156.917 72.5629C157.339 72.9579 157.677 73.433 157.912 73.9604C158.148 74.4878 158.275 75.0569 158.288 75.6343C158.204 77.0041 157.666 78.307 156.761 79.3384C156.323 79.8615 155.941 80.4271 155.432 81.134C157.398 81.9594 159.467 82.5158 161.582 82.7881C162.102 82.7886 162.617 82.6827 163.095 82.4771C164.272 81.9076 165.249 80.995 165.898 79.8593C166.547 78.7237 166.836 77.4183 166.728 76.115C165.809 75.7333 164.89 75.394 163.986 74.9981L155.234 71.0677C154.539 70.7836 153.863 70.453 153.212 70.0781C152.986 69.9367 152.746 69.4984 152.817 69.3005C152.906 69.1769 153.023 69.0756 153.157 69.0044C153.292 68.9333 153.442 68.8943 153.594 68.8905C154.016 68.9053 154.429 69.0063 154.81 69.1874C157.85 70.4598 160.861 71.7888 163.915 73.0329C166.219 73.9802 168.538 74.8991 170.885 75.705C171.749 76.0386 172.688 76.1294 173.6 75.9674C174.512 75.8054 175.363 75.3969 176.059 74.786C179.198 70.1346 176.059 69.1309 175.833 68.5088C175.395 68.3109 174.928 68.1129 174.419 67.8867C170.701 66.0912 166.955 64.324 163.265 62.486C162.343 62.0401 161.458 61.52 160.621 60.9309C160.281 60.6764 159.956 60.2947 160.338 59.8422C160.72 59.3898 161.101 59.6019 161.483 59.8422C161.596 59.9129 161.709 60.0119 161.837 60.0826C163.477 61.0015 165.074 61.9771 166.771 62.7971C169.598 64.2109 172.539 65.5398 175.437 66.8547C176.957 67.585 178.52 68.2224 180.117 68.7633C181.231 69.1588 182.421 69.2942 183.595 69.1591C186.677 68.5653 187.751 66.8405 187.568 63.504C187.554 63.0916 187.409 62.6942 187.155 62.3691C186.901 62.0439 186.551 61.8077 186.154 61.6943C185.221 61.3663 184.309 60.9791 183.425 60.535C181.814 59.6867 180.202 58.796 178.632 57.8346C175.876 56.1381 173.161 54.3709 170.432 52.6319C170.176 52.5071 169.956 52.317 169.796 52.0805C169.641 51.7978 169.485 51.3312 169.612 51.105C169.853 50.6667 170.305 50.7374 170.729 51.006C173.119 52.5753 175.55 54.0881 177.926 55.6715C181.018 57.6865 184.34 59.324 187.822 60.5491C189.102 61.1136 190.517 61.3004 191.9 61.0875C193.282 60.8746 194.575 60.2708 195.626 59.3474C196.718 58.4976 197.631 57.4406 198.312 56.2371C197.333 55.9297 196.386 55.5272 195.485 55.0353C193.195 53.4802 190.956 51.859 188.769 50.1719C186.917 48.7581 185.178 47.1605 183.355 45.6902C181.305 44.0502 179.212 42.4667 177.176 40.8126C174.547 38.6777 171.974 36.4864 169.358 34.3374C167.647 32.9236 165.922 31.5098 164.212 30.1809C163.166 29.2869 161.841 28.7868 160.465 28.7671C159.193 28.7671 157.92 28.6115 156.662 28.5833C153.882 28.4511 151.098 28.771 148.42 29.5305C147.786 29.7102 147.208 30.0455 146.737 30.506C145.9 31.379 145.143 32.3253 144.475 33.3336C143.217 35.4345 141.728 37.3883 140.036 39.1584C138.475 40.8076 136.507 42.0169 134.331 42.6646C132.154 43.3124 129.846 43.3757 127.637 42.8484C126.613 42.5684 125.643 42.1192 124.767 41.5195ZM172.327 289.188H176.172C180.414 289.188 184.655 289.117 188.897 289.046C193.138 288.976 197.054 288.848 201.14 288.764C203.247 288.764 205.381 288.764 207.474 288.665C210.386 288.552 213.299 288.354 216.211 288.255C218.742 288.156 218.459 288.707 219.265 285.809C219.896 283.646 220.415 281.451 220.82 279.235C221.223 276.45 221.223 273.622 220.82 270.837C220.751 270.369 220.718 269.896 220.721 269.423C220.721 267.274 220.82 265.182 220.721 262.976C220.78 259.824 221.382 256.705 222.503 253.758C223.224 251.652 224.114 249.587 224.991 247.537C226.382 244.425 227.09 241.05 227.069 237.641C227.069 236.227 227.352 234.813 227.21 233.399C227.027 231.406 226.574 229.427 226.235 227.447C225.538 223.746 225.419 219.96 225.881 216.222C226.466 212.076 227.597 208.025 229.246 204.176C229.685 203.144 230.095 202.098 230.547 201.066C232.145 197.362 233.742 193.658 235.368 189.954C236.595 187.466 237.452 184.814 237.913 182.079C238.304 180.272 238.101 178.388 237.333 176.706C236.991 175.923 236.354 175.306 235.559 174.991C234.765 174.676 233.878 174.688 233.092 175.024C231.746 175.786 230.465 176.656 229.26 177.625C226.957 179.72 225.1 182.259 223.803 185.09C222.234 187.918 220.976 191.056 219.689 194.054C218.035 197.786 216.466 201.547 214.741 205.251C213.878 207.117 212.818 208.884 211.8 210.68C210.386 213.168 208.972 215.628 207.488 218.088C206.896 218.929 206.384 219.823 205.961 220.76C205.681 221.61 205.154 222.358 204.448 222.909C203.041 224.123 201.839 225.555 200.886 227.151C199.281 229.415 197.966 231.87 196.969 234.46C195.652 237.323 194.661 240.325 194.015 243.409C193.732 245.261 193.195 247.071 192.912 248.923C192.488 251.75 192.12 254.578 191.866 257.406C191.611 260.233 191.498 262.948 191.427 265.719C191.357 269.183 191.3 272.661 191.427 276.124C191.555 279.588 191.837 282.684 192.049 286.021C192.085 286.208 192.085 286.4 192.049 286.586C191.936 286.813 191.752 287.124 191.569 287.166C191.385 287.208 191.046 286.982 190.918 286.784C190.776 286.539 190.698 286.262 190.692 285.978C190.367 282.91 189.985 279.843 189.773 276.76C189.476 272.87 189.448 268.963 189.688 265.068C189.795 264.094 189.766 263.109 189.604 262.142C189.355 261.144 188.954 260.19 188.416 259.314C186.635 256.218 184.839 253.15 182.945 250.125C181.05 247.099 179.099 244.342 177.176 241.444C176.37 240.228 175.55 239.026 174.787 237.782C173.009 234.473 171.56 230.997 170.461 227.405C169.57 224.945 169.188 222.329 168.128 219.912C167.478 218.498 167.096 216.886 166.46 215.43C165.611 213.507 164.565 211.669 163.632 209.775C162.12 206.637 160.017 203.819 157.44 201.476C156.665 200.696 155.625 200.237 154.527 200.189C153.524 200.189 153.198 200.402 152.944 201.377C152.312 203.869 152.567 206.503 153.665 208.828C154.465 210.718 155.366 212.563 156.365 214.356C157.774 217.006 158.998 219.75 160.027 222.57C160.892 224.599 161.463 226.741 161.724 228.932C161.952 232.963 161.623 237.007 160.748 240.949C160.125 244.535 160.029 248.193 160.465 251.807C160.837 254.947 161.868 257.973 163.491 260.686C164.311 262.099 165.018 263.513 165.739 264.927C166.891 267.51 167.58 270.277 167.775 273.099C168.001 274.824 168.255 276.548 168.637 278.245C169.335 280.93 170.331 283.529 171.606 285.993C172.148 286.966 172.399 288.076 172.327 289.188ZM224.241 28.7105C224.157 27.5795 224.086 26.4626 223.973 25.3457C223.775 23.2815 223.563 21.2174 223.351 19.1674C223.297 17.9033 223.141 16.6456 222.884 15.4067C222.191 13.0033 221.47 11.5471 218.53 11.8157H218.12L205.862 11.5471C200.49 11.4481 195.131 11.3491 189.773 11.2784L176.37 11.0946L170.037 10.9957C168.255 10.9957 166.474 10.8543 164.692 10.826C162.388 10.826 160.084 10.826 157.793 10.826C152.805 10.7027 147.815 10.9484 142.864 11.5612C141.319 11.7586 139.824 12.2378 138.452 12.975C135.587 14.76 133.169 17.1783 131.384 20.044C129.592 22.4622 128.021 25.0362 126.69 27.735C125.529 29.9394 124.65 32.2811 124.074 34.705C123.905 35.8619 123.978 37.0411 124.286 38.1688C124.557 39.003 125.059 39.7428 125.736 40.3012C126.412 40.8597 127.233 41.2136 128.104 41.3215C129.926 41.7412 131.823 41.7026 133.627 41.2092C135.431 40.7157 137.084 39.7828 138.438 38.494C139.866 37.1957 141.108 35.7066 142.128 34.0688C142.839 32.9057 143.613 31.7824 144.447 30.704C145.375 29.3074 146.784 28.301 148.406 27.8764C150.272 27.4699 152.16 27.1725 154.061 26.9857C155.87 26.8726 157.722 27.2826 159.532 27.1978C161.902 27.0834 164.224 27.8945 166.007 29.4598C170.249 32.9378 174.688 36.3591 178.958 39.8795C182.761 43.0181 186.451 46.2981 190.268 49.4226C192.194 51.0162 194.21 52.4984 196.305 53.8619C197.347 54.6234 198.648 54.9434 199.924 54.7526C203.752 53.8895 207.621 53.2242 211.517 52.7591C214.859 52.3992 218.168 51.78 221.414 50.9071C222.418 50.8003 223.345 50.3161 224.006 49.5525C224.668 48.7888 225.015 47.8025 224.977 46.7929C225.443 42.7353 224.821 38.7202 224.637 34.6909C224.538 32.7257 224.34 30.7181 224.241 28.7105ZM110.799 289.018C121.812 288.82 132.698 289.471 143.429 289.117C143.79 288.548 144.201 288.014 144.659 287.519C145.723 286.456 146.611 285.229 147.289 283.886C148.818 281.461 149.989 278.827 150.767 276.068C150.997 275.095 151.324 274.148 151.742 273.24C152.506 271.529 153.34 269.847 154.117 268.151C155.121 265.973 156.082 263.796 157.086 261.619C157.878 259.866 158.726 258.141 159.476 256.374C159.668 255.903 159.707 255.384 159.589 254.889C158.878 252.16 158.62 249.332 158.825 246.519C159.08 242.646 159.702 238.786 160.112 234.912C160.309 233.327 160.394 231.73 160.366 230.134C160.204 227.745 159.65 225.4 158.726 223.192C158.161 221.778 157.638 220.364 157.001 218.951C156.576 218.087 156.104 217.246 155.588 216.434C154.598 217.692 153.721 218.71 152.958 219.813C151.915 221.2 151.072 222.728 150.456 224.351C149.636 226.74 148.745 229.102 147.882 231.42C146.795 234.12 145.37 236.671 143.641 239.012C142.1 241.246 140.191 243.254 138.537 245.388C135.441 249.482 133.126 254.112 131.709 259.046C130.903 261.732 129.8 264.333 128.881 266.977C128.245 268.688 127.467 270.356 126.958 272.095C126.11 274.923 125.417 277.75 124.668 280.663C124.23 282.303 123.82 283.943 123.41 285.583C123.297 286.035 123.169 286.487 123.056 286.996C122.943 287.505 122.745 287.788 122.307 287.604C121.869 287.42 121.925 287.053 121.855 286.742C121.847 286.462 121.895 286.183 121.996 285.922C122.364 284.381 122.759 282.84 123.113 281.299C123.41 280.069 123.65 278.825 123.933 277.595C124.102 276.916 124.272 276.181 124.47 275.559C125.12 273.353 125.742 271.134 126.492 268.956C127.1 267.189 127.906 265.507 128.584 263.754C129.305 261.76 129.687 259.639 130.592 257.745C131.85 255.129 130.988 252.726 130.125 250.422C129.089 248.023 128.28 245.534 127.708 242.985C127.223 240.978 127.175 238.89 127.566 236.863C128.179 234.507 128.848 232.151 129.574 229.794C130.195 228.055 130.365 226.188 130.069 224.365C129.687 222.344 129.319 220.322 128.825 218.328C127.967 214.35 128.267 210.21 129.687 206.396C130.267 204.615 130.988 202.862 131.511 201.066C132.118 199.312 132.118 197.405 131.511 195.651C130.747 193.629 128.966 192.908 127.566 194.69C126.769 195.615 126.054 196.608 125.431 197.659C124.016 200.1 122.883 202.695 122.052 205.392C121.374 207.739 120.639 210.044 119.889 212.461C119.451 213.974 119.154 215.543 118.758 217.07C118.037 219.799 117.203 222.485 116.553 225.228C115.684 228.397 114.569 231.493 113.216 234.488C112.382 236.524 111.477 238.546 110.77 240.638C109.857 243.65 109.125 246.714 108.579 249.814C107.711 253.419 107.288 257.118 107.321 260.827C107.519 264.814 107.872 268.787 108.226 272.774C108.466 275.601 108.89 278.429 109.102 281.256C109.36 283.901 109.93 286.507 110.799 289.018ZM91.9387 289.301C91.8114 288.382 91.7125 287.647 91.6135 286.912C91.3873 285.088 91.2884 283.25 90.9349 281.454C90.4201 278.682 90.2209 275.86 90.3411 273.042C90.4815 269.281 90.2446 265.516 89.6342 261.803C89.4201 260.315 89.0456 258.855 88.5173 257.448C87.3918 254.859 86.7268 252.094 86.5521 249.276C86.5641 247.658 86.2566 246.053 85.6473 244.554C85.0111 243.141 84.6718 241.529 84.1345 240.016C83.3339 237.409 82.2432 234.9 80.8828 232.537C79.5822 230.487 78.7339 228.154 77.6311 225.977C76.9949 224.719 76.2173 223.559 75.5104 222.315C74.7046 220.831 74.0966 219.262 73.1776 217.805C71.467 214.978 69.7987 212.037 67.8477 209.323C65.0201 205.449 61.9946 201.745 59.0539 198.012L58.8135 197.659C58.3349 196.971 57.7955 196.327 57.2018 195.736C54.9821 193.856 52.6777 192.088 50.458 190.222C48.0981 188.209 45.3913 186.642 42.4701 185.599C41.3772 185.139 40.1842 184.969 39.0063 185.104C38.4624 185.164 37.9491 185.387 37.5331 185.742C37.1172 186.098 36.8176 186.57 36.6735 187.098C36.2728 188.313 36.2238 189.617 36.5321 190.858C37.2119 193.017 38.3998 194.98 39.9959 196.584C41.3396 197.961 42.5912 199.425 43.7425 200.967C45.4532 203.484 46.9518 206.156 48.5352 208.771C50.0574 211.265 51.098 214.023 51.6032 216.901C51.8011 217.961 51.9001 219.049 52.1404 220.096C52.7288 222.605 53.6814 225.016 54.968 227.249C56.4949 229.922 58.0501 232.594 59.577 235.28C59.7466 235.563 59.8597 235.859 60.0011 236.156C61.2113 239.069 61.8727 242.179 61.9522 245.332C62.0637 247.252 62.6307 249.118 63.6063 250.775C64.8421 252.586 65.3098 254.812 64.907 256.967C64.5088 259.479 64.4564 262.034 64.7515 264.559C65.1234 268.63 65.9485 272.647 67.2114 276.534C68.4273 280.776 69.6715 284.918 70.9156 289.117C71.011 289.4 71.1292 289.674 71.269 289.937L91.9387 289.301ZM189.844 259.102C189.946 258.873 190.031 258.637 190.098 258.395C190.48 255.172 190.777 251.948 191.244 248.739C191.763 245.596 192.481 242.489 193.392 239.436C194.578 235.334 196.349 231.425 198.652 227.829C200.066 225.652 201.578 223.588 203.077 221.538C203.77 220.757 204.161 219.754 204.18 218.71C204.204 217.721 204.284 216.735 204.42 215.755C204.59 213.649 204.788 211.514 204.915 209.436C205.042 207.654 205.085 205.859 205.184 204.077C205.402 202.068 205.501 200.047 205.48 198.026C205.463 195.259 205.609 192.492 205.919 189.742C206.06 187.211 206.442 184.694 206.583 182.164C206.725 179.633 206.668 177.371 206.753 174.982C206.88 171.645 207.191 168.323 207.177 164.986C207.163 161.649 206.866 158.61 206.597 155.429C206.517 153.463 206.257 151.508 205.82 149.59C205.123 147.103 204.225 144.678 203.134 142.337C202.332 140.693 201.33 139.154 200.15 137.756C198.355 135.579 195.739 134.434 193.308 133.162C190.792 131.821 188.131 130.772 185.376 130.037C182.93 129.387 180.527 128.51 178.053 128.044C175.811 127.443 173.451 127.443 171.21 128.044C170.56 128.256 169.938 128.553 169.796 129.274C169.748 129.631 169.808 129.995 169.97 130.318C170.131 130.641 170.386 130.907 170.701 131.083C171.554 131.66 172.458 132.157 173.401 132.568C175.706 133.487 178.039 134.363 180.4 135.155C183.189 136.156 185.768 137.666 188.006 139.608C188.632 140.102 189.145 140.725 189.509 141.435C189.872 142.145 190.078 142.926 190.112 143.723C190.163 144.08 190.117 144.444 189.978 144.777C189.84 145.11 189.614 145.4 189.324 145.616C189.035 145.831 188.693 145.965 188.334 146.002C187.975 146.04 187.613 145.98 187.285 145.829C186.49 145.543 185.715 145.203 184.966 144.811C183.167 143.905 181.322 143.093 179.438 142.379C177.636 141.853 175.791 141.484 173.925 141.277C172.62 141.119 171.303 141.095 169.994 141.206C169.615 141.223 169.246 141.33 168.916 141.518C168.587 141.706 168.307 141.97 168.1 142.288C167.892 142.606 167.764 142.968 167.724 143.345C167.685 143.723 167.736 144.104 167.874 144.458C168.111 145.298 168.52 146.079 169.075 146.753C169.63 147.427 170.318 147.979 171.097 148.374C172.511 149.152 173.925 149.788 175.338 150.65C177.462 151.797 179.122 153.646 180.032 155.881C180.697 157.634 181.446 159.373 182.195 161.07C182.988 163.133 184.074 165.07 185.419 166.824C185.97 167.446 186.493 168.096 187.03 168.733C187.568 169.369 188.034 169.864 187.539 170.316C187.045 170.768 187.002 171.56 186.931 172.225C186.818 173.299 186.748 174.374 186.649 175.462C186.422 178.12 186.14 180.764 185.956 183.436C185.645 187.677 185.645 192.074 185.009 196.358C184.896 197.571 184.896 198.792 185.009 200.006C185.225 201.964 184.917 203.945 184.118 205.746C183.852 206.348 183.676 206.986 183.595 207.64C183.397 208.898 183.27 210.157 183.128 211.415C183.136 211.719 183.169 212.022 183.227 212.32C183.462 212.153 183.68 211.964 183.878 211.754C185.487 209.751 187.395 208.006 189.533 206.58C190.357 206.033 191.251 205.601 192.191 205.293C192.709 205.055 193.283 204.965 193.849 205.032C194.415 205.099 194.952 205.322 195.4 205.675C195.904 206.103 196.309 206.636 196.585 207.237C196.861 207.838 197.002 208.492 196.998 209.153C196.852 211.986 195.868 214.712 194.17 216.985C192.947 218.648 191.868 220.412 190.947 222.259C189.568 225.677 189.048 229.381 189.434 233.046C189.661 236.338 189.124 239.638 187.865 242.688C186.682 245.098 185.908 247.687 185.574 250.351C185.523 250.899 185.621 251.451 185.857 251.948C186.903 253.956 188.02 255.907 189.123 257.872L189.844 259.102ZM109.724 289.061C109.498 288.438 109.413 288.127 109.272 287.831C108.155 285.343 107.489 282.676 107.307 279.956C106.854 275.799 106.374 271.643 106.02 267.486C105.654 264.201 105.545 260.892 105.695 257.589C105.938 254.875 106.354 252.179 106.939 249.517C107.53 245.667 108.476 241.881 109.767 238.206C109.95 237.593 109.95 236.939 109.767 236.326C109.371 234.827 108.862 233.357 108.353 231.873C107.112 228.03 105.673 224.255 104.041 220.562C102.627 217.48 101.298 214.37 100.082 211.217C99.3182 208.903 98.4165 206.637 97.3818 204.431C96.058 201.679 94.0829 199.291 91.6277 197.475C90.2756 196.542 89.012 195.486 87.8528 194.322C85.0252 191.382 82.1977 188.314 79.3701 185.345C78.2543 184.207 77.0435 183.166 75.7508 182.234C75.4923 182.043 75.1971 181.907 74.8836 181.835C74.5702 181.763 74.2453 181.757 73.9293 181.817C73.6133 181.877 73.3131 182.001 73.0475 182.182C72.7819 182.364 72.5567 182.598 72.3859 182.871C72.0287 183.47 71.7349 184.105 71.5094 184.765C70.9724 186.326 70.8031 187.991 71.0145 189.628C71.209 191.975 71.9446 194.245 73.1635 196.259C74.2804 198.041 75.4963 199.779 76.6839 201.518C77.4473 202.635 78.2532 203.738 79.059 204.827C81.2096 207.681 82.8065 210.913 83.767 214.356C84.3735 216.667 84.729 219.037 84.8273 221.425C84.8309 223.218 85.1614 224.995 85.8028 226.67C86.849 229.13 87.8952 231.59 88.998 234.036C89.5621 235.181 89.8248 236.451 89.7615 237.726C89.6665 239.411 89.3819 241.08 88.9132 242.702C87.6712 246.429 87.7612 250.472 89.1677 254.14C90.0889 256.894 90.835 259.704 91.4014 262.552C91.7704 264.347 91.9505 266.176 91.9387 268.009C91.9387 270.172 92.0518 272.321 92.0942 274.484C92.0942 275.46 92.0942 276.449 92.0942 277.411C92.4759 281.101 92.9142 284.777 93.3384 288.453C93.3647 288.644 93.4073 288.834 93.4656 289.018L109.724 289.061ZM108.438 165.863C107.9 166.258 107.575 166.513 107.236 166.725C106.725 167.063 106.18 167.347 105.61 167.573C105.459 167.583 105.307 167.558 105.167 167.499C105.027 167.44 104.903 167.349 104.804 167.234C104.691 167.107 104.804 166.711 104.931 166.485C105.059 166.286 105.228 166.118 105.426 165.99C106.275 165.396 107.151 164.845 107.985 164.223C108.945 163.563 109.852 162.83 110.7 162.031C111.859 160.872 112.863 159.557 113.98 158.355C115.478 156.659 116.587 154.657 117.231 152.488C117.896 150.537 118.32 148.515 118.886 146.522C119.208 145.242 119.834 144.059 120.709 143.072C122.01 141.658 123.381 140.414 124.64 139.015C125.302 138.285 125.859 137.467 126.294 136.583C126.409 136.39 126.476 136.172 126.49 135.948C126.505 135.724 126.465 135.5 126.375 135.294C126.286 135.088 126.148 134.906 125.974 134.764C125.8 134.622 125.595 134.523 125.375 134.476C124.704 134.262 124.001 134.166 123.297 134.194C121.23 134.395 119.285 135.264 117.755 136.668C115.125 138.746 112.58 140.909 109.979 143.072C109.386 143.598 108.612 143.872 107.821 143.838C107.029 143.804 106.282 143.463 105.737 142.888C105.58 142.72 105.38 142.598 105.158 142.536C104.936 142.473 104.701 142.473 104.479 142.535C103.32 142.719 102.175 142.888 101.001 142.987C98.4704 143.199 95.9397 143.397 93.409 143.553C93.1059 143.534 92.8048 143.613 92.5501 143.779C92.2955 143.944 92.101 144.187 91.9953 144.472C90.7424 146.894 89.7154 149.426 88.9273 152.036C88.178 154.991 87.1601 157.917 86.6794 160.914C85.8452 166.061 85.2656 171.263 84.7142 176.466C84.3325 179.633 84.0214 182.814 83.6963 185.995C83.6031 186.312 83.5839 186.647 83.6403 186.973C83.6967 187.299 83.8271 187.608 84.0215 187.875C86.0008 189.939 87.9518 192.032 89.9877 194.025C91.769 195.764 93.9463 197.023 95.6428 198.903C97.7073 201.232 99.327 203.921 100.421 206.834C101.666 210.072 102.797 213.352 103.984 216.618C104.183 217.024 104.409 217.416 104.663 217.791C104.762 217.042 104.847 216.646 104.861 216.236C104.946 214.539 104.988 212.857 105.087 211.175C105.214 208.686 105.426 206.212 105.511 203.724C105.652 199.355 105.737 194.987 105.836 190.618C105.836 189.204 105.836 187.791 105.964 186.377C106.077 184.609 106.246 182.842 106.402 181.075C106.628 178.587 106.755 176.098 107.095 173.638C107.434 171.178 107.915 168.676 108.424 165.863H108.438ZM220.368 288.113C221.004 288.113 221.47 288.113 221.937 288.113C226.716 287.901 231.508 287.661 236.301 287.463C236.632 287.491 236.962 287.401 237.234 287.21C237.505 287.018 237.7 286.738 237.786 286.417C238.139 285.356 238.535 284.31 238.832 283.236C239.396 281.291 239.611 279.261 239.468 277.241C239.228 274.103 239.044 270.964 238.973 267.825C238.836 261.597 241.163 255.566 245.448 251.044C246.379 250.113 247.213 249.089 247.937 247.99C249.395 245.61 249.952 242.786 249.506 240.03C249.16 238.329 248.688 236.656 248.092 235.025C247.143 232.352 246.895 229.48 247.371 226.684C247.71 224.705 248.332 222.768 248.785 220.803C249.096 219.53 249.421 218.244 249.605 216.943C249.709 216.623 249.728 216.281 249.66 215.951C249.592 215.621 249.439 215.315 249.216 215.062C248.994 214.81 248.709 214.619 248.39 214.51C248.072 214.401 247.73 214.377 247.399 214.441C246.605 214.448 245.816 214.586 245.067 214.85C242.056 216.108 239.375 218.043 237.234 220.506C235.82 222.047 234.506 223.701 233.219 225.369C231.805 227.264 230.391 229.186 228.978 231.166C228.666 231.737 228.51 232.381 228.525 233.032C228.525 234.446 228.667 235.944 228.525 237.386C228.481 239.406 228.249 241.418 227.832 243.395C227.1 246.098 226.199 248.751 225.132 251.34C224.167 253.566 223.41 255.875 222.87 258.24C222.301 260.948 222.068 263.717 222.177 266.482C222.333 269.197 222.46 271.925 222.503 274.654C222.588 277.144 222.316 279.634 221.697 282.048C221.244 283.971 220.862 285.95 220.354 288.113H220.368ZM69.629 289.796C69.0352 287.505 68.5687 285.441 67.9749 283.419C67.1973 280.86 66.2359 278.358 65.5149 275.771C64.2586 271.926 63.5077 267.934 63.2811 263.895C63.2644 263.117 63.034 262.359 62.6151 261.703C62.1961 261.047 61.6049 260.519 60.9059 260.177C57.6216 258.107 55.1541 254.965 53.9218 251.284C53.4618 249.881 52.5398 248.675 51.3063 247.863C50.1211 247.192 48.8877 246.611 47.6163 246.124C46.0767 245.675 44.637 244.936 43.3749 243.946C41.8349 242.634 40.4155 241.186 39.1335 239.62C36.7583 236.411 34.567 233.088 32.418 229.724C31.8136 228.713 30.949 227.884 29.9144 227.321C28.8798 226.759 27.7133 226.486 26.5366 226.528C25.9375 226.505 25.3535 226.72 24.9114 227.125C24.4694 227.53 24.2049 228.093 24.1756 228.692C24.1692 229.996 24.3211 231.297 24.628 232.565C25.6459 236.326 27.9928 239.394 30.2832 242.462C33.3241 246.434 35.9665 250.696 38.1721 255.186C39.5212 258.144 40.4721 261.267 40.9997 264.475C41.3614 267.315 42.0007 270.114 42.9083 272.83C44.1666 276.056 45.8498 279.098 47.9132 281.878C49.8128 284.511 52.0198 286.908 54.4873 289.018C54.8978 289.396 55.3789 289.689 55.9029 289.881C56.427 290.072 56.9836 290.159 57.5411 290.135C60.3687 290.05 63.0832 290.135 65.8401 289.994C66.9711 289.965 68.187 289.965 69.6149 289.796H69.629ZM154.966 215.586L150.979 206.552C149.205 207.669 147.165 208.294 145.069 208.361C144.419 208.361 143.655 208.22 143.189 208.559C142.722 208.898 142.793 209.747 142.623 210.369C141.874 213.041 141.082 215.699 140.389 218.385C139.47 221.919 138.566 225.454 137.76 229.045C137.166 231.745 136.671 234.46 136.219 237.174C135.809 239.634 135.54 242.108 135.187 244.583C135.059 245.473 134.918 246.378 134.777 247.283C135.092 247.221 135.372 247.039 135.554 246.774C136.388 245.699 137.166 244.568 138.057 243.551C140.524 240.778 142.76 237.809 144.744 234.672C145.397 233.702 145.951 232.67 146.398 231.59C147.26 229.314 147.953 226.981 148.759 224.676C149.06 223.737 149.448 222.829 149.918 221.962C151.208 219.553 152.917 217.394 154.966 215.586ZM172.808 229.37C173.543 228.606 173.98 227.602 174.038 226.543C174.49 223.856 174.872 221.17 175.254 218.484C175.588 216.548 176.325 214.703 177.417 213.069C178.321 211.655 179.537 210.341 180.428 208.828C181.605 207.252 182.556 205.52 183.256 203.682C183.678 201.992 183.584 200.214 182.987 198.578C182.862 198.27 182.657 198.001 182.393 197.8C181.772 197.277 181.05 196.887 180.272 196.655C179.495 196.423 178.677 196.353 177.871 196.45C177.065 196.546 176.288 196.808 175.587 197.218C174.886 197.628 174.277 198.177 173.797 198.832C172.652 200.373 171.578 201.957 170.362 203.469C169.061 205.129 167.523 206.587 165.795 207.796C164.961 208.375 164.947 208.361 165.442 209.365C165.937 210.369 166.573 211.528 167.039 212.659C168.849 217.084 170.348 221.623 171.733 226.217C172.087 227.264 172.468 228.239 172.864 229.37H172.808ZM123.042 76.7653L124.131 76.6098C125.938 76.2372 127.581 75.3018 128.825 73.9377C131.03 71.9584 133.137 69.8943 135.257 67.816C135.739 67.3045 136.161 66.7401 136.516 66.1336C136.811 65.7125 136.955 65.2037 136.924 64.6902C136.893 64.1767 136.69 63.6888 136.346 63.306C135.69 62.4478 134.787 61.8106 133.759 61.4796C132.73 61.1486 131.625 61.1397 130.592 61.454C126.246 63.0728 122.411 65.8203 119.479 69.4136C118.964 70.0574 118.596 70.806 118.401 71.6071C118.205 72.4081 118.187 73.2422 118.348 74.0509C118.418 74.6161 118.665 75.1447 119.054 75.5611C119.442 75.9775 119.952 76.2605 120.511 76.3695C121.331 76.4826 122.18 76.6381 123.042 76.7653ZM94.6249 139.736C95.3318 139.736 95.9256 139.736 96.5194 139.736C99.4177 139.467 102.302 139.142 105.2 138.944C105.619 138.924 106.026 138.801 106.385 138.586C106.745 138.372 107.047 138.072 107.264 137.714C108.169 136.526 109.046 135.296 109.993 134.151C111.673 132.172 113.761 130.581 116.115 129.486C117.896 128.637 119.72 127.874 121.501 127.012C122.055 126.777 122.541 126.408 122.915 125.937C123.678 124.806 123.184 123.901 121.826 123.816C121.168 123.774 120.508 123.816 119.861 123.944C114.609 125.254 109.575 127.321 104.917 130.079C101.87 131.831 99.0929 134.017 96.6749 136.569C95.7821 137.473 95.0844 138.551 94.6249 139.736ZM112.297 70.0074C112.835 69.866 113.372 69.7388 113.895 69.555C117.026 68.3472 119.903 66.5633 122.378 64.2957C123.387 63.3821 124.332 62.3995 125.205 61.355C125.514 61.0556 125.727 60.6717 125.817 60.2515C125.908 59.8314 125.872 59.3938 125.714 58.994C125.496 58.3951 125.154 57.8489 124.711 57.3909C124.267 56.933 123.733 56.5735 123.141 56.336C122.309 56.0749 121.434 55.9805 120.565 56.0581C119.697 56.1358 118.852 56.3839 118.08 56.7884C115.665 57.854 113.455 59.3323 111.548 61.1571C110.513 62.1768 109.627 63.3383 108.918 64.6067C107.731 66.586 109.724 70.2902 112.297 70.0074ZM143.669 67.1798C143.244 67.1794 142.819 67.2078 142.397 67.2647C141.989 67.3699 141.592 67.5119 141.209 67.6888C137.818 69.0107 134.782 71.107 132.345 73.8105C131.681 74.5422 131.197 75.4183 130.931 76.3695C130.811 76.7714 130.778 77.1943 130.835 77.6099C130.892 78.0254 131.037 78.424 131.261 78.7788C131.485 79.1337 131.782 79.4366 132.132 79.6672C132.482 79.8979 132.878 80.0509 133.292 80.116C135.748 80.4508 138.24 79.8392 140.262 78.4053C142.935 76.7351 145.394 74.7459 147.586 72.4815C147.963 72.1603 148.215 71.7154 148.295 71.226C148.375 70.7366 148.279 70.2346 148.024 69.8095C147.689 68.9462 147.08 68.2164 146.292 67.7313C145.503 67.2463 144.577 67.0327 143.655 67.1233L143.669 67.1798ZM38.1439 86.9729C38.7659 87.086 39.3173 87.2415 39.8687 87.284C43.6225 87.6397 47.4085 87.1568 50.9528 85.8702C52.5295 85.3702 53.9773 84.5304 55.1942 83.4102C55.4601 83.2104 55.6742 82.9497 55.8185 82.65C55.9627 82.3504 56.033 82.0204 56.0233 81.688C56.0136 81.3555 55.9242 81.0303 55.7627 80.7395C55.6012 80.4488 55.3723 80.201 55.0952 80.0171C54.5476 79.5722 53.9114 79.2493 53.229 79.0698C51.6831 78.6853 50.1158 78.3926 48.5352 78.1933C47.6021 78.066 46.6549 78.6033 45.7077 78.4336C45.5946 78.4336 45.4249 78.5184 45.3259 78.6033C45.0883 78.8313 44.8018 79.002 44.4882 79.1025C44.1745 79.2029 43.8421 79.2304 43.5163 79.1829C43.1911 79.1862 42.8731 79.2791 42.5973 79.4515C41.2053 80.1072 40.0391 81.1611 39.2464 82.4799C38.4536 83.7986 38.0699 85.3229 38.1439 86.8598V86.9729ZM245.349 89.5884C247.645 89.6187 249.923 89.191 252.051 88.3302C252.956 87.9626 253.168 87.496 252.814 86.5771C252.198 84.8178 251.019 83.3106 249.46 82.2884C247.901 81.2662 246.049 80.786 244.19 80.9219C242.454 80.944 240.728 81.196 239.058 81.6712C237.942 82.0123 236.905 82.5695 236.004 83.3112C235.114 83.9898 235.128 84.725 235.75 85.6864C236.492 86.7843 237.553 87.6281 238.789 88.104C240.874 88.9593 243.097 89.4241 245.349 89.4753V89.5884ZM145.974 84.3433V84.1877C146.396 84.1981 146.817 84.1649 147.232 84.0888C149.113 83.6692 150.886 82.8615 152.437 81.7172C153.987 80.573 155.282 79.1175 156.238 77.444C156.498 77.1047 156.668 76.7051 156.732 76.2825C156.795 75.8598 156.751 75.4279 156.603 75.027C156.455 74.6261 156.207 74.2693 155.884 73.9898C155.561 73.7103 155.172 73.5173 154.754 73.4288C154.121 73.2703 153.466 73.2225 152.817 73.2874C151.087 73.501 149.431 74.1158 147.981 75.0829C146.269 76.0619 144.742 77.3349 143.471 78.8436C142.915 79.5921 142.498 80.4351 142.241 81.3319C142.156 81.5558 142.119 81.7952 142.132 82.0345C142.145 82.2738 142.208 82.5076 142.318 82.7209C142.427 82.9342 142.58 83.1221 142.767 83.2725C142.953 83.4229 143.169 83.5324 143.401 83.594C144.249 83.806 145.069 83.9757 145.974 84.2302V84.3433ZM254.836 54.6536C253.945 53.4236 253.903 53.5367 251.853 52.9429C249.809 52.3702 247.647 52.3702 245.604 52.9429C243.386 53.2815 241.342 54.3455 239.793 55.9684C239.53 56.211 239.327 56.511 239.2 56.8451C239.072 57.1791 239.024 57.5381 239.058 57.8941C239.092 58.25 239.208 58.5932 239.397 58.8968C239.586 59.2004 239.842 59.4563 240.147 59.6443C241.198 60.5407 242.514 61.0673 243.893 61.1429C245.013 61.3213 246.157 61.269 247.256 60.9895C248.355 60.7099 249.385 60.2089 250.284 59.5171C250.382 59.4181 250.524 59.2909 250.637 59.305C252.15 59.4464 252.744 58.2588 253.465 57.2833C253.98 56.3943 254.438 55.4735 254.836 54.5264V54.6536ZM14.689 183.719C15.3394 183.592 15.8908 183.464 16.4421 183.394C19.2398 183.012 21.8979 181.938 24.1756 180.269C25.6479 179.346 26.7565 177.942 27.3142 176.296C26.6049 176.527 25.8762 176.692 25.137 176.791C23.2425 176.876 21.6449 176.508 21.5035 173.582C21.4761 173.268 21.4289 172.957 21.3621 172.649C19.2645 173.607 17.5051 175.177 16.3145 177.152C15.1238 179.128 14.5572 181.416 14.689 183.719ZM236.23 112.223C236.17 112.073 236.084 111.934 235.976 111.813C233.322 109.479 230.026 108.001 226.518 107.572C225.359 107.441 224.185 107.547 223.068 107.883C222.752 107.949 222.459 108.099 222.22 108.317C221.981 108.534 221.805 108.812 221.71 109.121C221.615 109.43 221.604 109.758 221.679 110.073C221.753 110.387 221.911 110.676 222.135 110.908C222.951 112.19 224.234 113.103 225.712 113.453C227.247 113.884 228.857 113.985 230.434 113.75C231.607 113.51 232.837 113.566 234.011 113.326C234.788 113.241 235.75 113.241 236.23 112.223ZM135.724 202.211C136.77 203.074 137.774 203.894 138.764 204.742C141.732 207.315 145.097 207.456 148.66 206.41C149.235 206.211 149.789 205.955 150.314 205.647C150.536 205.568 150.726 205.419 150.856 205.223C150.986 205.026 151.049 204.793 151.035 204.558C151.035 203.667 151.035 202.777 151.035 201.73L148.872 200.317C148.448 201.434 148.151 202.409 147.713 203.328C147.549 203.779 147.219 204.15 146.791 204.365C146.362 204.581 145.868 204.624 145.408 204.487C144.899 204.374 144.376 204.36 143.867 204.261C143.112 204.17 142.417 203.801 141.918 203.227C141.418 202.652 141.151 201.912 141.167 201.151C141.167 200.656 141.167 200.161 141.167 199.327C139.315 200.684 137.166 200.486 135.724 202.211ZM270.317 165.552C270.317 168.379 269.214 170.387 266.076 170.259C267.489 173.723 272.409 175.293 276.552 173.483C276.552 170.472 273.229 165.877 270.317 165.552ZM17.1066 203.922C14.9577 204.94 13.5156 208.163 13.8832 211.217C16.0772 211.263 18.2423 210.711 20.1463 209.619C20.7356 209.198 21.224 208.651 21.5761 208.018C21.9282 207.384 22.1352 206.681 22.1821 205.958C19.2415 207.386 18.0821 206.919 17.1066 203.95V203.922ZM68.7242 107.586C68.4874 107.25 68.1743 106.975 67.8106 106.783C67.4469 106.591 67.0429 106.489 66.6318 106.483C63.6676 106.137 60.6656 106.626 57.9652 107.897C57.7504 108.079 57.4995 108.213 57.2291 108.291C56.9586 108.369 56.6746 108.389 56.3959 108.349C55.9435 108.251 55.7032 108.477 55.6183 108.915C57.6259 111.064 66.3632 110.286 68.7242 107.586ZM247.428 168.464C249.167 170.966 253.196 171.588 256.292 169.878C255.189 166.456 253.012 164.223 250.708 164.307C251.104 167.093 249.803 168.733 247.428 168.492V168.464ZM181.248 210.496C178.064 213.972 176.285 218.507 176.257 223.22C176.524 223.034 176.742 222.787 176.894 222.499C177.606 221.078 178.423 219.712 179.339 218.413C180.965 216.406 181.149 214.059 181.319 211.669C181.333 211.415 181.276 211.062 181.248 210.524V210.496ZM177.586 136.088C177.732 136.565 177.981 137.003 178.316 137.372C178.651 137.741 179.063 138.032 179.523 138.223L182.068 139.382L184.995 140.725C184.995 139.637 184.995 139.312 184.245 138.944C182.577 138.11 180.88 137.332 179.184 136.569C178.663 136.372 178.129 136.211 177.586 136.088ZM50.6559 56.1098C48.8022 55.2185 46.7168 54.927 44.6897 55.2757C46.5435 56.167 48.6288 56.4585 50.6559 56.1098ZM188.275 144.118C188.407 143.455 188.289 142.767 187.945 142.185C187.601 141.603 187.053 141.169 186.408 140.966C186.408 141.432 186.408 141.842 186.408 142.252C186.564 143.708 186.564 143.708 188.275 144.118ZM174.024 152.092C172.228 150.565 171.705 150.466 170.192 151.399C171.369 152.016 172.706 152.258 174.024 152.092ZM28.4028 173.045H28.7139L29.0815 170.811L27.6677 171.009L28.4028 173.045ZM273.597 182.008C272.183 182.121 272.183 182.121 272.607 183.266L273.597 182.008ZM245.646 165.043L245.971 165.127L246.254 164.293C245.929 164.293 245.759 164.421 245.689 164.562C245.649 164.728 245.635 164.9 245.646 165.071V165.043ZM22.1539 202.409L22.4508 202.183C22.3235 202.013 22.1821 201.829 22.0408 201.674C21.8994 201.518 21.8994 201.674 21.8146 201.787L22.1539 202.409ZM267.263 167.997L267.475 168.209L268.041 167.602L267.829 167.404L267.263 167.997ZM180.06 140.471V140.626L180.612 140.824V140.655L180.06 140.471Z" fill="#141414"/>
<path d="M26.4514 260.785C26.0209 260.761 25.5943 260.69 25.179 260.573C23.9208 260.022 22.6908 259.442 21.4749 258.834C18.2649 257.222 14.96 255.805 11.5783 254.593C11.0659 254.437 10.5866 254.188 10.1646 253.858C9.95248 253.66 9.95248 253.222 9.85352 252.896C10.1504 252.826 10.4897 252.642 10.7301 252.727C12.7801 253.405 14.8725 254.027 16.8518 254.876C19.3118 255.936 21.687 257.18 24.0621 258.382C25.0546 258.774 25.8999 259.466 26.4797 260.361L26.4514 260.785Z" fill="#141414"/>
<path d="M268.522 244.471C268.426 244.38 268.35 244.27 268.298 244.148C268.246 244.027 268.219 243.896 268.219 243.764C268.219 243.632 268.246 243.501 268.298 243.379C268.35 243.258 268.426 243.148 268.522 243.057C269.413 242.118 270.357 241.231 271.35 240.399C273.315 238.9 275.365 237.571 277.372 236.059C277.952 235.663 278.503 235.224 279.111 234.857C279.931 234.376 279.945 234.404 280.737 235.451C279.649 236.285 278.56 237.161 277.429 237.953C276.298 238.745 275.054 239.48 273.923 240.3C272.139 241.326 270.523 242.618 269.13 244.131C269.102 244.287 268.791 244.343 268.522 244.471Z" fill="#141414"/>
<path d="M277.187 245.445C276.976 245.675 276.739 245.879 276.48 246.053C274.854 246.873 273.214 247.664 271.574 248.456L268.195 250.082C267.771 250.28 267.347 250.365 267.078 249.884C266.81 249.403 267.078 249.064 267.503 248.852C269.157 247.961 270.811 247.085 272.479 246.222C273.271 245.812 274.077 245.445 274.897 245.077C275.357 244.875 275.829 244.7 276.31 244.554C276.918 244.398 277.102 244.724 277.187 245.445Z" fill="#141414"/>
<path d="M25.3211 253.858C25.1087 254.058 24.828 254.169 24.5364 254.169C24.2448 254.169 23.9642 254.058 23.7517 253.858C22.5642 252.953 21.3766 252.048 20.2314 251.03C19.5827 250.49 18.9732 249.904 18.4076 249.277C18.0834 248.942 17.8245 248.548 17.6442 248.118C17.5452 247.878 17.6442 247.538 17.7573 247.241C18.01 247.27 18.2548 247.346 18.4783 247.468C19.4255 248.231 20.3445 249.037 21.3059 249.843C22.4935 250.903 23.6669 251.978 24.8262 253.052C25.0103 253.309 25.1757 253.578 25.3211 253.858V253.858Z" fill="#141414"/>
<path d="M91.9396 289.301L71.2982 289.909C71.1584 289.646 71.0402 289.371 70.9448 289.089C69.7007 284.848 68.4565 280.705 67.2406 276.506C65.9777 272.618 65.1526 268.602 64.7807 264.531C64.4856 262.005 64.538 259.451 64.9362 256.939C65.339 254.784 64.8712 252.558 63.6355 250.747C62.6599 249.089 62.0929 247.224 61.9813 245.304C61.9019 242.151 61.2405 239.04 60.0303 236.128C59.8889 235.831 59.7758 235.534 59.6062 235.252C58.0793 232.565 56.5241 229.893 54.9972 227.221C53.7106 224.988 52.7579 222.577 52.1696 220.068C51.9293 219.021 51.8303 217.933 51.6324 216.872C51.1272 213.995 50.0866 211.237 48.5644 208.743C46.981 206.128 45.4824 203.455 43.7717 200.939C42.6204 199.397 41.3688 197.933 40.0251 196.556C38.4289 194.952 37.2411 192.989 36.5613 190.83C36.253 189.588 36.302 188.285 36.7027 187.07C36.8468 186.542 37.1463 186.069 37.5623 185.714C37.9783 185.358 38.4916 185.136 39.0355 185.076C40.2134 184.941 41.4064 185.111 42.4993 185.571C45.4205 186.614 48.1273 188.181 50.4872 190.194C52.7069 192.06 55.0113 193.828 57.231 195.708C57.8247 196.299 58.3641 196.943 58.8427 197.631L59.083 197.984C62.0237 201.759 65.0634 205.463 67.8768 209.294C69.8279 211.995 71.4962 214.95 73.2068 217.777C74.0834 219.191 74.7338 220.803 75.5396 222.287C76.2182 223.531 76.9534 224.691 77.6603 225.949C78.7631 228.126 79.6113 230.459 80.912 232.509C82.2724 234.872 83.3631 237.381 84.1637 239.988C84.701 241.501 85.0403 243.084 85.6765 244.526C86.2858 246.025 86.5933 247.63 86.5813 249.248C86.7438 252.074 87.3993 254.849 88.5182 257.448C89.061 258.854 89.4498 260.314 89.6776 261.803C90.288 265.516 90.5248 269.282 90.3844 273.042C90.2642 275.86 90.4634 278.682 90.9782 281.454C91.3317 283.25 91.4306 285.088 91.6569 286.912C91.7134 287.647 91.8124 288.382 91.9396 289.301Z" fill="white"/>
<path d="M220.354 288.114C220.862 285.951 221.244 283.972 221.767 282.035C222.387 279.621 222.658 277.131 222.573 274.641C222.573 271.912 222.404 269.183 222.248 266.469C222.139 263.703 222.371 260.935 222.941 258.226C223.481 255.862 224.238 253.552 225.203 251.327C226.269 248.738 227.171 246.084 227.903 243.382C228.32 241.404 228.552 239.393 228.596 237.373C228.681 235.959 228.511 234.475 228.596 233.018C228.581 232.367 228.737 231.724 229.048 231.152C230.377 229.173 231.777 227.25 233.29 225.356C234.576 223.687 235.891 222.033 237.305 220.492C239.446 218.03 242.126 216.094 245.137 214.837C245.887 214.573 246.675 214.434 247.47 214.427C247.801 214.364 248.142 214.388 248.461 214.497C248.78 214.606 249.064 214.796 249.287 215.049C249.51 215.301 249.663 215.608 249.731 215.938C249.799 216.267 249.78 216.609 249.676 216.929C249.492 218.23 249.167 219.517 248.856 220.789C248.389 222.754 247.767 224.691 247.442 226.671C246.965 229.467 247.214 232.339 248.163 235.012C248.758 236.643 249.231 238.315 249.577 240.017C250.023 242.772 249.466 245.596 248.007 247.976C247.283 249.076 246.45 250.099 245.519 251.03C241.239 255.554 238.917 261.585 239.058 267.812C239.058 270.951 239.312 274.089 239.553 277.228C239.696 279.248 239.481 281.277 238.917 283.222C238.62 284.297 238.224 285.343 237.87 286.403C237.785 286.724 237.59 287.005 237.318 287.196C237.047 287.388 236.717 287.477 236.386 287.449C231.593 287.647 226.8 287.888 222.022 288.1C221.414 288.142 220.99 288.114 220.354 288.114Z" fill="white"/>
<path d="M14.6883 183.719C14.5507 181.412 15.1144 179.117 16.3054 177.136C17.4965 175.156 19.259 173.581 21.3614 172.621C21.4282 172.929 21.4754 173.24 21.5028 173.554C21.6442 176.481 23.2417 176.848 25.1362 176.763C25.8754 176.665 26.6041 176.499 27.3135 176.269C26.7557 177.915 25.6471 179.318 24.1748 180.241C21.8972 181.91 19.2391 182.984 16.4414 183.366C15.89 183.465 15.3386 183.592 14.6883 183.719Z" fill="white"/>
<path d="M135.723 202.212C137.136 200.487 139.314 200.685 141.152 199.385C141.152 200.219 141.152 200.713 141.152 201.208C141.136 201.969 141.403 202.709 141.902 203.284C142.401 203.859 143.096 204.228 143.852 204.319C144.361 204.418 144.884 204.432 145.393 204.545C145.853 204.682 146.347 204.638 146.775 204.423C147.204 204.207 147.534 203.836 147.697 203.386C148.136 202.467 148.433 201.491 148.857 200.374L151.02 201.788C151.02 202.778 151.02 203.668 151.02 204.616C151.034 204.851 150.971 205.084 150.841 205.28C150.711 205.476 150.521 205.625 150.299 205.704C149.774 206.013 149.22 206.268 148.645 206.468C145.082 207.514 141.717 207.372 138.748 204.799C137.773 203.895 136.769 203.075 135.723 202.212Z" fill="white"/>
<path d="M270.318 165.552C273.23 165.848 276.552 170.443 276.552 173.483C272.41 175.293 267.419 173.723 266.076 170.259C269.215 170.415 270.374 168.379 270.318 165.552Z" fill="white"/>
<path d="M17.1065 203.951C18.0821 206.92 19.199 207.386 22.1821 205.987C22.1351 206.71 21.9281 207.413 21.576 208.046C21.2239 208.68 20.7355 209.227 20.1462 209.648C18.2422 210.739 16.0771 211.292 13.8831 211.246C13.5862 208.234 15 204.969 17.1065 203.951Z" fill="white"/>
<path d="M247.428 168.492C249.803 168.732 251.061 167.078 250.708 164.378C253.012 164.378 255.189 166.527 256.292 169.948C253.196 171.616 249.167 170.994 247.428 168.492Z" fill="white"/>
<path d="M28.4021 173.045L27.6387 171.023L29.0525 170.825L28.6849 173.059L28.4021 173.045Z" fill="white"/>
<path d="M273.596 182.008L272.606 183.267C272.14 182.121 272.14 182.121 273.596 182.008Z" fill="white"/>
<path d="M245.646 165.07C245.623 164.911 245.623 164.749 245.646 164.59C245.717 164.448 245.886 164.349 246.212 164.321L245.929 165.155L245.646 165.07Z" fill="white"/>
<path d="M22.1538 202.41L21.8145 201.788C21.8993 201.788 22.0265 201.661 22.0407 201.675C22.0548 201.689 22.3234 202.014 22.4507 202.184L22.1538 202.41Z" fill="white"/>
<path d="M267.264 167.998L267.829 167.404L268.041 167.602L267.476 168.21L267.264 167.998Z" fill="white"/>
</svg>
