<svg width="300" height="300" fill="none" xmlns="http://www.w3.org/2000/svg"><path d="M90.44 143.708c-.65 0-1.046-.113-1.414-.113-3.251 0-6.475-.254-9.712-.565a70.57 70.57 0 01-11.791-2.078 43.836 43.836 0 01-11.424-4.412 20.838 20.838 0 01-9.826-12.398 16.967 16.967 0 011.414-12.442 8.27 8.27 0 00.41-.891v-.325c-1.089-.834-2.276-1.611-3.294-2.559a29.215 29.215 0 01-5.81-7.761c-.764-1.414-1.598-2.828-2.235-4.242a30.225 30.225 0 01-1.413-4.142 2.39 2.39 0 00-1.782-1.88 17.05 17.05 0 01-11.579-10.887 20.543 20.543 0 01-.367-11.31 17.517 17.517 0 015.655-9.699 24.98 24.98 0 015.556-4.071c.82-.396.806-.552.353-1.414a20.999 20.999 0 01-1.314-2.828 14.888 14.888 0 013.732-16.089 29.35 29.35 0 0115.65-7.832 82.747 82.747 0 0111.65-1.16c1.556 0 3.097-.183 4.652-.226a1.075 1.075 0 001.16-.99c.155-.833.353-1.653.48-2.488.424-2.827.834-5.584 1.258-8.37a16.967 16.967 0 011.98-5.57 3.365 3.365 0 013.364-1.71c1.725.141 3.464.297 5.189.495 3.054.339 6.08.763 9.119 1.032 2.431.212 4.877.24 7.323.353h.566c3.619.07 7.238.283 10.844.17a69.582 69.582 0 008.553-.877c4.835-.75 9.628-1.682 14.435-2.516a21.205 21.205 0 018.85.141 16.867 16.867 0 018.893 4.567 2.33 2.33 0 001.993.777h13.262c3.336 0 6.673.1 10.009.1 4.242 0 8.625-.1 12.951-.072 2.389 0 4.792.255 7.182.311 2.686.085 5.372 0 8.044.128 5.26.226 10.547-.326 15.792.339 1.838.226 3.704.636 4.708 2.432a10.14 10.14 0 011.089 3.167c.452 2.827.735 5.782 1.103 8.68.113.877.297 1.74.48 2.729h2.163a49.731 49.731 0 018.582.396c2.88.3 5.722.892 8.483 1.767a20.204 20.204 0 0112.243 9.798 16.397 16.397 0 011.937 10.773c0 .325 0 .664-.141.99a1.313 1.313 0 00.594 1.569 20.733 20.733 0 015.429 5.655 22.07 22.07 0 012.954 7.28 23.055 23.055 0 01-1.993 14.139 20.33 20.33 0 01-8.257 9.585 1.869 1.869 0 00-1.088 1.909 23.699 23.699 0 01-3.648 12.724 26.963 26.963 0 01-3.76 5.429 24.431 24.431 0 01-6.787 4.991c-1.201.622-1.173.608-.933 1.908a20.655 20.655 0 01-1.244 11.749 47.67 47.67 0 01-5.91 10.391 28.054 28.054 0 01-8.482 7.607 75.266 75.266 0 01-13.248 5.952c-1.328.466-2.728.735-4.085 1.116a9.82 9.82 0 00-1.061.425c.142 1.145.255 2.205.396 3.265a71.86 71.86 0 01.297 11.961c-.127 3.704-.127 7.437-.297 11.141-.17 3.944-.509 7.889-.749 11.833-.226 3.605-.41 7.225-.636 10.83-.269 4.453-.552 8.921-.82 13.374.006.271.034.54.084.806.281-.307.541-.633.778-.975 1.513-2.531 3.068-5.033 4.482-7.621 1.046-1.936 1.923-3.958 2.827-5.966 2.178-4.948 4.242-9.896 6.49-14.845a40.55 40.55 0 015.429-8.864 19.462 19.462 0 015.513-4.51c3.422-1.937 6.447.17 7.451 3.393a11.96 11.96 0 01-.509 8.299c-2.446 5.896-5.16 11.692-7.677 17.559-.89 2.107-1.583 4.312-2.304 6.49a37.685 37.685 0 00-1.584 8.002 16.355 16.355 0 00-.141 3.096c.226 2.573.551 5.132.834 7.691l.325.113c.484-.649.91-1.34 1.273-2.064a113.427 113.427 0 017.889-15.241 296.636 296.636 0 015.047-8.483c1.498-2.375 3.11-4.693 4.722-6.998a4.482 4.482 0 00.792-2.827 730.863 730.863 0 01-.198-9.148v-9.896c.011-.654.073-1.307.183-1.951a1.54 1.54 0 00-.678-1.697 9.31 9.31 0 01-3.11-5.655c-.198-.806.311-1.414 1.314-1.697a10.384 10.384 0 018.271.934 7.56 7.56 0 013.322 4.071l.382 1.216c.424 1.273.297 1.598-.891 2.262a9.049 9.049 0 01-6.051.75c-.385-.065-.768-.15-1.145-.255-.268 6.885-.141 13.657-.198 20.769.382-.396.538-.523.665-.679 1.852-2.417 3.647-4.877 5.556-7.253a613.248 613.248 0 016.984-8.482c.75-.891 1.64-1.669 2.46-2.503.325-.353.622-.749.947-1.131a13.687 13.687 0 01-3.039-7.309 1.411 1.411 0 01.679-1.531 1.41 1.41 0 01.565-.18 17.378 17.378 0 016.73.297 9.324 9.324 0 015.923 5.033 15.222 15.222 0 011.414 4.425.977.977 0 01-.551 1.145 9.105 9.105 0 01-5.867.962 9.25 9.25 0 01-4.751-1.838 188.28 188.28 0 00-22.437 29.534c9.176-5.146 18.676-9.614 28.205-14.138a3.712 3.712 0 00-.212-.707 14.931 14.931 0 01-1.583-5.358 2.109 2.109 0 012.418-2.517c1.343.156 2.7.283 4.043.467a8.966 8.966 0 016.32 3.831c.47.771.886 1.574 1.244 2.404 1.626-.396 2.912-1.683 4.722-1.697a1.327 1.327 0 01-.891 1.315c-.834.452-1.668.891-2.46 1.414-.452.268-1.06.495-.919 1.414l3.662-.509c1.202-.184 2.361-.919 3.831-.241-.367.354-.551.637-.806.735a9.598 9.598 0 01-1.753.538c-1.555.297-3.124.551-4.736.834l-.509 2.502c-.834 0-1.131-.24-1.159-.961a26.166 26.166 0 00-.283-3.492c-.41-2.432-2.177-5.316-4.906-5.882a4.457 4.457 0 01-1.074 3.464 3.343 3.343 0 01-3.436 1.287c-.155 1.117.707 1.597 1.287 2.036a11.416 11.416 0 006.319 2.502c.58 0 1.245-.155 1.669.41 0 .622-.453.792-.849.834a7.305 7.305 0 01-2.219 0 11.795 11.795 0 01-5.655-2.474c-.34-.311-.721-.594-1.032-.848-1.909.89-3.747 1.682-5.543 2.587-3.308 1.654-6.574 3.393-9.896 5.047-2.191 1.089-4.454 2.008-6.617 3.139-2.163 1.131-4.142 2.375-6.206 3.577a7.055 7.055 0 01-1.089.636 5.808 5.808 0 00-3.082 2.828c-2.63 4.566-5.231 9.133-7.846 13.699-.23.382-.361.814-.382 1.259l1.993-2.362a26.378 26.378 0 018.865-6.97 8.926 8.926 0 012.94-.933 4.105 4.105 0 013.632 1.333 4.117 4.117 0 01.921 3.757c-.509 2.488-1.287 4.92-1.852 7.38a16.275 16.275 0 00.509 10.109c.141.339.141.735.254 1.088.153.373.328.736.523 1.089.863-.82 1.612-1.598 2.432-2.29.82-.693 2.107-1.711 3.153-2.559.41-.326.806-.665 1.173-1.018a10.703 10.703 0 016.391-3.224 6.884 6.884 0 012.643-.155 2.555 2.555 0 011.937 1.64 6.827 6.827 0 01-.565 5.655 33.47 33.47 0 01-6.249 8.85 22.616 22.616 0 00-5.556 11.212 21.017 21.017 0 000 4.623c0 1.781.183 3.548.268 5.33 0 .791.085 1.583 0 2.361a16.748 16.748 0 01-2.827 8.709 33.589 33.589 0 00-2.234 4.001 13.155 13.155 0 00-.693 2.714c-.226 1.089-.424 2.192-.636 3.351.193.011.387.011.58 0 1.823 0 3.647-.113 5.471-.141 5.302-.099 10.618-.17 15.933-.283 2.828 0 5.726-.17 8.582-.226 2.856-.057 5.443-.085 8.172-.114.481 0 1.117-.212 1.23.552.071.523-.382.891-1.174.947-2.912.17-5.839.382-8.751.467-4.977.127-9.897.254-14.93.183-5.033-.07-9.896.227-14.788.509a1.91 1.91 0 00-.283 0c-1.074.099-5.386.354-6.461.425-2.347.155-4.679.353-7.069.466-3.562.156-7.069.24-10.702.382-2.446.085-4.892.226-7.324.325-3.336.141-6.658.297-9.995.382-4.241.127-8.483.184-12.823.254l-12.724.17c-1.202 0-2.404.212-3.605.24h-20.288c-5.118 0-10.25-.113-15.368-.155-3.393 0-6.772-.085-10.151-.099h-32.037c-5.217.099-10.42.297-15.636.438-2.616.071-5.246.099-7.861.156l-6.207.113c-2.332 0-4.68 0-7.069.07l-13.94.283c-5.655.104-11.31.184-16.965.24h-8.879c-2.304 0-4.609-.183-6.913-.169-1.725 0-3.45.184-5.189.283-.509 0-1.018.113-1.54.098a.807.807 0 01-.863-.763c0-.594.396-.664.834-.735a32.25 32.25 0 017.069-.608c4.128.212 8.256.198 12.385 0 3.053-.099 6.107 0 9.161 0 .495 0 .99-.099 1.598-.156-.834-1.413-1.669-2.587-2.305-3.888-1.626-3.294-3.365-6.545-4.68-9.896a74.397 74.397 0 01-2.502-8.964 165.581 165.581 0 01-1.866-8.482c-.311-1.612-.311-3.28-.665-4.892a22.376 22.376 0 00-5.019-10.589c-.975-1.075-1.866-2.234-2.742-3.408-1.937-2.601-1.556-4.905 1.046-6.772.123-.091.237-.195.34-.311l-.213-2.502a10.064 10.064 0 010-1.131 3.877 3.877 0 012.81-4.033 3.868 3.868 0 011.757-.081 7.073 7.073 0 015.881 3.35c1.414 2.121 2.63 4.341 4.072 6.405 1.442 2.064 2.757 3.563 4.17 5.316.255.339.623.579.891.905a13.066 13.066 0 005.358 3.548 94.208 94.208 0 013.832 1.739c.491.29.963.611 1.414.962-.184-.976-.255-1.796-.481-2.559a269.458 269.458 0 00-3.026-9.968 2.176 2.176 0 00-.608-.904c-3.138-3.04-6.305-6.052-9.444-9.091-1.95-1.881-3.916-3.747-5.952-5.528-1.597-1.414-3.252-2.672-4.877-4.001-1.16-.933-2.432-1.725-3.606-2.63-1.173-.905-1.866-1.555-2.827-2.347-1.103.523-2.177 1.117-3.294 1.527-.854.262-1.73.447-2.616.552-.777.141-1.57.24-2.36.353-1.118.17-1.528-.113-1.598-1.188a10.318 10.318 0 012.431-7.577 11.118 11.118 0 015.98-3.464l1.5-.41c1.06-.283 1.413 0 1.526.975a18.224 18.224 0 01-.325 6.433 2.176 2.176 0 001.089 2.828 64.62 64.62 0 0110.052 7.662 75.394 75.394 0 013.336 2.998c1.075 1.032 2.361 2.389 3.549 3.591l2.05 2.134 4.241 4.383c.156.17.325.311.636.608a10.965 10.965 0 00-.848-3.619c-.48-1.612-1.088-3.195-1.696-4.779-2.022-5.259-4.129-10.476-6.603-15.551-1.074-2.192-1.98-4.468-3.04-6.659-1.173-2.404-2.375-4.793-3.675-7.069a192.608 192.608 0 00-4.892-8.356c-.778-1.272-1.753-2.432-2.686-3.732-.849.41-1.71.777-2.53 1.215a13.348 13.348 0 01-6.32 1.725c-.453 0-.92.184-1.414.227-1.273.113-1.669-.283-1.669-1.598v-.99h-5.23a2.194 2.194 0 01-.962-.155.849.849 0 01-.438-.636.87.87 0 01.48-.608c.49-.156 1-.241 1.513-.255h4.086c.438 0 .877 0 1.004-.565.127-.566-.34-.82-.778-1.004l-4.877-1.923c0-.834.41-.99.919-.891.69.121 1.366.306 2.021.552 1.046.382 2.064.82 3.11 1.258a42.962 42.962 0 012.828-4.128 13.529 13.529 0 018.243-4.496 20.24 20.24 0 013.082-.198c.419.04.829.145 1.216.311l.99-.707a11.537 11.537 0 01-.764 6.716 11.211 11.211 0 01-3.747 5.499l1.3 1.584c.33.338.637.697.92 1.074 1.64 2.531 3.379 5.019 4.878 7.635 2.092 3.647 4.114 7.366 5.966 11.14 1.852 3.775 3.548 7.649 5.23 11.509a123.623 123.623 0 013.097 7.846c1.173 3.323 2.234 6.673 3.294 10.024.99 3.124 1.965 6.263 2.828 9.416.862 3.153 1.597 6.489 2.417 9.713a8.95 8.95 0 00.552 1.597 14.83 14.83 0 005.5 6.193l1.342.876c.085-.707.156-1.315.24-1.937.086-.622.213-1.3.312-1.937a6.67 6.67 0 00-1.117-4.693 16.192 16.192 0 01-1.965-7.069c.013-2.305-.42-4.59-1.273-6.73-.933-1.895-1.95-3.747-2.969-5.655-1.498-2.757-3.124-5.457-4.538-8.271a16.349 16.349 0 01-1.004-3.647c-.424-1.881-.707-3.789-1.201-5.656a31.99 31.99 0 00-3.351-6.97 41.812 41.812 0 00-5.4-7.903 49.679 49.679 0 01-3.592-4.128 10.208 10.208 0 01-2.149-8.073 4.44 4.44 0 014.666-3.803c2.386.218 4.697.951 6.772 2.149a49.527 49.527 0 018.482 6.164c.538.439 1.103.82 1.796 1.329.108-.343.17-.7.184-1.06-.255-2.95-.17-5.92.254-8.851.088-1.84-.317-3.67-1.173-5.301-.75-1.612-1.626-3.181-2.319-4.821a8.484 8.484 0 01-.58-4.807 3.055 3.055 0 013.832-2.163c1.059.376 2.055.91 2.955 1.583a28.829 28.829 0 013.266 3.294 385.595 385.595 0 015.881 6.829c.876 1.046 1.682 2.149 2.559 3.266a9.488 9.488 0 011.795-.863 3.847 3.847 0 013.591.679 247.148 247.148 0 013.52 3.026c.425.367.807.777 1.415 1.413.113-.834.226-1.413.282-1.993.453-4.072.905-8.129 1.344-12.201.24-2.291.424-4.581.706-6.871a70.667 70.667 0 012.828-12.724 50.178 50.178 0 011.98-4.793c.452-1.004.904-1.937 1.413-3.125zm98.457-81.109a5.633 5.633 0 000 1.117 5.989 5.989 0 01-1.768 5.542 5.413 5.413 0 01-5.188 1.57c-.919-.114-1.824-.255-2.743-.397a18.68 18.68 0 01-.212 2.489 5.976 5.976 0 01-5.302 4.92 18.28 18.28 0 01-3.492-.34c-.622-.084-1.244-.254-1.88-.381-.17.905-.283 1.64-.438 2.375a6.505 6.505 0 01-6.32 5.217 15.05 15.05 0 01-6.588-1.81 1.304 1.304 0 00-1.499.07 15.244 15.244 0 01-6.15 2.701 6.646 6.646 0 01-4.369-.58 3.73 3.73 0 01-2.12-3.817v-1.173c-1.202.438-2.248.834-3.309 1.202a7.436 7.436 0 01-4.552.367 4.652 4.652 0 01-3.648-4.976 4.984 4.984 0 000-.792h-.353a8.197 8.197 0 00-.961.58 8.187 8.187 0 01-8.483 1.06 3.41 3.41 0 01-1.145-.75 4.236 4.236 0 01-1.414-4.241c.169-.806.254-1.626.41-2.658-.608.255-.99.396-1.414.566a8.158 8.158 0 01-5.019.99 2.571 2.571 0 01-1.06-.297c-1.852-1.414-3.195-3.196-2.828-5.769 0-.438 0-.904.071-1.216l-8.71-2.813-9.033-2.828c-3.549-1.088-7.07-2.233-10.646-3.308a55.537 55.537 0 01-7.818-2.7 7.38 7.38 0 01-4.44-6.942 83.498 83.498 0 01.891-13.799c.127-1.06.212-2.12.325-3.28-.377.108-.767.16-1.16.156-2.332-.467-4.65.34-6.983 0a1.99 1.99 0 00-.707 0c-1.669.297-3.294 1.089-5.062.495-.197 0-.452.085-.692.127-.594.141-1.188.24-1.768.396-.933.268-1.866.58-2.827.848a5.826 5.826 0 01-1.866.41 1.413 1.413 0 00-1.414.523c-.1.142-.325.382-.368.368-.834-.495-1.258.41-1.866.608a3.732 3.732 0 00-2.828 2.686 1.739 1.739 0 00-2.05.679c-.41.608-.706 1.286-1.088 1.979-1.273.509-1.188.565-1.909 1.626-1.145 1.71-.947 3.605-.975 5.457-.045.89.094 1.781.41 2.616a11.804 11.804 0 002.714 4.623c.665-.1 1.499-.184 2.333-.325.834-.142 1.414-.34 2.205-.453a18.245 18.245 0 019.628.438 4.595 4.595 0 013.323 2.7 4.34 4.34 0 01-.198 3.252c-.396.962-.862 1.923-2.163 1.909a.707.707 0 00-.382.17 3.45 3.45 0 01-3.082.466 34.411 34.411 0 01-8.864-2.149c-1.06-.466-2.192-.834-3.28-1.272a1.414 1.414 0 00-1.867.438c-.226.269-.381.552-.791.198 0 0-.425.184-.623.311-.197.127-.353.41-.466.368-.778-.198-1.273.325-1.781.707a20.586 20.586 0 00-4.539 4.594 9.895 9.895 0 00-1.498 2.503 18.04 18.04 0 000 12.158c.282.736.41 1.556 1.414 1.74.183 0 .325.508.41.791.06.288.088.582.084.877.891 0 1.287.509 1.669 1.13.266.434.611.813 1.017 1.118.537.374 1.104.7 1.697.975.961.467 1.951.877 2.983 1.414.453-1.414.764-2.828 1.244-4.058a10.01 10.01 0 014.949-5.91 30.269 30.269 0 013.803-1.413 16.711 16.711 0 017.974-.1 14.422 14.422 0 014.934 1.98c.237.14.429.347.551.594.34.669.637 1.358.89 2.064a6.532 6.532 0 01-2.474 7.366 14.238 14.238 0 01-4.34 2.474c-1.329.453-2.601 1.089-3.958 1.414a26.947 26.947 0 01-7.536.58c-1.315 0-1.838.636-1.414 1.866.283.777.552 1.583 1.598 1.81a1.414 1.414 0 000 1.894c.537.877 1.103 1.753 1.612 2.644a21.857 21.857 0 006.05 6.814c2.107 1.57 2.065 1.555 4.242 0a21.421 21.421 0 0114.308-3.775 6.668 6.668 0 014.68 2.828c.145.184.238.404.268.636.34 2.701-.156 4.326-2.46 5.839a12.708 12.708 0 01-5.655 2.064 22.306 22.306 0 01-8.483-.48c-1.3-.382-2.602-.736-4.058-1.146-.424.962-.735 1.895-1.215 2.743a10.065 10.065 0 00-.736 7.606 12.837 12.837 0 004.51 7.706c1.018 2.021 3.464 2.205 4.864 3.746.184.145.395.251.622.311 2.135.806 4.241 1.683 6.404 2.361 2.163.679 4.425 1.202 6.673 1.683 1.74.381 3.507.622 5.274.876.693.113 1.414 0 2.106.127 1.343.156 2.672.439 4.016.481 2.63.085 5.259 0 7.903.071a1.512 1.512 0 001.527-.933 17.227 17.227 0 012.346-3.478 38.377 38.377 0 018.851-6.885c2.474-1.414 5.019-2.828 7.62-3.959a26.376 26.376 0 0110.165-2.672 2.937 2.937 0 012.872 1.938c.141.389.198.803.168 1.215-.071.339-.071.707-.113 1.088.165.012.33.012.495 0 1.682-.085 3.365-.254 5.061-.268 1.697-.014 2.135.579 1.994 2.177 0 .749-.227 1.414-.312 2.234-.084.82-.098 1.413-.155 2.205l8.992.75v1.837c-2.998.198-5.868-.452-8.879-.325-.184 2.559-.353 4.977-.537 7.465l8.483.721-.227 1.994-8.341-.524c-.085.919-.17 1.697-.24 2.489-.085 1.131-.128 2.262-.269 3.379-.141 1.117-.622 1.569-1.795 1.414a102.018 102.018 0 01-5.458-.707c-1.3-.184-2.573-.467-3.944-.736-.156.524-.325.962-.438 1.414a18.94 18.94 0 01-3.182 6.574c-1.343 1.81-2.827 3.507-4.142 5.33a11.064 11.064 0 00-1.88 3.436 72.34 72.34 0 00-1.697 8.681c-.452 3.449-.693 6.927-.862 10.391-.241 4.934-.297 9.896-.495 14.816-.113 2.828-.339 5.656-.481 8.483-.169 3.054-.297 6.108-.452 9.162a7.811 7.811 0 00.466 3.732 64.16 64.16 0 013.563 10.25c.212.764.523 1.513.778 2.276a10.056 10.056 0 001.329-2.46c.806-2.064 1.626-4.114 2.375-6.178a20.256 20.256 0 001.117-3.775c.428-1.162.736-2.366.919-3.591a12.49 12.49 0 01.664-2.432 89.177 89.177 0 012.828-10.759 36.462 36.462 0 015.16-10.589 14.7 14.7 0 012.616-2.516 2.07 2.07 0 012.149-.184 4.553 4.553 0 012.827 3.407 11.307 11.307 0 01-.565 6.928 38.341 38.341 0 00-2.489 8.482 17.763 17.763 0 00-.113 4.496c.297 2.46.834 4.892 1.329 7.338.434 1.443.54 2.964.311 4.453-.466 1.965-1.046 3.902-1.654 5.825a18.19 18.19 0 00-1.159 6.32 17.46 17.46 0 00.763 5.146c.523 1.414.905 2.912 1.414 4.34.396 1.075.919 2.107 1.414 3.238.159-.277.287-.571.382-.877.198-1.145.395-2.29.523-3.449.226-1.867.381-3.747.579-5.655.113-1.259.156-2.545.368-3.789.679-3.747 1.315-7.494 2.163-11.212.933-4.114 2.036-8.2 3.139-12.286.622-2.304 1.413-4.566 2.106-6.913a4.7 4.7 0 00-.89-.608c-2.574-.933-4.242-2.969-6.179-4.807-.707-.693-.594-1.089.184-1.739.175-.157.37-.29.58-.396 2.106-.919 4.241-1.838 6.362-2.672a5.546 5.546 0 012.205-.353 12.455 12.455 0 017.536 2.827c.155-.169.311-.339.452-.523a2.924 2.924 0 012.828-1.258 7.196 7.196 0 014.241 1.979 18.445 18.445 0 014.001 4.694c.438.62.91 1.215 1.414 1.781.749-.565 1.485-1.003 2.092-1.569a30.437 30.437 0 002.828-2.828c1.414-1.654 2.587-3.435 3.945-5.103a6.313 6.313 0 016.517-2.361c1.117.226 2.206.565 3.393.89.212-1.413.467-2.672.58-3.958.17-2.107.212-4.242.367-6.334.156-2.093.41-4.1.608-6.164.269-2.828.453-5.797.863-8.667a2.678 2.678 0 00-.693-2.417 16.198 16.198 0 01-2.898-4.143c-1.018-2.276-1.951-4.58-2.955-6.857a25.27 25.27 0 00-1.414-2.827 1.636 1.636 0 00-1.767-.834 11.72 11.72 0 01-7.479-1.414c-.532-.3-1.15-.41-1.753-.311a200.12 200.12 0 01-7.14.82c-1.159.113-2.347.127-3.52.141a.888.888 0 01-.352-.004.884.884 0 01-.68-.731 7.577 7.577 0 01-.241-1.23c.099-3.011.198-6.023.354-9.034.155-3.012.424-6.193.622-9.289.099-1.597.17-3.209.283-4.807.099-1.315.692-1.767 1.993-1.767 2.909.242 5.787.762 8.596 1.555.617.172 1.221.385 1.81.636a4.584 4.584 0 013.039-2.092 22.457 22.457 0 019.36.382 77.022 77.022 0 017.606 2.488 41.622 41.622 0 019.048 4.241 16.556 16.556 0 014.553 3.662c.749 1.004 1.272 2.177 2.021 3.209a19.654 19.654 0 012.347 5.387c.453 1.315.933 2.63 1.414 4.058.537-.114 1.032-.198 1.513-.34a20.358 20.358 0 012.134-.749 15.82 15.82 0 004.313-1.654c.221-.168.477-.283.749-.339a10.91 10.91 0 004.34-1.57 93.818 93.818 0 004.977-2.714 19.804 19.804 0 005.174-4.015c1.117-1.301 2.05-2.757 3.04-4.171a38.202 38.202 0 002.488-3.747 28.352 28.352 0 002.149-4.891c.459-1.572.748-3.188.863-4.821a6.482 6.482 0 00-.693-4.355c-.41 0-.877 0-1.329.127-2.361.382-4.722.849-7.069 1.146a10.568 10.568 0 01-7.069-1.414 9.206 9.206 0 01-4.34-5.146 5.437 5.437 0 012.248-6.037 8.209 8.209 0 015.301-1.061 20.547 20.547 0 018.78 3.28 17.906 17.906 0 014.043 3.478 1.42 1.42 0 001.441.677c.186-.03.365-.096.525-.196.334-.162.659-.342.975-.537.82-.552 1.414-1.414 2.531-1.513.282 0 .551-.339.82-.523a18.548 18.548 0 004.835-5.655 23.42 23.42 0 003.138-6.928c.34-1.414.439-2.828.693-4.482-.692.184-1.131.269-1.555.41a17.728 17.728 0 01-11.31.552 20.361 20.361 0 01-5.839-2.715 6.923 6.923 0 01-3.111-4.906 4.785 4.785 0 01.34-2.827 8.851 8.851 0 016.065-4.242 29.403 29.403 0 015.429-.678 10.139 10.139 0 015.655 1.413 14.134 14.134 0 015.952 6.758c.453 1.174 1.145.962 1.824.396.314-.279.612-.576.891-.89.919-.92 1.908-1.782 2.827-2.828a17.093 17.093 0 003.096-6.08 15.872 15.872 0 00.976-9.373c-.325-1.201-.622-2.431-1.018-3.619a13.729 13.729 0 00-.877-1.612 16.484 16.484 0 00-5.132-5.655c-.339.551-.65 1.004-.919 1.414a13.515 13.515 0 01-7.266 6.772c-3.987 1.414-7.875 1.682-11.523-1.117a6.17 6.17 0 01-2.672-5.132 5.256 5.256 0 01.594-2.715 12.727 12.727 0 018.129-5.839 15.229 15.229 0 019.897.481c.592.212 1.196.386 1.809.523a5.852 5.852 0 00.326-3.266 10.377 10.377 0 00-1.018-4.792 13.425 13.425 0 00-3.309-4.61c-1.3-1.13-2.361-2.544-4.241-2.827-.156 0-.269-.226-.424-.325a17.524 17.524 0 00-2.305-1.272c-.974-.34-1.97-.61-2.983-.806-2.276-.51-4.538-1.131-6.843-1.414-2.658-.311-5.358-.297-8.03-.41-.431.017-.86.06-1.286.127 0 .467-.085.834 0 1.202.084 1.965.155 3.944.282 5.91.311 2.76.396 5.54.255 8.313-.198 1.894-.509 3.718-2.248 4.962a9.43 9.43 0 01-3.704 1.541 377.553 377.553 0 01-8.738 1.57 760.467 760.467 0 01-11.154 1.767 1.245 1.245 0 00-1.075.763 12.056 12.056 0 01-4.241 4.637 7.237 7.237 0 01-5.457 1.414 12.062 12.062 0 00-1.428 0zm-64.13-21.08a11.386 11.386 0 01-1.654-2.05 7.163 7.163 0 01-.424-5.655 41.952 41.952 0 013.732-8.624 51.608 51.608 0 017.069-10.137 13.799 13.799 0 015.132-3.873 19.646 19.646 0 015.457-1.344c1.287-.127 2.559-.282 4.044-.452a12.727 12.727 0 00-4.397-2.587 19.793 19.793 0 00-11.31-1.33c-3.761.58-7.479 1.415-11.226 2.136a76.342 76.342 0 01-16.541 1.13 9.812 9.812 0 00-1.117 0c-4.653.25-9.318.147-13.954-.31-4.51-.34-8.992-.891-13.488-1.33-1.71-.169-2.276.17-2.828 1.839a27.524 27.524 0 00-.947 3.52c-.707 3.789-1.414 7.564-2.007 11.31-.594 3.747-.976 7.932-1.414 11.904-.17 1.414-.311 2.913-.354 4.369 0 2.248-.113 4.51 0 6.758a4.242 4.242 0 002.22 3.69 22.622 22.622 0 005.33 2.163c4.44 1.244 8.836 2.616 13.247 3.959 2.15.664 4.242 1.413 6.419 2.106 2.177.693 4.68 1.414 7.069 2.107 1.527.466 3.04.975 4.566 1.413a1.062 1.062 0 001.414-.381c.863-1.16 1.767-2.29 2.658-3.422.128-.132.271-.25.424-.353.713-.527 1.464-1 2.248-1.414a18.17 18.17 0 015.655-2.36c2.517-.467 4.92-.213 6.504 2.19.594.891 1.004 1.88 1.597 2.998.623 0 4.977-.368 6.122 0 .846.29 1.645.7 2.375 1.216a5.485 5.485 0 012.178 3.195 4.832 4.832 0 01-.41 3.025c.565-.212.919-.31 1.23-.466a11.306 11.306 0 015.429-1.244 4.111 4.111 0 011.724.452c.507.315.98.68 1.414 1.089a4.483 4.483 0 011.979 4.114 7.218 7.218 0 000 1.06c.693-.07 1.301-.127 1.895-.212.594-.085 1.287-.254 1.937-.325a4.336 4.336 0 014.148 2.567 4.34 4.34 0 01.376 1.674 6.192 6.192 0 01-1.527 3.704c-.438.524-.82 1.09-1.329 1.796a23.71 23.71 0 006.15 1.654 3.82 3.82 0 001.513-.31 6.479 6.479 0 003.633-6.363c-.919-.382-1.838-.721-2.742-1.117l-8.752-3.93a16.761 16.761 0 01-2.022-.99c-.226-.141-.466-.58-.395-.778a.994.994 0 01.777-.41c.422.015.835.116 1.216.297 3.04 1.273 6.051 2.602 9.105 3.846 2.304.947 4.623 1.866 6.97 2.672a5.074 5.074 0 005.174-.919c3.139-4.651 0-5.655-.226-6.277-.438-.198-.905-.396-1.414-.622-3.718-1.796-7.464-3.563-11.154-5.401a18.865 18.865 0 01-2.644-1.555c-.34-.255-.665-.636-.283-1.089.382-.452.763-.24 1.145 0 .113.07.226.17.354.24 1.64.92 3.237 1.895 4.934 2.715 2.827 1.414 5.768 2.743 8.666 4.058 1.52.73 3.083 1.367 4.68 1.908a7.749 7.749 0 003.478.396c3.082-.594 4.156-2.319 3.973-5.655a1.952 1.952 0 00-1.414-1.81 23.278 23.278 0 01-2.729-1.159 85.039 85.039 0 01-4.793-2.7c-2.756-1.697-5.471-3.464-8.2-5.203a1.631 1.631 0 01-.636-.551c-.155-.283-.311-.75-.184-.976.241-.438.693-.368 1.117-.099 2.39 1.57 4.821 3.082 7.197 4.666a46.223 46.223 0 009.896 4.877 7.34 7.34 0 007.804-1.202 10.484 10.484 0 002.686-3.11 15.74 15.74 0 01-2.827-1.202 137.007 137.007 0 01-6.716-4.863c-1.852-1.414-3.591-3.011-5.414-4.482-2.05-1.64-4.143-3.223-6.179-4.877-2.629-2.135-5.202-4.327-7.818-6.476a222.969 222.969 0 00-5.146-4.156 5.896 5.896 0 00-3.747-1.414c-1.272 0-2.545-.155-3.803-.184a25.73 25.73 0 00-8.242.948 3.946 3.946 0 00-1.683.975 20.23 20.23 0 00-2.262 2.828 32.864 32.864 0 01-4.439 5.824 12.938 12.938 0 01-12.399 3.69 9.53 9.53 0 01-2.87-1.328zm47.56 247.669h3.845c4.242 0 8.483-.071 12.725-.142 4.241-.07 8.157-.198 12.243-.282 2.107 0 4.241 0 6.334-.099 2.912-.113 5.825-.311 8.737-.41 2.531-.099 2.248.452 3.054-2.446a65.575 65.575 0 001.555-6.574 29.318 29.318 0 000-8.398 9.293 9.293 0 01-.099-1.414c0-2.149.099-4.241 0-6.447a27.368 27.368 0 011.782-9.218c.721-2.106 1.611-4.171 2.488-6.221a23.892 23.892 0 002.078-9.896c0-1.414.283-2.828.141-4.242-.183-1.993-.636-3.972-.975-5.952a36.473 36.473 0 01-.354-11.225 47.41 47.41 0 013.365-12.046c.439-1.032.849-2.078 1.301-3.11 1.598-3.704 3.195-7.408 4.821-11.112a28.518 28.518 0 002.545-7.875 8.57 8.57 0 00-.58-5.373 3.238 3.238 0 00-4.241-1.682 28.594 28.594 0 00-3.832 2.601 23.1 23.1 0 00-5.457 7.465c-1.569 2.828-2.827 5.966-4.114 8.964-1.654 3.732-3.223 7.493-4.948 11.197-.863 1.866-1.923 3.633-2.941 5.429a328.38 328.38 0 01-4.312 7.408 16.28 16.28 0 00-1.527 2.672 4.521 4.521 0 01-1.513 2.149 17.349 17.349 0 00-3.562 4.242 33.354 33.354 0 00-3.917 7.309 42.037 42.037 0 00-2.954 8.949c-.283 1.852-.82 3.662-1.103 5.514-.424 2.827-.792 5.655-1.046 8.483-.255 2.827-.368 5.542-.439 8.313-.07 3.464-.127 6.942 0 10.405.128 3.464.41 6.56.622 9.897.036.187.036.379 0 .565-.113.227-.297.538-.48.58-.184.042-.523-.184-.651-.382a1.677 1.677 0 01-.226-.806c-.325-3.068-.707-6.135-.919-9.218a84.958 84.958 0 01-.085-11.692c.107-.974.078-1.959-.084-2.926a10.057 10.057 0 00-1.188-2.828c-1.781-3.096-3.577-6.164-5.471-9.189-1.895-3.026-3.846-5.783-5.769-8.681-.806-1.216-1.626-2.418-2.389-3.662a57.413 57.413 0 01-4.326-10.377c-.891-2.46-1.273-5.076-2.333-7.493-.65-1.414-1.032-3.026-1.668-4.482-.849-1.923-1.895-3.761-2.828-5.655a27.14 27.14 0 00-6.192-8.299 4.375 4.375 0 00-2.913-1.287c-1.003 0-1.329.213-1.583 1.188a11.073 11.073 0 00.721 7.451 57.03 57.03 0 002.7 5.528 64.84 64.84 0 013.662 8.214 23.227 23.227 0 011.697 6.362 43.994 43.994 0 01-.976 12.017 37.32 37.32 0 00-.283 10.858 22.437 22.437 0 003.026 8.879c.82 1.413 1.527 2.827 2.248 4.241a24.153 24.153 0 012.036 8.172c.226 1.725.48 3.449.862 5.146a37.257 37.257 0 002.969 7.748c.542.973.793 2.083.721 3.195zm51.914-260.477c-.084-1.131-.155-2.248-.268-3.365-.198-2.064-.41-4.129-.622-6.179a23.44 23.44 0 00-.467-3.76c-.693-2.404-1.414-3.86-4.354-3.591h-.41l-12.258-.269c-5.372-.099-10.731-.198-16.089-.269l-13.403-.183-6.333-.1c-1.782 0-3.563-.14-5.345-.169h-6.899c-4.988-.123-9.978.122-14.929.735-1.545.198-3.04.677-4.412 1.414a22.088 22.088 0 00-7.068 7.069 50.245 50.245 0 00-4.694 7.691 29.685 29.685 0 00-2.616 6.97 8.49 8.49 0 00.212 3.464 4.608 4.608 0 003.818 3.153 11.31 11.31 0 0010.334-2.828 20.949 20.949 0 003.69-4.425 37.302 37.302 0 012.319-3.365 6.83 6.83 0 013.959-2.828 49.146 49.146 0 015.655-.89c1.809-.113 3.661.297 5.471.212a9.146 9.146 0 016.475 2.262c4.242 3.478 8.681 6.9 12.951 10.42 3.803 3.138 7.493 6.418 11.31 9.543a65.616 65.616 0 006.037 4.439 4.906 4.906 0 003.619.89 114.31 114.31 0 0111.593-1.993 64.848 64.848 0 009.897-1.852 3.987 3.987 0 003.563-4.114c.466-4.058-.156-8.073-.34-12.102-.099-1.965-.297-3.973-.396-5.98zM110.799 289.018c11.013-.198 21.899.453 32.63.099.361-.569.772-1.103 1.23-1.598a14.15 14.15 0 002.63-3.633 29.848 29.848 0 003.478-7.818c.23-.973.557-1.92.975-2.828.764-1.711 1.598-3.393 2.375-5.089 1.004-2.178 1.965-4.355 2.969-6.532.792-1.753 1.64-3.478 2.39-5.245.192-.471.231-.99.113-1.485a25.771 25.771 0 01-.764-8.37c.255-3.873.877-7.733 1.287-11.607.197-1.585.282-3.182.254-4.778a21.802 21.802 0 00-1.64-6.942c-.565-1.414-1.088-2.828-1.725-4.241a26.519 26.519 0 00-1.413-2.517c-.99 1.258-1.867 2.276-2.63 3.379a18.439 18.439 0 00-2.502 4.538c-.82 2.389-1.711 4.751-2.574 7.069a34.409 34.409 0 01-4.241 7.592c-1.541 2.234-3.45 4.242-5.104 6.376a41.75 41.75 0 00-6.828 13.658c-.806 2.686-1.909 5.287-2.828 7.931-.636 1.711-1.414 3.379-1.923 5.118-.848 2.828-1.541 5.655-2.29 8.568-.438 1.64-.848 3.28-1.258 4.92-.113.452-.241.904-.354 1.413-.113.509-.311.792-.749.608-.438-.184-.382-.551-.452-.862-.008-.28.04-.559.141-.82.368-1.541.763-3.082 1.117-4.623.297-1.23.537-2.474.82-3.704.169-.679.339-1.414.537-2.036.65-2.206 1.272-4.425 2.022-6.603.608-1.767 1.414-3.449 2.092-5.202.721-1.994 1.103-4.115 2.008-6.009 1.258-2.616.396-5.019-.467-7.323a41.892 41.892 0 01-2.417-7.437 14.43 14.43 0 01-.142-6.122 166.038 166.038 0 012.008-7.069 10.93 10.93 0 00.495-5.429c-.382-2.021-.75-4.043-1.244-6.037a21.316 21.316 0 01.862-11.932c.58-1.781 1.301-3.534 1.824-5.33a8.279 8.279 0 000-5.415c-.764-2.022-2.545-2.743-3.945-.961a20.79 20.79 0 00-2.135 2.969 37.349 37.349 0 00-3.379 7.733c-.678 2.347-1.413 4.652-2.163 7.069-.438 1.513-.735 3.082-1.131 4.609-.721 2.729-1.555 5.415-2.205 8.158a62.886 62.886 0 01-3.337 9.26c-.834 2.036-1.739 4.058-2.446 6.15a78.678 78.678 0 00-2.191 9.176 45.327 45.327 0 00-1.258 11.013c.198 3.987.551 7.96.905 11.947.24 2.827.664 5.655.876 8.482a33.758 33.758 0 001.697 7.762zm-18.86.283c-.128-.919-.226-1.654-.325-2.389-.227-1.824-.326-3.662-.68-5.458a37.352 37.352 0 01-.593-8.412 56.328 56.328 0 00-.707-11.239 20.826 20.826 0 00-1.117-4.355 24.261 24.261 0 01-1.965-8.172 12.3 12.3 0 00-.905-4.722c-.636-1.413-.975-3.025-1.513-4.538a36.419 36.419 0 00-3.251-7.479c-1.3-2.05-2.15-4.383-3.252-6.56-.636-1.258-1.414-2.418-2.12-3.662-.806-1.484-1.414-3.053-2.333-4.51-1.711-2.827-3.38-5.768-5.33-8.482-2.828-3.874-5.853-7.578-8.794-11.311l-.24-.353a13.97 13.97 0 00-1.612-1.923c-2.22-1.88-4.524-3.648-6.744-5.514a25.545 25.545 0 00-7.988-4.623 6.903 6.903 0 00-3.464-.495 2.732 2.732 0 00-2.333 1.994 6.785 6.785 0 00-.14 3.76 14.136 14.136 0 003.463 5.726 43.772 43.772 0 013.746 4.383c1.711 2.517 3.21 5.189 4.793 7.804a23.357 23.357 0 013.068 8.13c.198 1.06.297 2.148.537 3.195a26.407 26.407 0 002.828 7.153c1.527 2.673 3.082 5.345 4.609 8.031.17.283.283.579.424.876a25.596 25.596 0 011.951 9.176c.112 1.92.679 3.786 1.654 5.443a8.284 8.284 0 011.301 6.192 27.849 27.849 0 00-.156 7.592 54.927 54.927 0 002.46 11.975c1.216 4.242 2.46 8.384 3.705 12.583.095.283.213.557.353.82l20.67-.636zm97.905-30.199c.102-.229.187-.465.254-.707.382-3.223.679-6.447 1.146-9.656a75.627 75.627 0 012.148-9.303 44.372 44.372 0 015.26-11.607c1.414-2.177 2.926-4.241 4.425-6.291a4.38 4.38 0 001.103-2.828c.024-.989.104-1.975.24-2.955.17-2.106.368-4.241.495-6.319.127-1.782.17-3.577.269-5.359a51.17 51.17 0 00.296-6.051 70.117 70.117 0 01.439-8.284c.141-2.531.523-5.048.664-7.578.142-2.531.085-4.793.17-7.182.127-3.337.438-6.659.424-9.996-.014-3.337-.311-6.376-.58-9.557a32.176 32.176 0 00-.777-5.839 47.535 47.535 0 00-2.686-7.253 22.176 22.176 0 00-2.984-4.581c-1.795-2.177-4.411-3.322-6.842-4.594a37.313 37.313 0 00-7.932-3.125c-2.446-.65-4.849-1.527-7.323-1.993a13.211 13.211 0 00-6.843 0c-.65.212-1.272.509-1.414 1.23a1.795 1.795 0 00.905 1.809 16.797 16.797 0 002.7 1.485c2.305.919 4.638 1.795 6.999 2.587a23.95 23.95 0 017.606 4.453 5.548 5.548 0 012.106 4.115 2 2 0 01-.788 1.893 2.004 2.004 0 01-2.039.213 18.525 18.525 0 01-2.319-1.018 57.941 57.941 0 00-5.528-2.432 32.443 32.443 0 00-5.513-1.102 19.203 19.203 0 00-3.931-.071 2.393 2.393 0 00-2.27 2.139c-.039.378.012.759.15 1.113a6.324 6.324 0 003.223 3.916c1.414.778 2.828 1.414 4.241 2.276a10.406 10.406 0 014.694 5.231c.665 1.753 1.414 3.492 2.163 5.189.793 2.063 1.879 4 3.224 5.754.551.622 1.074 1.272 1.611 1.909.538.636 1.004 1.131.509 1.583-.494.452-.537 1.244-.608 1.909-.113 1.074-.183 2.149-.282 3.237-.227 2.658-.509 5.302-.693 7.974-.311 4.241-.311 8.638-.947 12.922a19.67 19.67 0 000 3.648 11.143 11.143 0 01-.891 5.74 6.733 6.733 0 00-.523 1.894c-.198 1.258-.325 2.517-.467 3.775.008.304.041.607.099.905.235-.167.453-.356.651-.566a25.164 25.164 0 015.655-5.174 10.993 10.993 0 012.658-1.287 3.1 3.1 0 013.209.382 4.53 4.53 0 011.598 3.478 14.318 14.318 0 01-2.828 7.832 36.076 36.076 0 00-3.223 5.274 22.526 22.526 0 00-1.513 10.787 21.41 21.41 0 01-1.569 9.642 24.228 24.228 0 00-2.291 7.663c-.051.548.047 1.1.283 1.597 1.046 2.008 2.163 3.959 3.266 5.924l.721 1.23zm-80.12 29.959c-.226-.623-.311-.934-.452-1.23a22.975 22.975 0 01-1.965-7.875c-.453-4.157-.933-8.313-1.287-12.47a63.402 63.402 0 01-.325-9.897 64.34 64.34 0 011.244-8.072 62.934 62.934 0 012.828-11.311 3.288 3.288 0 000-1.88c-.396-1.499-.905-2.969-1.414-4.453a116.711 116.711 0 00-4.312-11.311 163.528 163.528 0 01-3.959-9.345 61.022 61.022 0 00-2.7-6.786 18.775 18.775 0 00-5.754-6.956 26.85 26.85 0 01-3.775-3.153c-2.828-2.94-5.655-6.008-8.483-8.977a28.013 28.013 0 00-3.62-3.111 2.342 2.342 0 00-1.82-.417 2.34 2.34 0 00-1.544 1.054 10.03 10.03 0 00-.877 1.894 10.729 10.729 0 00-.495 4.863c.195 2.347.93 4.617 2.15 6.631 1.116 1.782 2.332 3.52 3.52 5.259a108.93 108.93 0 002.375 3.309 28.607 28.607 0 014.708 9.529 33.232 33.232 0 011.06 7.069c.004 1.793.334 3.57.976 5.245 1.046 2.46 2.092 4.92 3.195 7.366a7.507 7.507 0 01.763 3.69 22.483 22.483 0 01-.848 4.976 16.966 16.966 0 00.255 11.438 68.863 68.863 0 012.233 8.412c.37 1.795.55 3.624.538 5.457 0 2.163.113 4.312.155 6.475v2.927c.382 3.69.82 7.366 1.244 11.042.027.191.07.381.128.565l16.258.043zm-1.286-123.198c-.538.395-.863.65-1.202.862a8.88 8.88 0 01-1.626.848.975.975 0 01-.806-.339c-.113-.127 0-.523.127-.749.128-.199.297-.367.495-.495.849-.594 1.725-1.145 2.559-1.767a22.77 22.77 0 002.715-2.192c1.159-1.159 2.163-2.474 3.28-3.676a15.545 15.545 0 003.251-5.867c.665-1.951 1.089-3.973 1.655-5.966a8.227 8.227 0 011.823-3.45c1.301-1.414 2.672-2.658 3.931-4.057a10.563 10.563 0 001.654-2.432 1.413 1.413 0 00-.919-2.107 6.048 6.048 0 00-2.078-.282 9.567 9.567 0 00-5.542 2.474c-2.63 2.078-5.175 4.241-7.776 6.404a3.054 3.054 0 01-4.242-.184 1.254 1.254 0 00-1.258-.353c-1.159.184-2.304.353-3.478.452a345.5 345.5 0 01-7.592.566 1.41 1.41 0 00-1.414.919 44.39 44.39 0 00-3.068 7.564c-.749 2.955-1.767 5.881-2.248 8.878-.834 5.147-1.413 10.349-1.965 15.552-.382 3.167-.693 6.348-1.018 9.529a2.162 2.162 0 00.326 1.88c1.979 2.064 3.93 4.157 5.966 6.15 1.781 1.739 3.958 2.998 5.655 4.878a25.443 25.443 0 014.778 7.931c1.245 3.238 2.376 6.518 3.563 9.784.199.406.425.798.679 1.173.099-.749.184-1.145.198-1.555.085-1.697.127-3.379.226-5.061.127-2.489.339-4.963.424-7.451.141-4.369.226-8.737.325-13.106 0-1.414 0-2.827.128-4.241.113-1.768.282-3.535.438-5.302.226-2.488.353-4.977.693-7.437.339-2.46.82-4.962 1.329-7.775h.014zm111.93 122.25h1.569c4.779-.212 9.571-.452 14.364-.65a1.416 1.416 0 001.485-1.046c.353-1.061.749-2.107 1.046-3.181.564-1.945.779-3.975.636-5.995-.24-3.138-.424-6.277-.495-9.416a23.642 23.642 0 016.475-16.781 19.458 19.458 0 002.489-3.054 11.67 11.67 0 001.569-7.96 34.779 34.779 0 00-1.414-5.005 16.603 16.603 0 01-.721-8.341c.339-1.979.961-3.916 1.414-5.881.311-1.273.636-2.559.82-3.86a1.942 1.942 0 00-.389-1.881 1.936 1.936 0 00-1.817-.621 7.21 7.21 0 00-2.332.409 21.214 21.214 0 00-7.833 5.656c-1.414 1.541-2.728 3.195-4.015 4.863a337.224 337.224 0 00-4.241 5.797 3.714 3.714 0 00-.453 1.866c0 1.414.142 2.912 0 4.354a32.553 32.553 0 01-.693 6.009 66.394 66.394 0 01-2.7 7.945 39.39 39.39 0 00-2.262 6.9 33.643 33.643 0 00-.693 8.242c.156 2.715.283 5.443.326 8.172.085 2.49-.187 4.98-.806 7.394-.453 1.923-.835 3.902-1.343 6.065h.014zm-150.739 1.683c-.594-2.291-1.06-4.355-1.654-6.377-.778-2.559-1.74-5.061-2.46-7.648a46.652 46.652 0 01-2.234-11.876 4.241 4.241 0 00-2.375-3.718 16.826 16.826 0 01-6.984-8.893 6.533 6.533 0 00-2.616-3.421 27.336 27.336 0 00-3.69-1.739 12.577 12.577 0 01-4.241-2.178 33.86 33.86 0 01-4.242-4.326c-2.375-3.209-4.566-6.532-6.715-9.896a6.58 6.58 0 00-5.881-3.196 2.277 2.277 0 00-2.361 2.164 16.13 16.13 0 00.452 3.873c1.018 3.761 3.365 6.829 5.655 9.897a76.197 76.197 0 017.89 12.724A36.76 36.76 0 0141 264.475a43.84 43.84 0 001.908 8.355 38.894 38.894 0 005.005 9.048 40.816 40.816 0 006.574 7.14 4.246 4.246 0 003.054 1.117c2.828-.085 5.542 0 8.3-.141 1.13-.029 2.346-.029 3.774-.198h.014zm85.337-74.21l-3.987-9.034a11.8 11.8 0 01-5.91 1.809c-.65 0-1.414-.141-1.88.198-.467.339-.396 1.188-.566 1.81-.749 2.672-1.541 5.33-2.234 8.016-.919 3.534-1.823 7.069-2.629 10.66-.594 2.7-1.089 5.415-1.541 8.129-.41 2.46-.679 4.934-1.032 7.409-.128.89-.269 1.795-.41 2.7a1.23 1.23 0 00.777-.509c.834-1.075 1.612-2.206 2.503-3.223a68.209 68.209 0 006.687-8.879 17.507 17.507 0 001.654-3.082c.862-2.276 1.555-4.609 2.361-6.914.301-.939.689-1.847 1.159-2.714a22.952 22.952 0 015.048-6.376zm17.842 13.784a4.429 4.429 0 001.23-2.827c.452-2.687.834-5.373 1.216-8.059a14.043 14.043 0 012.163-5.415c.904-1.414 2.12-2.728 3.011-4.241a21.22 21.22 0 002.828-5.146 8.725 8.725 0 00-.269-5.104 1.854 1.854 0 00-.594-.778 5.919 5.919 0 00-6.806-.582 5.93 5.93 0 00-1.79 1.614c-1.145 1.541-2.219 3.125-3.435 4.637a21.36 21.36 0 01-4.567 4.327c-.834.579-.848.565-.353 1.569s1.131 2.163 1.597 3.294c1.81 4.425 3.309 8.964 4.694 13.558.354 1.047.735 2.022 1.131 3.153h-.056zM123.042 76.765l1.089-.155a8.743 8.743 0 004.694-2.672c2.205-1.98 4.312-4.044 6.432-6.122a9.31 9.31 0 001.259-1.682 2.277 2.277 0 00-.17-2.828 5.302 5.302 0 00-5.754-1.852 26.102 26.102 0 00-11.113 7.96 5.651 5.651 0 00-1.131 4.637 2.698 2.698 0 002.163 2.319c.82.113 1.669.268 2.531.395zm-28.417 62.971h1.894c2.899-.269 5.783-.594 8.681-.792a2.556 2.556 0 002.064-1.23c.905-1.188 1.782-2.418 2.729-3.563a17.972 17.972 0 016.122-4.665c1.781-.849 3.605-1.612 5.386-2.474a3.599 3.599 0 001.414-1.075c.763-1.131.269-2.036-1.089-2.121a7.62 7.62 0 00-1.965.128 55.873 55.873 0 00-14.944 6.135 36.238 36.238 0 00-8.242 6.49 9.283 9.283 0 00-2.05 3.167zm17.672-69.729c.538-.141 1.075-.268 1.598-.452a26.876 26.876 0 008.483-5.26 29.42 29.42 0 002.827-2.94 2.17 2.17 0 00.509-2.361 4.54 4.54 0 00-2.573-2.658 6.631 6.631 0 00-5.061.452 22.705 22.705 0 00-6.532 4.37 15.374 15.374 0 00-2.63 3.449c-1.187 1.979.806 5.683 3.379 5.4zm31.372-2.827c-.425 0-.85.028-1.272.085a7 7 0 00-1.188.424 23.354 23.354 0 00-8.864 6.122 6.354 6.354 0 00-1.414 2.558 2.94 2.94 0 002.361 3.747 9.769 9.769 0 006.97-1.71 38.833 38.833 0 007.324-5.925 2.094 2.094 0 00.438-2.671 4.245 4.245 0 00-4.369-2.687l.014.057zM38.144 86.973c.622.113 1.173.269 1.725.311 3.754.356 7.54-.127 11.084-1.414 1.576-.5 3.024-1.34 4.241-2.46a2.08 2.08 0 00-.099-3.393 4.96 4.96 0 00-1.866-.947 40.37 40.37 0 00-4.694-.877c-.933-.127-1.88.41-2.827.24-.113 0-.283.085-.382.17a2.163 2.163 0 01-1.81.58 1.768 1.768 0 00-.919.268 7.776 7.776 0 00-4.453 7.409v.113zm207.205 2.615c2.296.03 4.574-.397 6.702-1.258.905-.367 1.117-.834.763-1.753a8.48 8.48 0 00-8.624-5.655 19.668 19.668 0 00-5.132.75 8.895 8.895 0 00-3.054 1.64c-.89.678-.876 1.413-.254 2.374a6.477 6.477 0 003.039 2.418 18.384 18.384 0 006.56 1.371v.113zm-99.375-5.245v-.155c.422.01.843-.023 1.258-.1a13.845 13.845 0 009.006-6.644 2.533 2.533 0 00.365-2.417 2.533 2.533 0 00-1.849-1.598 5.656 5.656 0 00-1.937-.142c-1.73.214-3.386.829-4.836 1.796a16.806 16.806 0 00-4.51 3.76 7.757 7.757 0 00-1.23 2.489 1.717 1.717 0 00.077 1.389 1.702 1.702 0 001.083.873c.848.212 1.668.382 2.573.636v.113zm108.862-29.69c-.891-1.23-.933-1.116-2.983-1.71a11.58 11.58 0 00-6.249 0 10.151 10.151 0 00-5.811 3.025 2.309 2.309 0 00-.735 1.926 2.314 2.314 0 001.089 1.75 6.304 6.304 0 003.746 1.499 8.327 8.327 0 006.391-1.626c.098-.099.24-.226.353-.212 1.513.141 2.107-1.046 2.828-2.022.515-.889.973-1.81 1.371-2.757v.128zM14.689 183.72c.65-.127 1.202-.255 1.753-.325a16.967 16.967 0 007.734-3.125 7.548 7.548 0 003.138-3.973 12.32 12.32 0 01-2.177.495c-1.895.085-3.492-.283-3.634-3.209a7.455 7.455 0 00-.14-.933 11.448 11.448 0 00-6.674 11.07zm221.541-71.496a1.393 1.393 0 00-.254-.41 17.546 17.546 0 00-9.458-4.241 8.618 8.618 0 00-3.45.311 1.807 1.807 0 00-1.389 2.19c.074.314.232.603.456.835a5.834 5.834 0 003.577 2.545c1.535.431 3.145.532 4.722.297 1.173-.24 2.403-.184 3.577-.424.777-.085 1.739-.085 2.219-1.103zm-100.506 89.988c1.046.863 2.05 1.683 3.04 2.531 2.968 2.573 6.333 2.714 9.896 1.668a9.245 9.245 0 001.654-.763 1.088 1.088 0 00.721-1.089v-2.828l-2.163-1.413c-.424 1.117-.721 2.092-1.159 3.011a1.879 1.879 0 01-2.305 1.159c-.509-.113-1.032-.127-1.541-.226a3.07 3.07 0 01-2.7-3.11v-1.824c-1.852 1.357-4.001 1.159-5.443 2.884zm134.593-36.659c0 2.827-1.103 4.835-4.241 4.707 1.413 3.464 6.333 5.034 10.476 3.224 0-3.011-3.323-7.606-6.235-7.931zm-253.21 38.37c-2.15 1.018-3.591 4.241-3.224 7.295 2.194.046 4.36-.506 6.263-1.598a4.887 4.887 0 002.036-3.661c-2.94 1.428-4.1.961-5.075-2.008v-.028zm51.617-96.336a2.605 2.605 0 00-2.092-1.103 15.995 15.995 0 00-8.667 1.414 1.992 1.992 0 01-1.57.452c-.452-.098-.692.128-.777.566 2.008 2.149 10.745 1.371 13.106-1.329zm178.704 60.878c1.739 2.502 5.768 3.124 8.864 1.414-1.103-3.422-3.28-5.655-5.584-5.571.396 2.786-.905 4.426-3.28 4.185v-.028zm-66.18 42.032a19.006 19.006 0 00-4.991 12.724c.267-.186.485-.433.637-.721a31.84 31.84 0 012.445-4.086c1.626-2.007 1.81-4.354 1.98-6.744.014-.254-.043-.607-.071-1.145v-.028zm-3.662-74.408a3.381 3.381 0 001.937 2.135l2.545 1.159 2.927 1.343c0-1.088 0-1.413-.75-1.781a136.79 136.79 0 00-5.061-2.375 12.04 12.04 0 00-1.598-.481zM50.656 56.11a9.896 9.896 0 00-5.966-.834 9.897 9.897 0 005.966.834zm137.619 88.008a2.745 2.745 0 00-1.867-3.152v1.286c.156 1.456.156 1.456 1.867 1.866zm-14.251 7.974c-1.796-1.527-2.319-1.626-3.832-.693a6.503 6.503 0 003.832.693zM28.403 173.045h.31l.368-2.234-1.413.198.735 2.036zm245.194 8.963c-1.414.113-1.414.113-.99 1.258l.99-1.258zm-27.951-16.965l.325.084.283-.834c-.325 0-.495.128-.565.269-.04.166-.054.338-.043.509v-.028zM22.154 202.409l.297-.226a7.014 7.014 0 00-.41-.509c-.142-.156-.142 0-.226.113l.339.622zm245.109-34.412l.212.212.566-.607-.212-.198-.566.593zm-87.203-27.526v.155l.552.198v-.169l-.552-.184z" fill="#141414"/><path d="M26.451 260.785a5.904 5.904 0 01-1.272-.212 80.237 80.237 0 01-3.704-1.739 88.856 88.856 0 00-9.897-4.241 4.353 4.353 0 01-1.413-.735c-.213-.198-.213-.636-.311-.962.296-.07.636-.254.876-.169 2.05.678 4.143 1.3 6.122 2.149 2.46 1.06 4.835 2.304 7.21 3.506a5.123 5.123 0 012.418 1.979l-.029.424zm242.071-16.314a.967.967 0 01-.303-.707.982.982 0 01.303-.707 33.993 33.993 0 012.828-2.658c1.965-1.499 4.015-2.828 6.022-4.34.58-.396 1.131-.835 1.739-1.202.82-.481.834-.453 1.626.594-1.088.834-2.177 1.71-3.308 2.502-1.131.792-2.375 1.527-3.506 2.347a20.212 20.212 0 00-4.793 3.831c-.028.156-.339.212-.608.34zm8.665.974c-.211.23-.448.434-.707.608-1.626.82-3.266 1.611-4.906 2.403l-3.379 1.626c-.424.198-.848.283-1.117-.198-.268-.481 0-.82.425-1.032a337.392 337.392 0 014.976-2.63c.792-.41 1.598-.777 2.418-1.145.46-.202.932-.377 1.413-.523.608-.156.792.17.877.891zm-251.866 8.413a1.144 1.144 0 01-1.57 0c-1.187-.905-2.374-1.81-3.52-2.828a17.752 17.752 0 01-1.823-1.753 3.756 3.756 0 01-.764-1.159c-.099-.24 0-.58.113-.877.253.029.498.105.721.227.947.763 1.866 1.569 2.828 2.375a257.163 257.163 0 013.52 3.209c.184.257.35.526.495.806z" fill="#141414"/><path d="M91.94 289.301l-20.642.608a5.512 5.512 0 01-.353-.82c-1.244-4.241-2.488-8.384-3.704-12.583a54.939 54.939 0 01-2.46-11.975 27.848 27.848 0 01.155-7.592 8.284 8.284 0 00-1.3-6.192 12.118 12.118 0 01-1.655-5.443 25.589 25.589 0 00-1.95-9.176c-.142-.297-.255-.594-.425-.876-1.527-2.687-3.082-5.359-4.609-8.031a26.404 26.404 0 01-2.827-7.153c-.24-1.047-.34-2.135-.538-3.196a23.36 23.36 0 00-3.068-8.129c-1.583-2.615-3.082-5.288-4.792-7.804a43.772 43.772 0 00-3.747-4.383 14.135 14.135 0 01-3.464-5.726 6.784 6.784 0 01.142-3.76 2.727 2.727 0 012.332-1.994 6.903 6.903 0 013.464.495 25.545 25.545 0 017.988 4.623c2.22 1.866 4.524 3.634 6.744 5.514a13.97 13.97 0 011.612 1.923l.24.353c2.94 3.775 5.98 7.479 8.794 11.31 1.95 2.701 3.62 5.656 5.33 8.483.876 1.414 1.527 3.026 2.333 4.51.678 1.244 1.413 2.404 2.12 3.662 1.103 2.177 1.951 4.51 3.252 6.56a36.419 36.419 0 013.252 7.479c.537 1.513.876 3.096 1.513 4.538a12.3 12.3 0 01.904 4.722 24.258 24.258 0 001.937 8.2 20.844 20.844 0 011.16 4.355c.61 3.713.847 7.479.706 11.239-.12 2.818.08 5.64.594 8.412.354 1.796.453 3.634.679 5.458.056.735.155 1.47.283 2.389zm128.414-1.187c.508-2.163.89-4.142 1.413-6.079.62-2.414.891-4.904.806-7.394 0-2.729-.169-5.458-.325-8.172a33.602 33.602 0 01.693-8.243 39.379 39.379 0 012.262-6.899 66.632 66.632 0 002.7-7.945c.417-1.978.649-3.989.693-6.009.085-1.414-.085-2.898 0-4.355a3.726 3.726 0 01.452-1.866 86.586 86.586 0 014.242-5.796c1.286-1.669 2.601-3.323 4.015-4.864a21.208 21.208 0 017.832-5.655 7.217 7.217 0 012.333-.41 1.94 1.94 0 012.261 1.511c.068.329.049.671-.055.991-.184 1.301-.509 2.588-.82 3.86-.467 1.965-1.089 3.902-1.414 5.882a16.592 16.592 0 00.721 8.341 34.871 34.871 0 011.414 5.005 11.663 11.663 0 01-1.57 7.959 19.406 19.406 0 01-2.488 3.054 23.64 23.64 0 00-6.461 16.782c0 3.139.254 6.277.495 9.416a17.168 17.168 0 01-.636 5.994c-.297 1.075-.693 2.121-1.047 3.181a1.41 1.41 0 01-1.484 1.046c-4.793.198-9.586.439-14.364.651-.608.042-1.032.014-1.668.014zM14.688 183.719a11.453 11.453 0 016.673-11.098c.067.308.114.619.142.933.141 2.927 1.739 3.294 3.633 3.209.74-.098 1.468-.264 2.178-.494a7.547 7.547 0 01-3.14 3.972 16.967 16.967 0 01-7.733 3.125c-.551.099-1.102.226-1.753.353zm121.035 18.493c1.413-1.725 3.591-1.527 5.429-2.827v1.823a3.069 3.069 0 002.7 3.111c.509.099 1.032.113 1.541.226a1.882 1.882 0 002.304-1.159c.439-.919.736-1.895 1.16-3.012l2.163 1.414v2.828a1.085 1.085 0 01-.721 1.088 9.25 9.25 0 01-1.654.764c-3.563 1.046-6.928.904-9.897-1.669-.975-.904-1.979-1.724-3.025-2.587zm134.595-36.66c2.912.296 6.234 4.891 6.234 7.931-4.142 1.81-9.133.24-10.476-3.224 3.139.156 4.298-1.88 4.242-4.707zM17.107 203.951c.975 2.969 2.092 3.435 5.075 2.036a4.887 4.887 0 01-2.036 3.661 12.089 12.089 0 01-6.263 1.598c-.297-3.012 1.117-6.277 3.224-7.295zm230.321-35.459c2.375.24 3.633-1.414 3.28-4.114 2.304 0 4.481 2.149 5.584 5.57-3.096 1.668-7.125 1.046-8.864-1.456zm-219.026 4.553l-.763-2.022 1.413-.198-.367 2.234-.283-.014zm245.194 8.963l-.99 1.259c-.466-1.146-.466-1.146.99-1.259zm-27.95-16.938a1.678 1.678 0 010-.48c.071-.142.24-.241.566-.269l-.283.834-.283-.085zM22.154 202.41l-.34-.622c.085 0 .212-.127.227-.113.014.014.282.339.41.509l-.297.226zm245.11-34.412l.565-.594.212.198-.565.608-.212-.212z" fill="#fff"/></svg>