<svg width="300" height="300" fill="none" xmlns="http://www.w3.org/2000/svg"><g clip-path="url(#clip0_696_4962)"><path d="M159.003 279.434c-.489.605-.789.943-1.047 1.295l-3.536 4.6a8.402 8.402 0 01-4.964 2.955c-3.223.717-6.501 1.196-9.751 1.702-1.17.136-2.346.202-3.523.197-1.849.07-3.685.099-5.535.155h-.272c-.435 0-.911 0-.965-.507a1.439 1.439 0 01.394-1.055 22.728 22.728 0 011.945-1.505 38.538 38.538 0 006.147-5.867c.884-1.013 1.809-1.97 2.625-3.025a18.17 18.17 0 003.073-5.065c.504-1.406.844-2.94 1.36-4.53-1.142 0-2.162-.112-3.196-.14-1.033-.029-2.176 0-3.25 0-.68 0-.843-.437-.816-1.027 0-1.632.15-3.265.204-4.897v-1.913c0-1.407.095-2.715.163-4.066.095-2.223.191-4.46.299-6.683.068-1.491.177-2.982.245-4.474.068-1.491 0-3.362.123-5.05.176-3.869.38-7.752.557-11.621.204-4.671.395-9.328.599-13.985.108-2.377.258-4.755.353-7.133.123-3.193.177-6.387.313-9.581.082-2.335.245-4.657.381-7.034l-.299-.099c-.408.619-.857 1.224-1.211 1.886-1.768 3.306-3.454 6.654-5.277 9.848-1.237 2.223-2.652 4.333-3.944 6.528-.734 1.28-1.36 2.645-2.08 3.925-.857 1.534-1.741 3.053-2.72 4.516a99.863 99.863 0 00-5.536 9.848 67.781 67.781 0 01-4.229 7.654c-1.496 2.237-2.421 4.769-4.08 6.936a47.888 47.888 0 00-3.251 6.106c-.693 1.294-1.441 2.56-2.176 3.827-.734 1.266-1.36 2.391-2.067 3.601-.544.943-1.101 1.14-2.026.619-.925-.52-1.918-1.181-2.91-1.716-2.299-1.252-4.625-2.476-6.896-3.672-.136.084-.258.113-.285.183a94.963 94.963 0 01-5.019 11.002c-.68 1.308-1.224 2.701-1.809 4.066a.94.94 0 01-.194.39.876.876 0 01-1.166.173c-1.93-.816-3.862-1.604-5.78-2.449-1.128-.492-1.224-.759-.707-1.955.735-1.702 1.537-3.377 2.299-5.065.122-.253.19-.52.353-.985l-3.604 2.167a11.452 11.452 0 01-5.059 1.871 6.136 6.136 0 01-1.605-.127 16.818 16.818 0 01-5.317-1.927c-1.496-.872-3.074-1.59-4.57-2.462-.911-.535-1.74-1.224-2.72-1.773a35.667 35.667 0 01-8.595-7.414c-.435-.493-.87-1.112-.476-1.745s1.074-.309 1.605-.084a22.735 22.735 0 009.941 1.576 12.815 12.815 0 002.38-.479 24.258 24.258 0 008.786-4.375 4.558 4.558 0 001.7-2.279 23.497 23.497 0 011.931-3.672c1.65-2.955 3.305-5.905 4.964-8.85 2.026-3.587 4.08-7.161 6.066-10.748 1.21-2.181 2.366-4.404 3.563-6.585.789-1.407 1.632-2.813 2.42-4.22l5.087-9.258c.68-1.21 1.36-2.42 2.054-3.615l3.916-6.88c1.034-1.82 2.059-3.635 3.074-5.445 2.04-3.611 4.075-7.231 6.106-10.861 1.061-1.899 2.068-3.827 3.115-5.74.653-1.168 1.36-2.293 2.013-3.461 1.591-2.814 3.182-5.628 4.746-8.442 1.564-2.813 3.196-5.951 4.855-8.891 1.224-2.181 2.571-4.291 3.822-6.458 1.101-1.927 2.121-3.897 3.237-5.81 1.455-2.533 2.951-5.023 4.433-7.541.966-1.646 1.959-3.264 2.829-4.939a4.464 4.464 0 00.326-1.913c.086-5.144.54-10.275 1.36-15.349.487-3.41 2-6.576 4.325-9.046a17.142 17.142 0 018.759-5.08 18.802 18.802 0 017.82-.239 17.299 17.299 0 017.303 3.236 15.693 15.693 0 014.153 4.56 16.244 16.244 0 012.13 5.865 98.28 98.28 0 011.224 13.971c0 2.04-.163 4.094-.19 6.148 0 2.378 0 4.755-.082 7.133-.122 2.94-.422 5.881-.571 8.821-.15 2.941-.177 6.177-.272 9.272 0 1.998-.191 3.995-.245 5.993-.082 2.94-.095 5.867-.177 8.807 0 1.674-.204 3.335-.258 5.009 0 1.998 0 3.995-.123 5.993 0 1.126-.176 2.237-.217 3.363-.136 4.46-.245 8.919-.395 13.393-.081 2.223-.258 4.46-.367 6.697v2.814c-.068 3.419-.122 6.823-.217 10.228-.096 3.405-.272 6.725-.381 10.088-.095 2.56-.136 5.135-.231 7.695 0 1.956-.218 3.897-.272 5.853-.082 2.617-.082 5.234-.164 7.85-.081 2.617-.258 5.136-.367 7.696-.068 1.534 0 3.081-.109 4.615-.108 2.926-.272 5.838-.394 8.765-.068 1.772-.109 3.531-.177 5.304.006.471-.031.942-.109 1.407a1.337 1.337 0 01-.44.893c-.255.226-.585.34-.92.317-1.156 0-2.312 0-3.468.084h-.53c-1.36.084-1.482.253-1.36 1.716.245 2.589.408 5.192.585 7.795.149 2.194.245 4.389.367 6.584.122 2.195.15 2.321-1.999 2.617l-3.618.52c-1.115.155-1.618-.155-1.795-1.336-.177-1.182-.204-2.237-.286-3.349-.081-1.111-.136-1.829-.231-3.236zM51.74 247.582c.87.83 1.686 1.717 2.625 2.462a44.794 44.794 0 005.59 4.221 39.025 39.025 0 008.948 4.446 6.042 6.042 0 004.488-.267c1.986-.999 3.917-2.111 5.875-3.166a2.3 2.3 0 01.943-.427 2.265 2.265 0 011.03.033 4.125 4.125 0 01-.517 2.673c-.572 1.407-1.238 2.701-1.81 4.08a10.99 10.99 0 00-.38 1.576c2.054.225 3.373 1.97 5.345 2.181l7.357-14.97c-5.766-3.531-11.859-6.345-17.68-9.764-2.597 3.405-6.174 5.037-9.968 6.303a25.973 25.973 0 01-11.846.647v-.028zm81.206 40.8v.268h1.604a57.046 57.046 0 0014.96-2.167 7.44 7.44 0 004.448-2.997c.271-.377.561-.738.87-1.083a33.145 33.145 0 004.08-5.543c0-.113.19-.169.394-.352.164.272.292.565.381.872.313 1.984.585 3.968.871 5.952.108.816.204 1.632.312 2.391h4.407c-.204-3.348 0-15.588-.653-17.234-6.25-.295-12.512-.14-18.741.464a13.563 13.563 0 01-1.686 6.106 18.05 18.05 0 01-3.06 4.755c-.599.563-1.115 1.224-1.659 1.829-1.211 1.323-2.367 2.687-3.618 3.968-.816.97-1.89 1.843-2.91 2.771zm41.534-168.476l-.286.591c-.666 1.21-1.36 2.406-1.985 3.63-.911 1.717-1.836 3.433-2.72 5.177-1.007 2.083-1.918 4.221-2.951 6.261-.816 1.646-1.809 3.194-2.639 4.826-1.224 2.42-2.353 4.896-3.549 7.33a991.565 991.565 0 01-4.08 8.343c-.952 1.899-1.959 3.77-2.911 5.627-.639 1.281-1.224 2.575-1.822 3.883-.191.408-.286.873-.49 1.267-.938 1.786-1.931 3.559-2.856 5.36a628.323 628.323 0 00-3.699 7.442 94.912 94.912 0 00-1.442 3.152c-.285.689 0 1.153.667 1.407.317-.334.603-.696.857-1.084 1.088-2.194 2.216-4.361 3.196-6.598.856-1.956 2.244-3.686 2.516-5.895 1.02-.38.992-1.407 1.36-2.237 1.727-3.489 3.468-6.95 5.168-10.453 1.863-3.827 4.08-7.485 5.576-11.494 0-.127.136-.254.19-.366.721-1.407 1.455-2.814 2.149-4.221 1.21-2.462 2.366-4.938 3.577-7.4 1.36-2.702 2.72-5.375 3.984-8.076.816-1.66 1.564-3.348 2.326-5.037.152-.214.221-.479.196-.744a1.1 1.1 0 00-.332-.691zm40.61-57.049l2.624.816v.197a4.44 4.44 0 01-1.224 0c-2.312-.62-4.624-1.28-6.936-1.927a15.096 15.096 0 01-4.678-2.814c-1.51-1.112-3.06-2.139-4.529-3.306a25.152 25.152 0 01-2.815-2.631c-1.89-2.215-4.424-3.736-7.222-4.334a43.34 43.34 0 01-6.514-1.955 19.609 19.609 0 01-6.31-3.799 18.763 18.763 0 00-5.903-3.292c-3.06-1.14-6.188-2.251-8.323-5.05a2.354 2.354 0 00-.462-.367c-.939.76-1.809 1.506-2.72 2.181a6.286 6.286 0 01-4.102 1.45 6.295 6.295 0 01-4.058-1.577 20.52 20.52 0 01-5.44-7.203 9.002 9.002 0 01-.517-1.59c-.476-1.702-.653-3.46-1.047-5.177a11.895 11.895 0 01-.114-4.639 11.733 11.733 0 011.664-4.309 14.547 14.547 0 013.414-3.7 4.123 4.123 0 011.866-.86 4.055 4.055 0 012.037.157c.326-.324.598-.83.979-.957 1.197-.394 2.434-.661 3.645-.943.268-.063.547-.063.816 0 3.4.873 6.936 1.295 10.118 2.997.196.054.396.092.599.113l-1.36-1.042.108-.225c.236.07.468.155.694.254 1.863 1.04 3.726 2.068 5.562 3.137 1.129.661 2.231 1.407 3.319 2.096a6.981 6.981 0 003.318 1.154c2.122.169 4.243.239 6.351.394a17.39 17.39 0 018.568 2.814 16.001 16.001 0 005.536 2.208 73.51 73.51 0 007.643.591c1.664.166 3.311.481 4.923.943 1.958.549 3.849 1.322 5.766 2.012a.699.699 0 01.294.213.74.74 0 01.155.335c-.272 0-.557-.084-.829-.168a48.211 48.211 0 00-9.072-2.28c-1.917-.182-3.876 0-5.793-.323a19.833 19.833 0 01-6.705-1.576 2.658 2.658 0 00-.979-.31 11.308 11.308 0 006.12 2.252c2.566.225 5.131.506 7.697.844a26.27 26.27 0 0111.751 4.474 11.552 11.552 0 014.352 4.882 6.688 6.688 0 01.557 3.7 11.577 11.577 0 001.469 6.866 22.187 22.187 0 011.469 3.306c.236.946.282 1.932.136 2.898a4 4 0 01-.894 2.043 3.795 3.795 0 01-1.826 1.207c-.884.351-1.735.785-2.543 1.294a8.34 8.34 0 00-3.074 4.657 10.426 10.426 0 01-1.156 2.18 3.158 3.158 0 01-1.056 1.002 3.041 3.041 0 01-1.378.406c-1.36.112-2.72.126-4.08.197l.109.084zm-10.69-5.135l-.653-.704-.177.282.844.394 1.659 1.111c1.169 1.688 3.073 1.956 4.773 2.589l-4.8-2.56-1.646-1.112zm-48.579-44.106a7.366 7.366 0 01-2.258 2.813 16.173 16.173 0 01-5.304 3.04c-.544.196-1.088.435-1.7.675l-.095 1.997a6.355 6.355 0 014.08 2.617 7.427 7.427 0 01-3.767 2.012c.177.675.326 1.294.53 1.9a15.905 15.905 0 003.414 5.303 7.72 7.72 0 003.454 2.617c.903.281 1.856.34 2.784.17a5.937 5.937 0 002.561-1.14 19.651 19.651 0 005.25-5.628 4.988 4.988 0 012.04-1.942 8.31 8.31 0 002.72-2.335 4.404 4.404 0 00.816-1.9 1.901 1.901 0 00-.45-1.491c-.174-.2-.388-.36-.628-.466a1.756 1.756 0 00-.758-.153c-.847.101-1.678.31-2.476.62-1.36.534-1.36.618-2.244-.578a10.201 10.201 0 00-3.658-3.052 10.409 10.409 0 01-3.427-2.688 2.955 2.955 0 01-.706-1.091 3.041 3.041 0 01-.178-1.3zm39.29 5.627c-1.618-1.73-8.989-3.08-11.832-1.927 2.231.408 4.23.169 6.147.548 1.918.38 3.836.915 5.685 1.365v.014zm1.36 31.135l-.367.352 1.618 1.561a40.331 40.331 0 001.578 1.492c.544.478 1.197.998 1.782 1.49 1.224 1.028 1.224 1.042 1.849 1.056l-6.46-5.951zM147.987 23.73l-1.251 1.914a2.87 2.87 0 001.547-.16 2.964 2.964 0 001.255-.952l-1.551-.802z" fill="#141414"/><path d="M232.77 81.413c1.36-2.687 2.652-1.956 3.794-.112.191-.282.354-.521.503-.774.83-1.407 1.7-1.407 2.598 0l.258.337c1.36-.38 2.816-.703 4.216-1.196 1.918-.675 3.781-1.519 5.712-2.18 1.143-.408 2.353-.62 3.536-1.041a6.09 6.09 0 00-2.42-.563 6.234 6.234 0 01-2.054-.52 1.927 1.927 0 01-.988-.918 2.029 2.029 0 01-.168-1.362c.095-1.097.925-1.52 1.727-1.73a29.459 29.459 0 017.113-.732c1.21 0 2.407-.197 3.604-.267 2.53-.127 5.059-.324 7.589-.352h13.287c1.564 0 3.142.099 4.706.197a.954.954 0 00.706-.158c.207-.144.353-.364.409-.616.748-1.998 1.537-3.995 2.312-5.993 1.741-4.53 3.468-9.06 5.249-13.563a107.81 107.81 0 012.476-5.782 9.555 9.555 0 011.278-1.956.847.847 0 01.83-.14.986.986 0 01.285.83 9.827 9.827 0 01-.544 1.73c-1.645 4.15-3.264 8.371-4.937 12.423-1.75 4.446-3.486 8.91-5.208 13.394-.368.957-.653 1.942-.98 2.912-.326.971-.598 1.717-1.808 1.618a2.906 2.906 0 01-.077 1.767 2.793 2.793 0 01-1.079 1.37c-.601.51-1.232.98-1.891 1.407-3.209 1.9-6.473 3.7-9.656 5.628-1.958 1.224-3.835 2.603-5.685 4.024a25.18 25.18 0 01-6.8 3.601c-2.72.971-5.317 2.083-7.956 3.166a48.731 48.731 0 01-10.988 3.517 14.63 14.63 0 00-1.524.408c-.095.76-.176 1.548-.285 2.322-.06.411-.156.816-.286 1.209a1.059 1.059 0 01-.29.54 1.002 1.002 0 01-1.123.204 1.027 1.027 0 01-.45-.406 8.948 8.948 0 01-.721-1.111c-.381.52-.666.984-1.006 1.407-.694.787-1.455.745-1.972-.183a19.176 19.176 0 01-.939-2.167 15.228 15.228 0 01-.448-1.407c-1.36-.112-2.72-.281-4.08-.337a26.281 26.281 0 01-6.08-1.253c-4.42-1.181-8.296-3.63-12.308-5.74a60.349 60.349 0 01-5.44-3.531c-1.808-1.224-3.59-2.518-5.44-3.742a1.023 1.023 0 00-.856-.085 2.644 2.644 0 01-1.715.293 2.693 2.693 0 01-1.536-.841c-1.455-1.407-2.924-2.814-4.311-4.221-3.033-3.208-5.957-6.514-9.017-9.68-4.239-4.648-9.715-7.894-15.735-9.327a34.049 34.049 0 00-8.16-.479 32.037 32.037 0 00-7.657 1.407c-.916.252-1.801.61-2.638 1.07a33.33 33.33 0 00-9.194 6.612c-2.366 2.49-4.814 4.91-7.194 7.4-2.095 2.195-4.148 4.446-6.229 6.655a6.94 6.94 0 01-1.142.97 2.483 2.483 0 01-1.68.66 2.483 2.483 0 01-1.68-.66c-.244-.182-.516-.351-.639-.436l-4.08 2.589c-.843.535-1.673 1.097-2.502 1.646a15.613 15.613 0 01-4.216 2.153c-.133.03-.261.077-.381.14-2.081 1.534-4.57 1.843-6.922 2.589-2.892.79-5.948.647-8.759-.408a92.484 92.484 0 01-6.27-2.223c-2.72-1.07-5.44-2.18-8.16-3.362a32.87 32.87 0 01-3.06-1.717c-.122 0-.244-.14-.367-.183-2.543-.816-4.61-2.546-6.922-3.812l-.735-.38c-.176.478-.34.886-.462 1.308a4.842 4.842 0 01-1.36 2.505c-.213.22-.48.38-.772.458-.293.08-.6.077-.891-.008a1.69 1.69 0 01-.765-.473 1.777 1.777 0 01-.428-.808 6.174 6.174 0 01-.19-3.573v-.281c.57-3.011.517-2.49-1.687-3.855-1.36-.83-2.502-1.815-3.794-2.66-1.673-1.097-3.318-2.25-4.978-3.376-1.659-1.126-3.672-2.56-5.549-3.77-1.36-.859-2.72-1.59-4.08-2.448a38.222 38.222 0 01-3.685-2.603 45.853 45.853 0 01-4.815-4.305 27.341 27.341 0 01-3.318-4.742 9.498 9.498 0 01-.748-2.954c-.217-1.182-.313-2.392-.557-3.574 0-.295-.436-.576-.721-.745-2.353-1.407-4.801-2.631-7.059-4.22a92.954 92.954 0 01-10.104-7.035 5.264 5.264 0 01-1.366-1.77 5.438 5.438 0 01-.525-2.198c-.285-4.418-.612-8.835-.87-13.267a12.7 12.7 0 01.313-2.28c1.36.676 2.407 1.169 3.427 1.788 1.59.97 3.141 2.026 4.705 3.053 1.102.717 2.19 1.407 3.319 2.166a46.61 46.61 0 002.829 1.562c2.08 1.097 4.202 2.152 6.283 3.264 2.312 1.238 4.583 2.617 6.936 3.785 3.169 1.575 6.405 3.038 9.615 4.516.911.422 1.85.745 2.72 1.111 1.523.633 1.877 1.505 1.36 2.955-.517 1.449-1.02 3.08-1.496 4.558a7.206 7.206 0 003.373 2.28l2.57 1.209c.72.338 1.483.619 2.163 1.027a14.82 14.82 0 015.44 5.163 47.143 47.143 0 003.522 4.826c.503.633 1.074 1.224 1.66 1.913l.802-.703c.15-.18.343-.313.56-.387a1.227 1.227 0 011.269.295c.166.163.285.37.347.598.237.703.374 1.438.407 2.181-.01.23.034.46.128.668a1.4 1.4 0 00.416.528c2.979 2.139 5.862 4.404 8.95 6.36a33.956 33.956 0 009.696 4.825c.599.14 1.142.661 1.727.703 2.965.183 5.93.62 8.84-.323a61.405 61.405 0 006.556-2.265c1.936-.998 3.8-2.14 5.576-3.42a12.905 12.905 0 001.931-1.758c1.809-1.758 3.59-3.545 5.44-5.318 1.36-1.407 2.72-2.814 4.08-4.094.884-.858 1.836-1.632 2.72-2.434 1.523-1.308 3.033-2.645 4.624-3.883 1.591-1.238 3.182-2.42 4.841-3.489 1.945-1.252 3.931-2.448 5.971-3.517a32.935 32.935 0 017.072-2.701 48.687 48.687 0 0114.47-1.098 32.104 32.104 0 0111.179 2.898 53.49 53.49 0 018.609 4.924c2.489 1.66 4.719 3.729 7.045 5.628a60.813 60.813 0 012.72 2.293c1.578 1.407 3.128 2.955 4.678 4.46 1.945 1.871 3.808 3.855 5.835 5.628 1.754 1.52 3.699 2.813 5.562 4.22.653.493 1.292 1.013 1.972 1.407 1.197.746 2.394 1.492 3.631 2.153 2.367 1.266 4.76 2.49 7.154 3.686.622.261 1.264.473 1.918.633 1.999.62 3.971 1.266 5.97 1.829a19.6 19.6 0 002.489.422zM203.394 68.4c-.272-.323-.476-.633-.735-.886l-7.262-7.035a2.725 2.725 0 00-.91-.692 2.64 2.64 0 00-1.103-.25c-1.224 0-1.673-.633-1.795-1.956a1.539 1.539 0 00-.449-.9c-1.496-1.407-2.965-2.814-4.556-3.968-2.244-1.702-4.597-3.25-6.99-4.924-.612.69-1.292 1.182-2.163.662a1.964 1.964 0 01-.838-1.023 2.042 2.042 0 01-.018-1.341 40.488 40.488 0 00-8.296-2.926c.258.956.571 1.772-.232 2.335a1.165 1.165 0 01-1.509-.155c-1.007-.816-.435-1.688 0-2.659-2.407-.169-4.651-.38-6.909-.436-1.278 0-2.57.225-3.862.31a1.327 1.327 0 00-.815.201 1.39 1.39 0 00-.545.657 1.68 1.68 0 01-.465.485 1.614 1.614 0 01-1.272.245 1.628 1.628 0 01-.603-.28 1.556 1.556 0 00-.954-.603 1.518 1.518 0 00-1.099.21c-1.7.618-3.359 1.406-5.087 1.884a29.638 29.638 0 00-6.908 3.7c-2.217 1.407-4.244 3.152-6.324 4.77a107.841 107.841 0 00-10.88 9.848c-1.469 1.52-3.02 2.94-4.516 4.418-.34.337-.612.745-.87 1.055l3.89 5.712h.272c1.441.127 1.808.731 1.496 2.18-.053.481.022.968.217 1.407.735 1.745 1.523 3.447 2.353 5.319 4.447-4.376 8.514-9.16 12.838-13.563-.299-1.857 0-2.209 1.592-2.082.34.017.678-.077.965-.267.707-.493 1.36-1.07 2.054-1.59a27.91 27.91 0 011.781-1.252c.612-.394 1.36-.802 1.945-1.196-.108-.342-.199-.69-.272-1.041 0-.465-.109-1.027.422-1.21a2.186 2.186 0 011.36 0c.864.35 1.798.476 2.72.366h.408c.517-.113 1.183 0 1.496-.394.721-.718 1.605-.605 2.407-.774 1.224-.267 2.475-.38 3.699-.577 2.544-.4 5.139-.29 7.643.324.322.105.664.121.993.047a1.91 1.91 0 00.884-.47c.189-.2.427-.346.689-.42a1.47 1.47 0 01.8-.003c.262.074.501.218.691.419.19.2.325.45.391.722.081.258.144.521.19.788a35.697 35.697 0 0112.553 7.808c.625-.436 1.278-.816 1.972-.225.693.591.557 1.674.34 2.575 3.889 3.981 7.412 8.272 11.383 11.986.966-2.25 1.754-4.46 2.829-6.485 1.074-2.026 2.434-3.743 3.645-5.628a1.22 1.22 0 00.231-.886c-.408-1.28.231-1.871 1.088-2.336zm-86.863 5.178c-.245-.577-.422-1-.612-1.407-.408-.873-1.592-1.21-1.36-2.547-.22.09-.429.203-.626.338a28.922 28.922 0 01-10.309 5.98c-1.101.393-2.285.492-3.413.787a19.033 19.033 0 01-9.52-.155 43.168 43.168 0 01-13.505-6.767c-1.89-1.266-3.672-2.73-5.44-4.108a8.172 8.172 0 00-.762-.38c.803 1.773.803 1.9-.49 2.927a1.042 1.042 0 00-.377.558c-.061.224-.048.464.037.68 0 .239.327.436.504.619.32.331.555.74.683 1.19.128.45.146.926.051 1.384a2.854 2.854 0 01-.593 1.242c-.294.356-.67.63-1.093.798l-.653.352a2.69 2.69 0 000 .366c.042.177.097.351.163.52.53 1.238.53 1.238-.34 2.181a2.88 2.88 0 00-.285.295c-.79 1.042-.612 1.773.49 2.448 2.297 1.407 4.555 2.814 6.921 4.094 2.367 1.28 4.774 2.21 7.127 3.391.926.494 1.89.908 2.883 1.238 3.02.929 5.916 2.251 9.03 2.955a13.91 13.91 0 006.501.239 40.396 40.396 0 0011.955-5.05c1.754-1.042 3.522-2.069 5.195-3.25a34.529 34.529 0 003.019-2.688c-1.21-2.28-2.271-4.432-3.481-6.5-.531-.703-.871-1.688-1.7-1.8v.07zM37.814 58.354l-.354.183c-.19-.24-.408-.464-.585-.732a24.404 24.404 0 01-2.72-5.008 7.614 7.614 0 01-.34-6.331 21.276 21.276 0 012.15-4.22c.597-.803 1.277-1.549 1.903-2.35.163-.197.395-.493.354-.704-.163-.886-.408-1.744-.68-2.814-.232.352-.422.507-.408.648.013.396-.09.787-.297 1.121a1.909 1.909 0 01-.86.75 4.4 4.4 0 00-1.686 2.11c-.816 2.11-1.618 4.22-2.502 6.331a6.015 6.015 0 00-.532 3.143 5.953 5.953 0 001.144 2.963 26.814 26.814 0 005.086 5.993c1.36 1.07 2.72 2.223 4.08 3.194 1.89 1.308 3.89 2.448 5.821 3.686 2.23 1.407 4.434 2.814 6.637 4.347 2.203 1.534 4.148 2.814 6.242 4.221 1.741 1.168 3.51 2.293 5.277 3.433.286.169.599.295.911.45.082-.197.163-.31.136-.366-.108-.295-.258-.576-.394-.858a1.454 1.454 0 01-.007-1.775c.13-.167.295-.3.483-.391l.761-.535c-.272-.338-.503-.563-.68-.83-1.278-1.97-.91-3.461 1.102-4.615.142-.066.269-.164.37-.287a1.149 1.149 0 00.078-1.345c-.638-1.407-.597-1.547.463-2.448.612-.534.68-1.083.11-1.632-.83-.788-1.715-1.533-2.53-2.321a16.331 16.331 0 01-2.027-2.167 46.925 46.925 0 01-2.951-4.67 12.737 12.737 0 00-5.168-5.01c-2.475-1.406-5.114-2.461-7.806-3.727l-.653 2.813 1.564-.352c.435-.098.897-.253 1.129.563l-1.143.324c-2.053.605-1.754.281-2.149 2.476v.14c-.136 1.014-.136 1.014-1.197.957a3.27 3.27 0 00-.639.099c.707.675 1.252 1.238 1.836 1.73a11.135 11.135 0 007.154 2.899c.63-.035 1.26-.035 1.89 0 .1.029.19.084.261.16a.611.611 0 01.147.276.645.645 0 01-.112.301.617.617 0 01-.241.205 2.9 2.9 0 01-.925.155c-1.552.106-3.11-.08-4.597-.549-2.607-.704-4.896-2.326-6.474-4.586-1.128-1.801-2.815-1.674-4.406-2.223.02.664.2 1.313.523 1.888a3.951 3.951 0 001.327 1.404c2.135.999 4.23 2.04 6.35 3.025.722.337.708.731.287 1.308l-6.23-3.18.327 1.745a.877.877 0 01-1.053-.142.932.932 0 01-.212-.322c-.897-1.407-1.713-2.814-2.72-4.22a4.199 4.199 0 01-.77-1.669 4.276 4.276 0 01.009-1.849 4.623 4.623 0 000-1.927 3.433 3.433 0 01-.013-1.595c.12-.524.363-1.01.706-1.416.612-.858 1.238-1.73 1.782-2.631.272-.45.653-1.013 0-1.576-.122.929-.3 1.83-1.251 2.04a5.109 5.109 0 00-2.843 2.223 6.805 6.805 0 00-1.632 3.016 6.964 6.964 0 00.028 3.456 14.2 14.2 0 00.734 1.97c.64 1.406 1.36 2.813 2 4.136.258.506.434.999.625 1.491zm194.602 40.069c0-2.688-.217-5.206-.149-7.724.068-2.519.38-5.093.584-7.626a12.522 12.522 0 00-3.318-.985 17.203 17.203 0 01-5.59-1.406 38.22 38.22 0 01-7.996-3.757c-1.986-1.294-4.08-2.448-6.012-3.784-1.36-.957-2.638-2.11-3.957-3.138a8.12 8.12 0 00-1.007-.577 51.536 51.536 0 01-3.644 5.346c-.174.22-.32.461-.436.718-.965 1.829-1.958 3.658-2.896 5.501a6.421 6.421 0 00-.381 1.238c.483.355.938.75 1.36 1.182a18.466 18.466 0 004.882 3.616 175.65 175.65 0 008.391 5.135 48.923 48.923 0 0013.451 5.754c2.2.53 4.467.701 6.718.507zM284.858 75.7a3.956 3.956 0 00-3.577-.394c-2.802.872-5.59 1.843-8.364 2.814a6.665 6.665 0 00-1.17.703 27.138 27.138 0 01-3.332 2.11c-2.053.943-4.202 1.675-6.31 2.505-.83.324-1.646.704-2.489 1.013-.598.225-1.224.366-1.836.549l-.122-.282c.184-.235.394-.447.625-.633a41.059 41.059 0 018.378-3.883 3.602 3.602 0 002.258-1.266c-.762-.9-.449-1.745.38-2.715a13.48 13.48 0 00-1.836.183 17.79 17.79 0 01-6.664.787 11.213 11.213 0 00-2.57 0c-2.571.277-5.111.8-7.589 1.562-1.591.464-3.087 1.252-4.665 1.773-2.271.76-4.556 1.407-6.8 2.082-.829.24-1.36.577-1.36 1.59 0 1.013 0 1.674-.122 2.518a72.137 72.137 0 000 9.23c0 .73-.068 1.617.585 2.194.394 0 .748-.14 1.101-.169 1.16-.002 2.317-.12 3.455-.351 3.373-1.042 6.718-2.195 10.05-3.391 3.332-1.196 6.392-2.378 9.588-3.56a20.73 20.73 0 004.991-2.813c1.836-1.407 3.632-2.814 5.549-4.01 2.516-1.604 5.155-3.053 7.793-4.6a1.087 1.087 0 01-.207-.89c.032-.154.096-.3.188-.426s.21-.23.345-.302a7.54 7.54 0 011.36-.9c.789-.31 1.469-.62 2.367-1.028zM9.648 16.555a20.268 20.268 0 00-.136 2.603c.231 2.603.53 5.191.843 7.78.204 1.773.476 3.517.68 5.29.037.349.144.686.315.99.171.302.402.564.678.769 2.377 2 4.916 3.784 7.589 5.332 2.72 1.575 5.331 3.348 7.997 5.022.448.282.924.507 1.36.774V40.67c0-2.293-.123-4.586 0-6.88 0-1.66.748-1.94 2.08-1.083.295.2.565.436.803.704a7.484 7.484 0 011.904 4.22c0 .422.204.83.313 1.295a35.115 35.115 0 012.067-2.884c.15-.236.367-.419.62-.525.253-.107.531-.133.798-.073.267.059.511.2.7.404.188.205.313.463.357.742.231.676.408 1.407.626 2.097.217 0 .435-.127.666-.17 1.469-.238 2.122.367 2.094 1.9a4.205 4.205 0 01-.707 2.237c-.625.957-1.197 1.956-1.877 2.814-.83 1.154.11 2.364-.203 3.503 0 0 0 .169.095.338a57.3 57.3 0 006.8 1.857 66.184 66.184 0 013.55-13.098c-.6-.225-1.075-.352-1.524-.55-2.407-1.068-4.814-2.123-7.194-3.249a1314.083 1314.083 0 01-8.704-4.22c-1.537-.774-2.951-1.816-4.488-2.603a127.364 127.364 0 01-13.03-7.373c-.978-.66-1.93-1.406-2.896-2.054l-2.176-1.463zM286 71.537h-1.482c-2.87 0-5.753.154-8.623.183h-11.124c-3.21 0-6.42.183-9.629.38-1.782.098-3.563.422-5.331.703-.286 0-.748.422-.721.59.096.381.305.721.598.972.224.154.493.224.762.197h6.8c3.373-.141 6.8-.38 10.132-.563.952 0 1.904 0 2.842-.113a81.081 81.081 0 0111.247-.366h4.08c.164-.731.313-1.252.449-1.983zm-49.599 11.677a7.11 7.11 0 00-1.102-.24c-.952 0-1.183.198-1.156 1.21.021.37.021.742 0 1.112a65.441 65.441 0 00-.353 9.848c.081 1.098.177 2.195.272 3.264h2.244a68.742 68.742 0 01.149-15.194h-.054zM30.442 46.634h.34c.204-.562.395-1.139.613-1.688.302-.873.66-1.724 1.074-2.546.517-.957 1.06-1.857.544-3.01v-.55a64.767 64.767 0 00-1.36-4.08 1.52 1.52 0 00-.453-.66 1.445 1.445 0 00-.717-.324c.735 1.21.952 2.363.136 3.292a4.427 4.427 0 00-.724 1.583 4.507 4.507 0 00-.064 1.751c0 .83.122 1.674.204 2.504.163 1.182.285 2.42.462 3.658l-.055.07zm33.905 33.203a8.328 8.328 0 00-.081 4.756c.405-.276.74-.649.978-1.087a3.23 3.23 0 00.382-1.432c.299-1.547.326-1.547-1.224-2.307l-.055.07zm208.665-4.67l.422 1.885 4.515-1.886h-4.937zm-37.998 27.42h.449l.544-2.153a1.522 1.522 0 00-.925-.316 1.52 1.52 0 00-.925.316c.354.676.626 1.379.911 2.083l-.054.07zM69.324 61.801c.15-.563.11-.943-.407-1.21-.666.774-.15.943.408 1.21zm168.981 39.21h.34l-.082-1.041h-.326l.068 1.041zm-3.713-20.189c.204.718.449.788 1.02.408l-1.02-.408zm37.523 62.665c.318.629.6 1.277.843 1.941a3.07 3.07 0 01-.006 1.603 2.991 2.991 0 01-.81 1.366 2.233 2.233 0 00-.465 1.087 2.27 2.27 0 00.152 1.178c.16.536.177 1.107.047 1.653a3.125 3.125 0 01-.781 1.442 12.993 12.993 0 01-2.176 1.871c-.265.17-.486.403-.644.679a2.05 2.05 0 00-.268.911 3.797 3.797 0 01-.721 1.794 3.618 3.618 0 01-1.495 1.174 12.139 12.139 0 01-5.631 1.858 3.038 3.038 0 00-1.738.679 3.216 3.216 0 00-1.05 1.586c-.965 2.194-1.836 4.445-2.72 6.668a9.617 9.617 0 01-1.673 3.475c-.299.296-.34.915-.489 1.407-.544 1.717-1.469 3.503-3.482 3.532-.979 0-1.89.225-2.652-.816a2.866 2.866 0 01-.622-1.375 2.911 2.911 0 01.16-1.51c.721-1.913 1.55-3.784 2.353-5.627.979-2.35 1.958-4.699 3.046-7.288-1.36-.098-2.462-.155-3.59-.281-1.932-.239-3.876-.394-5.78-.802-3.564-.774-7.113-1.674-10.663-2.575-2.108-.52-4.229-1.027-6.269-1.758-2.421-.873-4.774-1.956-7.14-3.011a6.832 6.832 0 01-1.292-1.098c1.21-2.307 2.325-4.558 3.522-6.739 1.36-2.56 2.897-5.078 4.352-7.611.517-.914.612-1.013 1.618-.731 1.265.323 2.503.801 3.768 1.167a46.912 46.912 0 006.8 1.885 14.512 14.512 0 007.82-1.294c2.992-1.308 6.011-2.532 9.003-3.798a17.995 17.995 0 002.856-1.239 3.963 3.963 0 013.005-.478c1.279.211 2.557.521 3.999.816a1142.09 1142.09 0 013.713-8.061c-.667-.324-1.197-.591-1.741-.816l-8.065-3.293c-.938-.393-1.129-.801-.789-1.857.162-.535.353-1.062.571-1.575.912-2.083 1.877-4.221 2.72-6.261a35.19 35.19 0 001.483-4.488c.585-2.35 1.033-4.727 1.523-7.035.218-1.041.326-1.195 1.36-.942 1.034.253 1.85.661 2.788.942.896.263 1.803.479 2.72.648a3.35 3.35 0 011.863 1.027 5.267 5.267 0 001.782.914c1.21.478 2.434.971 3.672 1.407a13.03 13.03 0 013.223 1.646c.612.394 1.591.169 2.258.746a8.212 8.212 0 002.815 1.238 25.737 25.737 0 014.08 1.899 1.727 1.727 0 01.598 1.28 13.191 13.191 0 01-.272 2.645 38.016 38.016 0 01-2.72 8.16c-1.278 2.814-2.502 5.628-3.753 8.442-.544 1.196-.966 1.407-2.136.985-1.7-.634-3.372-1.407-5.072-1.97-1.252-.478-2.53-.9-3.713-1.323l-2.625 7.147c.396.002.791.03 1.183.085a3.497 3.497 0 011.514 1.084c.402.495.668 1.092.771 1.73.13.674.114 1.37-.049 2.037a4.702 4.702 0 01-.889 1.818zm-53.489 9.201c.381.239.598.394.843.52a56.528 56.528 0 008.337 3.18 139.96 139.96 0 0015.653 3.869c1.551.281 3.101.591 4.665.717 1.972.155 3.958.085 5.93.211a25.623 25.623 0 008.269-.942 16.839 16.839 0 003.413-1.309c.385-.184.714-.472.953-.833.24-.362.38-.783.407-1.221-1.251.113-2.285.887-3.549.633-.021-.29.06-.579.227-.814.167-.234.409-.4.684-.466a19.537 19.537 0 005.304-2.997 2.604 2.604 0 001.004-1.438 2.688 2.688 0 00-.12-1.769 5.558 5.558 0 00-.939.52 13.37 13.37 0 01-4.324 1.928c-.204.07-.599 0-.68-.127a.79.79 0 01.081-.732c.17-.266.411-.476.694-.605 1.115-.506 2.285-.858 3.345-1.406a6.46 6.46 0 002.584-2.42 2.13 2.13 0 00.436-1.446 2.112 2.112 0 00-.626-1.368c-.476.309-.952.886-1.428.872a9.627 9.627 0 00-2.72.774c-.819.244-1.649.441-2.489.591-.258 0-.557-.281-.829-.422v-.352c.476-.211.952-.436 1.36-.619 1.564-.605 3.155-1.125 4.692-1.801a2.976 2.976 0 001.293-.997c.333-.449.54-.986.597-1.549a4.125 4.125 0 00-.257-1.928 4 4 0 00-1.103-1.575 5.65 5.65 0 01-2.298 2.363 11.667 11.667 0 01-3.89 1.041c-2.19.465-4.434.676-6.65 1.013a1.425 1.425 0 01-.932-.029 1.478 1.478 0 01-.728-.604c.15-.76.694-.957 1.36-1.013 1.034-.126 2.068-.183 3.101-.337.382-.041.736-.226.993-.521a5.595 5.595 0 001.115-3.039c-1.958-.394-3.862-1.407-5.807 0-.198.11-.408.195-.626.253l-4.855 2.111c-2.502 1.097-4.95 2.321-7.493 3.25a15.048 15.048 0 01-9.874.365c-2.353-.773-4.692-1.632-7.045-2.434-1.36-.464-1.36-.436-1.958.802a1731.3 1731.3 0 01-5.25 10.158c-.258.661-.53 1.238-.87 1.942zm40.8-34.666c.34.183.598.351.884.478 2.162.943 4.325 1.871 6.487 2.814 2.162.943 4.366 1.927 6.569 2.814a53.756 53.756 0 018.677 4.22.96.96 0 00.843-.084c.235-.217.413-.493.517-.802a247.98 247.98 0 002.72-6.528c.19-.464.367-.943.544-1.407a12.556 12.556 0 01-2.72-.872 23.103 23.103 0 01-2.244-2.012 4.396 4.396 0 00-2.106-.897 4.34 4.34 0 00-2.26.292 25.842 25.842 0 00-3.155 1.857c-1.17.704-1.959.436-2.462-.872a18.492 18.492 0 01-.421-1.773 2.84 2.84 0 00-1.024-1.816 2.659 2.659 0 00-1.955-.576h-.952a3.502 3.502 0 01-2.069-.539 3.684 3.684 0 01-1.412-1.655 16.782 16.782 0 00-1.034-1.745c-1.21 3.095-2.298 6.064-3.427 9.103zm-.871 1.505a78.982 78.982 0 01-.612 2.068c2.503 1.055 4.842 2.026 7.154 3.053 1.537.661 3.006 1.407 4.529 2.139 3.169 1.407 6.351 2.814 9.52 4.136.761.324 1.55.577 2.366.872l.884-2.237c-7.629-3.376-15.463-6.077-22.875-9.848a4.132 4.132 0 00-.966-.183zm-38.936 163.115c-4.202-.127-7.697-.155-11.179-.38-2.162-.141-4.297-.549-6.46-.858a5.432 5.432 0 01-1.033-.31 1.531 1.531 0 01-.84-.559 1.618 1.618 0 01-.33-.974c-.258-3.489-.585-7.035-.857-10.495-.109-1.407-.068-1.407-1.441-1.844a3.44 3.44 0 01-2.122-1.261 3.667 3.667 0 01-.789-2.396c.089-.932.29-1.849.599-2.73a11.17 11.17 0 011.128-2.378c1.864-3.038 1.877-3.024 1.442-6.556-.163-1.294-.381-2.588-.476-3.897a760.526 760.526 0 01-.68-11.156c-.068-1.295 0-2.589 0-3.898 0-.703.462-.97 1.034-1.097 2.08-.422 4.148-.957 6.242-1.21 3.046-.337 6.12-.577 9.18-.661 3.06-.084 5.78 0 8.677.141 2.611.084 5.249.112 7.847.365 2.598.254 4.937.662 7.371 1.154 1.455.295 1.455.605 1.36 2.068-.095 1.463-.204 3.32-.245 4.995-.136 5.416-.231 10.833-.394 16.249-.163 5.417-.612 10.665-.612 16.039 0 2.589-.231 5.135-.449 7.696-.163 1.829-.245 2.152-2.013 2.645a21.574 21.574 0 01-4.406.788c-3.767.225-7.521.365-10.554.52zm10.255-37.986a42.393 42.393 0 01-5.331 6.809 337.944 337.944 0 01-6.583 7.035 33.613 33.613 0 01-8.16 6.443 17.693 17.693 0 01-8.078 2.491c-.939 0-1.102.239-1.088 1.195 0 1.323.313 2.617.353 3.968 0 2.04.286 4.094.395 6.148-.019.282.067.561.242.779.175.217.424.357.696.389.968.24 1.949.419 2.938.534 2.162.155 4.338.239 6.501.324 1.672 0 3.345 0 5.018.098a79.596 79.596 0 0016.769-.689c.517-.084 1.033-.267 1.564-.394.122-1.801.272-3.503.326-5.191a4.632 4.632 0 00-.544-1.407 3.67 3.67 0 00.639-2.054c-.068-2.983 0-5.966.109-8.962a10.162 10.162 0 00-.381-4.221 4.787 4.787 0 01-.149-1.66c0-.661.068-1.323 0-1.97 0-1.139-.15-2.279-.231-3.489-.182.061-.36.136-.531.225-1.36.929-2.149.591-2.448-1.069a11.487 11.487 0 01-.245-1.801c-.081-1.773-.149-3.545-.149-5.332.017-.367.151-.718.381-.999a312.448 312.448 0 003.957-4.966c.531-.69.966-1.407 1.455-2.167a1.238 1.238 0 000-1.336l-8.84 11.48 1.415-.211zm-31.892-10.678c.87 10.819 1.727 21.483 2.597 32.203.791.093 1.59.093 2.38 0a24.157 24.157 0 008.16-3.629 57.369 57.369 0 0010.255-9.497c.802-.957 1.632-1.871 2.461-2.814a41.827 41.827 0 004.162-5.205 3.558 3.558 0 01-1.019-1.132 3.675 3.675 0 01-.463-1.471 19.37 19.37 0 01-.3-2.631v-4.319a41.291 41.291 0 00-6.718.098v3.785c-.177 2.814-.408 5.487-.639 8.23a30.559 30.559 0 01-.381 2.913 1.27 1.27 0 01-.198.676c-.128.201-.31.359-.524.455a1.161 1.161 0 01-.678.083 1.181 1.181 0 01-.613-.314 3.405 3.405 0 01-.979-1.097 17.859 17.859 0 01-1.591-5.909 9.478 9.478 0 00-.735-3.222c-.693.14-.802.633-.856 1.153.028.476-.028.952-.164 1.407-.247.48-.632.868-1.101 1.112-.558.239-1.02-.183-1.36-.732a3.126 3.126 0 01-.354-.745c-.231-.859-.408-1.717-.625-2.575-.218-.858 0-1.505-.708-2.082-.288.127-.544.32-.752.563a2.197 2.197 0 00-.444.844c-.122.449-.31.876-.558 1.266a.957.957 0 01-.387.33.915.915 0 01-.961-.123.973.973 0 01-.298-.418 3.448 3.448 0 01-.19-1.14 128.696 128.696 0 01-.367-4.22c0-.521-.082-.929-.667-1.027l-5.385-.816zm37.699-1.112v-.183c-.598-.07-1.21-.155-1.822-.211-2.72-.267-5.44-.731-8.228-.746a155.318 155.318 0 00-16.32 0 57.62 57.62 0 00-6.569.605c-.925.183-1.863.226-2.802.338a4.63 4.63 0 001.863.507c.993.084 1.986.07 2.965.211 3.903.49 7.839.621 11.764.394 4.325-.183 8.65-.169 12.975-.282 1.577 0 3.155-.183 4.719-.337.491-.061.978-.16 1.455-.296zm-37.536 25.113a9.479 9.479 0 00-2.176 4.798c-.394 2.026.49 3.221 2.625 3.207-.123-2.574-.272-5.149-.435-8.005h-.014zM51.17 172.904c5.78.338 9.52 1.674 12.92 4.432a17.505 17.505 0 015.318 7.808 19.21 19.21 0 01-.952 15.715 22.36 22.36 0 01-6.453 8.021 21.398 21.398 0 01-9.255 4.149c-.843.168-1.687.323-2.53.436a16.06 16.06 0 01-5.78-.493 16.92 16.92 0 01-6.134-2.504c-3.251-2.134-5.787-5.254-7.262-8.934a18.432 18.432 0 01-1.142-8.877 17.68 17.68 0 012.148-7.161c.912-1.604 1.945-3.138 2.938-4.685.153-.288.385-.523.667-.676 1.06-.436 1.645-1.407 2.461-2.152a5.842 5.842 0 012.258-1.407 12.329 12.329 0 001.93-1.126c3.279-1.716 6.706-2.743 8.868-2.546zm-8.8 18.29c-1.128 2.307-2.23 4.614-3.4 6.879a1.574 1.574 0 00.191 1.998c1.36 1.717 2.72 3.489 4.08 5.304l7.888.296c.952-1.506 1.85-2.899 2.72-4.32a14.6 14.6 0 001.034-1.941 1.222 1.222 0 000-.901c-1.007-1.899-2.013-3.784-3.074-5.627a2.229 2.229 0 00-.792-.917 2.13 2.13 0 00-1.139-.349c-2.489-.155-4.95-.338-7.507-.479v.057zm19.231-6.768c-.449-.089-.903-.15-1.36-.182l-5.005-.099a1.045 1.045 0 00-.711.149 1.1 1.1 0 00-.458.583c-.707 1.716-1.428 3.432-2.203 5.107a2.288 2.288 0 00.204 2.349c1.033 1.674 1.985 3.405 3.019 5.093.209.393.554.69.965.83 1.741.197 3.496.225 5.25.394.314.057.637-.003.913-.167.275-.165.487-.424.597-.733.884-1.773 1.754-3.56 2.624-5.304-1.7-2.434-2.366-5.403-3.835-8.02zm-29.92 13.647c1.673 0 3.155 0 4.624.155a1.85 1.85 0 001.27-.265c.38-.239.667-.608.811-1.043.898-1.829 1.972-3.546 2.924-5.347a2.35 2.35 0 00.218-1.406 38.984 38.984 0 00-1.36-4.221 2.22 2.22 0 00-.707-1.14c-1.197-.802-2.462-1.505-3.822-2.321a19.058 19.058 0 00-3.673 7.334 19.453 19.453 0 00-.285 8.254zm29.716-14.645c.395-1.52.748-2.913 1.116-4.306a1.03 1.03 0 00-.032-.68.984.984 0 00-.445-.501 18.064 18.064 0 00-11.804-3.194 1.064 1.064 0 00-.755.254 1.14 1.14 0 00-.388.717c-.19.956-.367 1.913-.557 2.884-.11.506.177.76.544 1.013a15.393 15.393 0 012.72 1.969c1.768 1.914 3.957 1.928 6.229 1.858 1.17-.043 2.216-.014 3.413-.014h-.04zm-10.88 23.171c-2.244 0-4.637-.141-7.017-.169a1.237 1.237 0 00-.925.436c-.599.957-1.115 1.984-1.7 3.025 4.393 2.265 8.772 2.068 13.355.985l-3.713-4.277zm-9.982-22.834c1.945-1.407 3.862-3.025 5.916-4.347 1.686-1.083 1.523-2.715 1.904-4.46-4.713.636-9.009 3.125-11.995 6.95l4.175 1.857zm28.37 8.765a13.85 13.85 0 01-1.55.085 1.322 1.322 0 00-.935.237 1.41 1.41 0 00-.548.818 29.566 29.566 0 01-1.47 3.123c-.394.788-1.128 1.519-1.196 2.307.104.916.362 1.807.762 2.631.217.69.421 1.407.707 2.35 2.434-3.644 4.175-7.161 4.23-11.593v.042zm-10.338-80.193c2.095.633 3.985 1.097 5.794 1.801 1.809.703 3.876 1.759 5.82 2.617 1.36.605 2.72 1.153 4.08 1.702a60.823 60.823 0 0010.88 2.912c.61.152 1.238.213 1.864.183.938-.07 1.142.352 1.36 1.224.11.552.178 1.112.204 1.674.353 4.221.707 8.442 1.02 12.592.082.971 0 1.942 0 2.969-.666.169-1.251.45-1.85-.282-.204-.253-.761-.183-1.156-.281-2.461-.563-4.95-.971-7.344-1.745a56.568 56.568 0 01-6.8-2.813c-2.516-1.168-4.977-2.462-7.452-3.701-.762-.393-1.51-.83-2.285-1.209a16.665 16.665 0 00-9.099-1.647 29.649 29.649 0 00-7.97 2.055 50.726 50.726 0 01-7.153 2.18 5.09 5.09 0 01-2.483-.052 5.2 5.2 0 01-2.182-1.228c-1.836-1.688-2.448-1.646-4.46-.155-1.36.985-2.72 1.843-4.08 2.814-1.36.971-3.115 2.04-4.679 3.053-1.85 1.21-3.713 2.392-5.549 3.616-1.469.985-2.883 2.054-4.352 3.053-1.006.689-2.04 1.407-3.087 1.983-1.047.577-1.36.479-2.08-.422-.409-.548-.749-1.167-1.13-1.744-1.21-1.787-2.475-3.56-3.644-5.389-.803-1.238-.68-1.786.53-2.687 1.822-1.407 3.672-2.701 5.44-4.038l8.35-6.106c1.81-1.308 3.618-2.616 5.44-3.869a1.52 1.52 0 00.578-.591c.137-.248.205-.53.198-.815a21.52 21.52 0 01.843-5.938c.286-.928.598-1.238 1.945-1.899l.816.633c.23.197.449.422.789.746.53-.929.979-1.773 1.482-2.589.394-.724.85-1.412 1.36-2.054a2.2 2.2 0 011.322-.918 2.14 2.14 0 011.575.243c.775-.69 1.482-1.407 2.257-2.012a19.324 19.324 0 012.34-1.674 2.955 2.955 0 012.129-.411 3.031 3.031 0 011.855 1.156c.152.155.326.283.517.38l1.36.816.993-.731c1.537-1.126 3.074-2.279 4.624-3.391 2-1.407 4.08-2.814 6.011-4.22.408-.296.789-.62 1.21-.887a421.83 421.83 0 016.8-4.305c.24-.22.523-.383.829-.48a2.186 2.186 0 011.843.239 2.3 2.3 0 01.688.677 39.237 39.237 0 012.72 3.84 83.981 83.981 0 012.72 4.841c.612 1.125.585 1.238-.422 2.096-.585.506-1.251.928-1.877 1.407l-5.848 4.221c-.992.745-2.23 1.589-3.604 2.56zm-28.913-1.294l-.177-.141a12.451 12.451 0 00-2.013 2.181 34.767 34.767 0 00-1.591 3.826 4.144 4.144 0 00-.082 3.25c.204.507.313 1.056.558 1.534a9.649 9.649 0 002.366 3.011c1.075.914 1.959 2.068 2.992 3.039 1.034.97 2.34 2.04 3.523 3.038.24.21.532.346.843.394a6.817 6.817 0 002.271 0 42.374 42.374 0 005.59-1.646 31.854 31.854 0 0111.016-2.673c2.812-.112 5.61.471 8.16 1.703 1.129.562 2.203 1.294 3.345 1.857 2.204 1.069 4.488 1.969 6.65 3.109a73.383 73.383 0 0012.404 4.741c.761.225 1.55.366 2.394.563-.177-2.814-.381-5.374-.49-7.991-.109-2.617-.136-5.192-.19-7.738-1.36-.211-2.448-.38-3.605-.605-.652-.127-1.278-.422-1.944-.549a43.794 43.794 0 01-10.595-3.278 67.64 67.64 0 00-11.37-4.432 6.812 6.812 0 00-1.55 0c-.394-.253-.693-.576-1.02-.619a1.734 1.734 0 00-.979.366c-.96.68-1.97 1.282-3.02 1.801-1.862.717-3.82 1.168-5.711 1.801a47.636 47.636 0 01-7.739 2.04 1.748 1.748 0 01-1.047 0 13.01 13.01 0 01-2.053-1.548 4.785 4.785 0 01-1.088-3.222 4.608 4.608 0 010-1.927c.37-.836.826-1.628 1.36-2.364.212-.301.48-.556.788-.749.308-.193.65-.321 1.007-.376a7.266 7.266 0 001.768-.661c.707-.366.775-.662.476-1.801-.292.106-.57.248-.83.422-.965.83-1.89 1.125-2.815 0a3.632 3.632 0 00-2.121 1.238 85.58 85.58 0 01-2.081 2.926 4.883 4.883 0 00-1.12 2.363 4.967 4.967 0 00.25 2.618c.526 1.485.98 2.997 1.36 4.53.483.995.65 2.123.475 3.222a6.325 6.325 0 01-1.128-1.843 199.085 199.085 0 01-2.19-7.035 3.67 3.67 0 010-1.491 7.908 7.908 0 011.809-3.391c.761-1.097 1.618-2.138 2.434-3.207l-.231-.226a7.275 7.275 0 00-1.02.802 25.905 25.905 0 00-4.42 6.852 4.414 4.414 0 000 3.799 31.906 31.906 0 003.522 6.781 1.288 1.288 0 01.163 1.604 7.587 7.587 0 01-2.787-3.363c-.626-1.28-1.088-2.673-1.768-3.925a6.011 6.011 0 01-.825-2.851 6.033 6.033 0 01.634-2.903c.544-1.055 1.006-1.886 1.442-2.856zm17.68-6.683l-2.462 1.576.734 1.66c-.775.352-.775.352-1.36-.31-.584-.661-.856-.773-1.523-.154-.204.182-.462.393-.517.633-.23 1.294-1.183 1.8-2.175 2.307-.499.22-.984.469-1.456.746a8.07 8.07 0 00-.979.872c-.666.619-.517 1.505-.734 2.279a2.898 2.898 0 00.024 2.205c.147.346.36.659.628.918.267.26.581.461.925.591.167.074.315.184.435.324a1.23 1.23 0 001.469.253c3.346-1.083 6.691-2.181 10.091-3.095a10.18 10.18 0 005.141-2.448c.395-.408 1.047-.549 1.51-.915 1.06-.844 2.053-1.8 3.142-2.616a260.196 260.196 0 016.174-4.502c.911-.662 1.836-1.295 2.72-1.97-.163-.38-.245-.647-.38-.886-1.211-2.012-2.394-4.052-3.673-6.036-.53-.816-.938-1.815-1.972-2.209l-1.781 1.294c.187.35.342.718.462 1.098a.714.714 0 01-.15.619.807.807 0 01-.72 0 4.638 4.638 0 01-.735-.858 1.805 1.805 0 00-1.05.319c-.31.213-.55.519-.69.876.094.704 1.128 1.21.19 2.026l-1.36-1.406-2.136 1.406c.186.356.34.728.463 1.112a2.514 2.514 0 01-.122.746 2.46 2.46 0 01-.776-.31 5.825 5.825 0 01-.653-.942l-2.61 1.913.829 1.744c-1.197.422-1.21-1.111-2.163-.942l-1.795 1.407c.68 1.547.68 1.547-.095 2.082l-.87-1.407zM6.656 144.499c7.52-5.121 15.096-9.736 22.535-14.927a33.334 33.334 0 00-3.536-1.196 4.177 4.177 0 01-2.058-1.146 4.404 4.404 0 01-1.151-2.104 3.774 3.774 0 00-1.564-2.097l-1.823 1.295c.53 1.294.53 1.294.476 1.984-.952.154-.979-.985-1.686-1.253l-1.36 1.168c0 .732.884 1.112.435 1.857-.68-.112-.68-.112-1.55-.971a3.08 3.08 0 00-1.904 1.407l.421.732c.218.366.476.816 0 1.083-.177.099-.639-.154-.87-.38a4.239 4.239 0 01-.599-.942l-1.985 1.407c.775 1.491.775 1.491.109 2.237l-1.034-1.562-1.972 1.562c.163.745.911 1.097.394 2.012l-1.51-1.407-1.985 1.407 1.075 2.04c-1.483.745-1.36-.999-2.38-1.182l-1.714 1.294c1.7 2.532 3.427 5.009 5.236 7.682zm17.367-30.868c.218.824.23 1.691.035 2.52a5.098 5.098 0 01-1.15 2.222c-.177.168-.15.605-.163.928a19.188 19.188 0 001.156 5.867 2.48 2.48 0 001.102 1.505c1.51.577 3.1.915 4.65 1.407-1.36-1.772-3.06-3.067-3.998-5.065a17.555 17.555 0 01-1.265-2.729 5.683 5.683 0 010-2.349 22.1 22.1 0 01.721-2.35c.218-1.097.055-1.379-1.088-1.956zm109.344 160.556h-7.711c-3.237 0-6.488.197-9.724.267-5.155.113-10.323.183-15.477.281-4.284.071-8.582.183-12.88.226-5.018 0-10.036 0-15.055.112-3.794 0-7.588.239-11.383.31-4.08.07-8.16 0-12.335.098-3.44 0-6.882.155-10.322.211l-6.243.099H22.46c-4.978 0-9.942.183-14.96.239-1.85 0-3.7 0-5.563-.099a2.117 2.117 0 01-.666-.084.584.584 0 01-.286-.408.53.53 0 01.231-.45c.298-.111.61-.173.925-.183l5.563-.085 5.957-.168 9.628-.211 12.893-.226c3.849 0 7.698 0 11.533-.098 2.72 0 5.44-.141 8.16-.197 1.95 0 3.894-.028 5.834-.084l8.677-.085c3.835 0 7.67 0 11.52-.084 2.475 0 4.963-.183 7.452-.225 5.331-.099 10.676-.155 16.007-.225 3.985 0 7.956-.113 11.941-.141 4.597 0 9.207-.071 13.818-.127 1.768 0 3.522-.112 5.29-.155.357-.003.712.059 1.047.183a.697.697 0 01.208.246c.05.098.076.207.078.317a.731.731 0 01-.354.521c-.389.113-.792.17-1.196.168h-2.856l.027.057z" fill="#141414"/><path d="M130.172 82.074c.789-1.14 1.469-2.012 2.869-1.998 1.619 0 3.251-.225 4.869-.267 5.644-.14 11.288-.324 16.946-.338 6.324 0 12.661.155 19.04.211h12.185c.708 0 .803.422.857 1.07a6.907 6.907 0 01-1.36.323c-1.754.127-3.509.225-5.277.281-3.155.099-6.324.17-9.52.197-2.135 0-4.256-.084-6.378 0h-9.52l-11.791.141c-.993 0-1.972.113-2.965.169l-9.452.45a2.664 2.664 0 01-.503-.24zm66.069 53.056h8.392c2.475 0 4.964.155 7.439.211 1.754 0 3.522.099 5.277 0a8.252 8.252 0 001.808-.45c.572.675.599.858.068 1.716-.53.858-1.196 1.871-1.768 2.814-1.618 2.645-3.25 5.29-4.841 7.949-.544.915-.966 1.913-1.523 2.814-.558.9-.544.788-1.605 0l3.481-6.036c-.856 0-1.55-.084-2.244-.07-2.067 0-4.148 0-6.215.155a3.153 3.153 0 01-1.928-.44 3.306 3.306 0 01-1.322-1.516c.314-.068.632-.115.952-.141h10.73a2.03 2.03 0 001.282-.265c.39-.228.698-.579.881-1.001.598-1.196 1.36-2.293 2.216-3.7-.761 0-1.264-.155-1.768-.141l-6.487.085-8.663.084h-2.57a.923.923 0 01-.585-.281c-.408-.479-.775-.999-1.17-1.506l.163-.281zm-101.225 4.318c-.435-5.797-.884-11.593-1.36-17.446l.87-.253a.731.731 0 01.724.085.81.81 0 01.324.675c.136 1.252.245 2.504.353 3.756v1.14c.558 0 1.075.154 1.592.168 4.528.071 9.057.099 13.6.183 2.216 0 4.433.169 6.636.282.626 0 1.252.169 1.932.267-.164.703-.612.718-1.061.732-1.863 0-3.713.14-5.576.14H96.213l.49 4.657c4.256-.013 8.511.218 12.743.69a2.567 2.567 0 01-.986.762 2.46 2.46 0 01-1.217.194l-7.195-.126c-1.074 0-2.149 0-3.386.112 0 .901 0 1.632.163 2.35.136 1.28-.054 2.082-1.809 1.632zm42.664-65.013a5.514 5.514 0 011.978-1.85 5.298 5.298 0 012.591-.654c2.72.084 5.59-.38 8.391-.408 3.754 0 7.508.112 11.261.169 3.754.056 7.249 0 10.88.154 2.067 0 4.08.24 6.215.422 1.224.113 1.224.17 2.204 1.407a4.528 4.528 0 01-1.007.225c-1.931 0-3.862-.169-5.807-.169-2.72 0-5.59.099-8.378 0-2.788-.098-5.44-.253-8.268-.28-2.992 0-5.971 0-8.963.112-1.754 0-3.509.239-5.277.365l-4.991.38-.829.127zm162.369 196.557a7.586 7.586 0 01-1.659.479c-3.196.112-6.406.182-9.602.253l-11.75.239c-3.972.084-7.956.169-11.928.225l-16.143.239c-2.856 0-5.698.113-8.554.169a4.922 4.922 0 01-1.211-.084c-.204 0-.503-.352-.503-.549 0-.197.259-.478.476-.577.296-.111.611-.159.925-.141l11.383-.154 12.349-.225c4.243-.071 8.5-.141 12.743-.183 3.849 0 7.684-.085 11.533-.113 3.849-.028 7.657 0 11.492 0 .068-.042.122.085.449.422zM275.297 52.334h-3.454a5.5 5.5 0 01-1.075 0 .86.86 0 01-.591-.308.921.921 0 01-.211-.649.798.798 0 01.218-.647.753.753 0 01.625-.225c1.251 0 2.502.127 3.767.183.906.073 1.815.073 2.72 0a9.659 9.659 0 014.916.484 9.954 9.954 0 014.087 2.864c.082.085.082.24.204.62-.734-.296-1.36-.493-1.863-.76a11.045 11.045 0 00-4.325-1.407 4.728 4.728 0 00-.503.098c.218.549.449 1.041.626 1.548.241.479.325 1.026.239 1.56a2.52 2.52 0 01-.715 1.394 3.14 3.14 0 01-1.787.254 3.19 3.19 0 01-1.64-.774 3.759 3.759 0 01-1.17-2.448c.041-.493-.014-1-.068-1.787zm3.903 3.32a1.048 1.048 0 00-.149-1.407c-.476-.464-.857-1.182-1.7-.985-.082 1.928.204 2.308 1.849 2.392zm-70.448 67.263h-7.072c-1.536 0-3.073.084-4.61.084-2.298 0-4.597 0-6.895-.127-1.564-.07-1.564-.126-2.027-1.913.231-.095.474-.156.721-.183 5.971 0 11.941-.309 17.898.239 1.373.127 1.713.408 1.985 1.9zm-17.272 5.08h2.584c3.196.127 6.406.225 9.602.408 2.72.155 5.59.38 8.378.619.489-.043.98.069 1.407.32.427.251.771.63.986 1.087a6.787 6.787 0 01-.802.113h-6.909c-3.89-.113-7.766-.296-11.642-.437h-.952c-1.781.029-1.904-.056-2.652-2.11zm-94.003-6.739c.38-.086.767-.138 1.155-.155l27.201.197c-.34 1.407-.694 1.717-1.918 1.702-5.059 0-10.132 0-15.191-.197-3.06-.098-6.134-.464-9.194-.745-.693 0-1.36-.239-2.053-.366v-.436zm179.275-84.443c1.102-.66 1.102-.66 1.714.183l2.584 3.546c.244.337.503.647.788.998 1.143-.83 2.136-1.814 3.523-1.252.432.212.802.537 1.074.943.28.402.463.866.534 1.356.07.49.027.99-.126 1.458-.299 1.125-1.36 1.111-2.203 1.73.68 1 1.36 1.97 1.999 2.955.639.985 1.768 1.407 1.931 2.814a4.052 4.052 0 01-2.72-1.576 16.966 16.966 0 01-3.468-5.487c-.122-.366-.503-.633-.775-.929a35.912 35.912 0 01-4.855-6.739zm8.242 7.19c.598-.816.584-1.689-.082-2.055a1.093 1.093 0 00-1.061.155 1.133 1.133 0 000 1.084c.336.334.721.61 1.143.816zM125.752 89.349c.025-.3.109-.592.245-.858s.323-.502.548-.692c.226-.19.486-.332.766-.416.28-.084.573-.11.862-.074 1.999 0 3.985 0 5.97-.099l12.879-.31h.993a6.603 6.603 0 01-2.431 1.636 6.418 6.418 0 01-2.873.405c-1.659 0-3.332.154-4.991.21h-2.978l-8.99.198zm14.905 5.191l-.789 1.519-17.979.66c0-1.56.299-1.884 1.686-1.955 1.387-.07 3.155-.267 4.733-.281 3.93-.07 7.861-.07 11.777-.099.195.035.386.087.572.155zM15.06 41.782c-.313.591-.258 1.407-1.007 1.942a26.072 26.072 0 00-3.155 3.264c-1.917 2.096-3.808 4.22-5.739 6.303a11.68 11.68 0 01-1.673 1.406.741.741 0 01-.72 0 1.033 1.033 0 01-.286-.354 1.07 1.07 0 01-.109-.448 2.86 2.86 0 01.558-1.252 239.54 239.54 0 014.705-5.22c1.864-1.969 3.768-3.896 5.658-5.824.256-.26.556-.469.884-.619.544-.14.897.14.884.802zm155.598 44.443c1.197 0 2.122-.141 3.06-.155 5.141-.085 10.282-.183 15.436-.211 1.36 0 1.891-.14 2.203 1.576h-1.836c-3.209 0-6.419.084-9.628.168a48.348 48.348 0 00-5.536.366 3.612 3.612 0 01-2.099-.304 3.766 3.766 0 01-1.6-1.44zm-19.025-20.822a12.605 12.605 0 017.643-1.703c1.531.177 3.07.261 4.61.254 2.288.046 4.527.685 6.515 1.857.159.113.305.245.435.394a4.32 4.32 0 01-.925.197c-3.033-.127-6.052-.296-9.085-.394-2.624-.085-5.249-.085-7.874-.14-.435 0-.857 0-1.278-.085l-.041-.38zm-32.369 37.002c.353-1.716.476-1.843 1.876-1.942l14.96-.872h1.469c-.19 1.576-.449 1.871-1.877 1.956-2.937.183-5.875.323-8.812.492-2.027.113-4.08.253-6.08.38-.544.014-1.033-.014-1.536-.014zm62.994 4.347c1.605 0 3.087.169 4.583.211l11.791.295h.952c1.129 0 1.129 0 1.36 1.491-.289.088-.584.15-.884.183a92.136 92.136 0 01-12.621-.126 67.842 67.842 0 00-3.386-.169c-1.414-.028-1.414-.014-1.795-1.885zm-51.816 7.85c-.503 1.505-.585 1.632-1.809 1.618-2.72 0-5.44-.141-8.16-.197h-5.82c-1.66 0-3.305-.169-5.141-.267.239-.43.584-.786 1-1.033a2.652 2.652 0 011.366-.374h6.8l10.962.197.802.056zm49.478-14.716h4.434l11.26.113c.496-.01.992.023 1.483.098a.986.986 0 01.461.125c.142.08.263.193.354.331a1.082 1.082 0 01.11.951 6.008 6.008 0 01-.871.169l-12.757.169h-2.72c-1.509-.127-1.55-.183-1.754-1.956zM52.16 233.204a26.68 26.68 0 01-.435-2.814c-.122-3.7-.177-7.401-.245-11.101-.002-.703.057-1.404.177-2.096.077-.353.257-.672.517-.914a.579.579 0 01.296-.184.581.581 0 01.617.239.618.618 0 01.107.339c.066.503.098 1.011.095 1.519v3.165c0 2.125.204 4.221.286 6.388 0 1.252 0 2.504.109 3.742.108 1.238-.245 1.787-1.523 1.717zm125.108-139.48h1.904c3.019 0 6.038-.169 9.057-.14 2.067 0 4.08.239 6.188.407.531 0 .517.099.843.9a4.352 4.352 0 01-2.339.353 731.51 731.51 0 01-11.084.31h-2.448c-1.455-.127-1.455-.127-2.121-1.83zm7.74 20.61h18.754l.775 1.407-3.332.085h-6.623c-2.788-.085-5.589-.268-8.391-.394-.585.014-1.088-.07-1.183-1.098zM60.742 228.674c-1.264-.45-1.264-1.589-1.36-2.56-.19-2.969-.272-5.951-.408-8.934 0-.731-.408-1.407 0-2.181.096-.154.164-.323.245-.478a.926.926 0 01.86.139.974.974 0 01.29.353c.068.14.102.294.101.451.19 1.196.436 2.391.53 3.587.15 1.815.11 3.644.3 5.459.095.83.068 1.632.095 2.448a2.11 2.11 0 01-.13.938 2.05 2.05 0 01-.523.778zm32.751-88.873l-1.66.084c-.203-1.646-.502-3.208-.597-4.783-.218-3.785-.368-7.57-.517-11.354 0-.985 0-.985.789-1.576.12.396.216.801.285 1.21.544 4.783 1.075 9.572 1.591 14.364.068.634.068 1.281.11 2.055zm121.408 13.013l-1.456-.661c.136-.408.295-.807.476-1.196 2.367-4.361 4.72-8.722 7.113-13.07.231-.45.449-1.294 1.088-.956.857.45 0 1.069-.177 1.505-1.523 3.081-3.114 6.106-4.651 9.173-.598 1.196-1.101 2.462-1.659 3.686-.204.45-.435.9-.734 1.519zm-99.676-43.136c.557-1.505.707-1.632 1.849-1.632h8.813c1.673 0 3.332-.225 4.991-.338a6.927 6.927 0 012.802.085c-.109.661-.517.802-.993.844-2.72.239-5.44.492-8.092.689-1.945.141-3.876.239-5.821.31-1.169.07-2.325.042-3.549.042zM43.199 215.126c.233.286.422.609.558.957.149.679.23 1.372.244 2.068v8.737c0 .745-.666 1.561-1.142 1.561-.476 0-.789-.562-.884-1.533a23.065 23.065 0 01.15-5.389c.217-1.505.122-3.053.244-4.572a9.507 9.507 0 01.517-1.787l.313-.042zM14 53.388c.066-.393.152-.783.258-1.167.653-2.167 1.36-4.348 2-6.514a9.485 9.485 0 01.72-1.506.954.954 0 01.22-.31.919.919 0 01.688-.244c.125.01.246.045.357.104.544.225.503.76.367 1.196-.353 1.252-.761 2.49-1.17 3.728-.489 1.492-1.006 2.969-1.509 4.46 0 .225-.095.464-.163.69-.163.534-.49.97-1.06.844-.572-.127-.708-.662-.708-1.28zm-1.564-15.941a5.46 5.46 0 01-.87.816c-2.054 1.267-4.08 2.519-6.188 3.743a5.438 5.438 0 01-1.36.59.803.803 0 01-.666-.074.84.84 0 01-.254-.236.873.873 0 01-.141-.322 1.352 1.352 0 01.313-1.084c.448-.392.947-.72 1.482-.97 1.809-.971 3.604-1.956 5.44-2.814.68-.366 1.51-.732 2.244.351zm158.929 235.404c.245-.717.83-.703 1.36-.717h11.506c.897 0 1.237 0 1.605 1.209a5.313 5.313 0 01-1.02.197l-10.132.127h-1.891a1.321 1.321 0 01-.845-.162 1.386 1.386 0 01-.583-.654zm15.748.394l.313-1.407h8.922c.333-.048.673-.007.987.118.314.126.592.332.808.599-.123.704-.612.774-1.129.788h-9.316a4.303 4.303 0 01-.585-.098zm-121.311-58.71c0 .309-.136.957-.3 1.576a.748.748 0 01-.319.522.697.697 0 01-.591.083 1.06 1.06 0 01-.375-.317 1.107 1.107 0 01-.197-.457c-.217-1.407-.367-2.814-.516-4.291a2.765 2.765 0 010-1.112c.122-.351.34-.816.625-.914.53-.197.952.155 1.143.703.088.259.143.529.163.802.15 1.027.245 2.04.367 3.405zM286 58.917a3.475 3.475 0 01-.816.661c-.553.191-1.116.351-1.686.479a91.59 91.59 0 00-3.346 1.07c-.802.266-1.36.182-1.482-.367-.123-.548.299-1.055.829-1.21 1.85-.548 3.713-1.069 5.59-1.533a.724.724 0 01.702.183.766.766 0 01.209.717zM35.243 211.101c.178.404.306.829.38 1.266v4.136c.041.365.041.733 0 1.098a11.87 11.87 0 01-.543 1.547 1.477 1.477 0 01-.89-.607 1.572 1.572 0 01-.266-1.067c.109-1.674.19-3.362.34-5.023.086-.484.228-.956.421-1.406l.558.056zm253.34-168.883c.653-.155 1.061-.211 1.265.605.312 1.238.829 2.434 1.183 3.672.081.281-.136.647-.204.97a5.226 5.226 0 01-.898-.407c-.136-.085-.19-.31-.245-.479-.367-.998-.775-1.97-1.088-2.982a5.134 5.134 0 01-.013-1.379zM164.837 7.453l3.468 1.407a6.64 6.64 0 01-3.576-1.167l.108-.24zm56.604 17.839l.898.324-.096.267-.87-.366.068-.225zM162.784 7.411l-.653-.126V7.06h.693l-.04.351z" fill="#141414"/><path d="M174.48 119.907a1.094 1.094 0 01.391.741 1.118 1.118 0 01-.241.807c-.762 1.688-1.51 3.376-2.326 5.036-1.36 2.702-2.72 5.375-3.985 8.076-1.21 2.462-2.366 4.938-3.577 7.4-.693 1.407-1.36 2.814-2.148 4.221 0 .112-.136.239-.191.366-1.509 4.009-3.713 7.667-5.576 11.494-1.7 3.503-3.441 6.964-5.168 10.453-.381.788-.353 1.857-1.36 2.237-.272 2.209-1.659 3.94-2.516 5.895-.979 2.237-2.108 4.404-3.196 6.599-.253.387-.54.749-.857 1.083-.707-.31-.952-.774-.666-1.407a91.86 91.86 0 011.442-3.152c1.224-2.49 2.448-4.98 3.699-7.442.925-1.801 1.917-3.574 2.856-5.36.204-.394.299-.858.489-1.266.599-1.309 1.184-2.603 1.823-3.884.952-1.899 1.958-3.77 2.91-5.627 1.369-2.814 2.729-5.595 4.08-8.343 1.197-2.434 2.326-4.91 3.55-7.33.829-1.632 1.822-3.18 2.638-4.826 1.034-2.054 1.945-4.22 2.951-6.26.857-1.745 1.782-3.461 2.72-5.178.653-1.224 1.36-2.42 1.986-3.629l.272-.704zM147.988 23.73l1.55.802a2.955 2.955 0 01-1.254.952 2.86 2.86 0 01-1.548.16l1.252-1.913zM204.4 57.72l1.646 1.112-1.646-1.14v.029zm0-.027l-.843-.394.176-.281.653.703.014-.028zM203.393 68.4c-.857.535-1.496 1.126-1.034 2.265a1.225 1.225 0 01-.231.887c-1.21 1.885-2.584 3.672-3.645 5.627-1.061 1.956-1.863 4.221-2.829 6.486-3.971-3.714-7.493-8.005-11.383-11.987.218-.9.531-1.857-.34-2.574-.87-.718-1.36-.211-1.972.225a35.688 35.688 0 00-12.553-7.808 5.895 5.895 0 00-.19-.788 1.595 1.595 0 00-.39-.723 1.519 1.519 0 00-.691-.418 1.473 1.473 0 00-.8.002c-.262.074-.5.22-.689.421a1.91 1.91 0 01-.884.47 1.87 1.87 0 01-.993-.048 19.433 19.433 0 00-7.643-.323c-1.224.197-2.476.31-3.7.577-.802.168-1.686 0-2.407.773-.313.324-.979.282-1.496.394h-.408a5.498 5.498 0 01-2.72-.365 2.186 2.186 0 00-1.36 0c-.53.182-.476.745-.421 1.21.076.366.171.727.285 1.083-.653.394-1.36.773-1.945 1.196-.584.422-1.196.816-1.781 1.252-.585.436-1.36 1.097-2.054 1.59a1.61 1.61 0 01-.965.267c-1.564-.127-1.891.225-1.592 2.082-4.324 4.404-8.391 9.187-12.838 13.563-.83-1.872-1.618-3.574-2.353-5.319a2.734 2.734 0 01-.217-1.407c.312-1.406 0-2.053-1.496-2.18h-.272l-3.89-5.712c.258-.31.53-.718.87-1.055a133.887 133.887 0 004.516-4.418 107.828 107.828 0 0110.88-9.848c2.08-1.618 4.08-3.363 6.324-4.77a29.658 29.658 0 016.908-3.7c1.728-.548 3.387-1.266 5.087-1.885a1.521 1.521 0 011.1-.21c.379.073.718.288.953.604a1.59 1.59 0 001.875.035c.185-.128.343-.293.465-.485a1.39 1.39 0 01.545-.657c.245-.154.53-.224.815-.201 1.292-.085 2.584-.338 3.862-.31 2.258 0 4.502.267 6.909.436-.476.97-1.047 1.843 0 2.66a1.165 1.165 0 001.509.155c.803-.564.49-1.408.232-2.337a40.488 40.488 0 018.296 2.927c-.145.435-.139.91.018 1.34.156.432.453.794.838 1.023.871.521 1.551 0 2.163-.66 2.393 1.673 4.746 3.221 6.99 4.923 1.591 1.21 3.06 2.617 4.556 3.968.245.238.403.556.449.9.122 1.323.571 1.956 1.795 1.956.381.002.757.088 1.103.25.347.163.657.398.91.692l7.262 7.035c.191.21.395.52.667.914zm-14.865-4.516a1.317 1.317 0 00-.558.069 1.36 1.36 0 00-.484.296 1.442 1.442 0 00-.44 1.042c.063.48.295.919.651 1.233.356.314.812.48 1.28.47a1.153 1.153 0 00.906-.421 1.246 1.246 0 00.277-.986 1.675 1.675 0 00-.429-1.268 1.587 1.587 0 00-.549-.386 1.53 1.53 0 00-.654-.12v.071zm-36.434-8.68a1.705 1.705 0 00-.456-1.202 1.562 1.562 0 00-1.149-.501c-.189 0-.377.04-.55.118a1.36 1.36 0 00-.458.338 1.422 1.422 0 00-.352 1.078c.028.468.231.906.566 1.22.336.316.776.484 1.229.468.775-.098 1.197-.633 1.17-1.59v.07zm32.952.703a1.768 1.768 0 00-.507-1.179 1.66 1.66 0 00-1.152-.495c-.346.021-.671.18-.909.44a1.43 1.43 0 00-.369.967c.079.414.292.788.603 1.061.311.274.703.43 1.11.444a1.11 1.11 0 00.91-.356 1.218 1.218 0 00.314-.952v.07zm-41.262-6.415a1.168 1.168 0 00-.9.425 1.28 1.28 0 00-.283.981c.013.424.18.827.467 1.13a1.61 1.61 0 001.083.503 1.194 1.194 0 00.891-.435 1.292 1.292 0 00.292-.972 1.686 1.686 0 00-.432-1.186 1.59 1.59 0 00-.509-.374 1.548 1.548 0 00-.609-.143v.07zm17.286-.859a1.687 1.687 0 00-.471-1.056 1.582 1.582 0 00-1.025-.477 1.181 1.181 0 00-.865.362 1.258 1.258 0 00-.359.89c.054.418.242.805.532 1.1a1.81 1.81 0 001.072.532 1.21 1.21 0 00.469-.145 1.29 1.29 0 00.605-.77 1.33 1.33 0 00.042-.506v.07zm7.656 5.262a1.563 1.563 0 00.348 1.113c.127.152.282.276.456.365.173.09.363.142.556.154a1.23 1.23 0 00.854-.373c.227-.233.36-.548.37-.879a1.588 1.588 0 00-.383-1.062 1.492 1.492 0 00-.977-.514c-.911-.126-1.21.226-1.224 1.126v.07zm-9.302 4.362c.857 0 1.442-.422 1.469-1.084a1.584 1.584 0 00-.37-1.083 1.48 1.48 0 00-.99-.52 1.163 1.163 0 00-.871.313 1.23 1.23 0 00-.38.868c.002.339.117.666.325.927.208.261.497.44.817.508v.07zm33.102 17.037a1.146 1.146 0 00-.838.457 1.243 1.243 0 00-.236.95c.025.39.194.754.473 1.016a1.42 1.42 0 001.023.39 1.134 1.134 0 00.818-.409 1.207 1.207 0 00.27-.898 1.755 1.755 0 00-.498-1.028 1.652 1.652 0 00-1.012-.478zm-53.121-13.928a1.331 1.331 0 00-.059-.536 1.297 1.297 0 00-.266-.463 1.245 1.245 0 00-.428-.309 1.2 1.2 0 00-.512-.099 1.118 1.118 0 00-.46.069 1.158 1.158 0 00-.666.643 1.242 1.242 0 00-.098.47 1.453 1.453 0 00.31 1.033 1.364 1.364 0 00.928.5 1.083 1.083 0 00.94-.332 1.186 1.186 0 00.311-.976zm57.31 6.5c-.775 0-1.36.45-1.278 1.083 0 .373.143.731.398.995s.601.412.962.412a1.027 1.027 0 00.941-.288 1.104 1.104 0 00.31-.964c0-.178-.034-.354-.102-.518a1.31 1.31 0 00-.292-.433 1.257 1.257 0 00-.434-.279 1.225 1.225 0 00-.505-.079v.07zm-19.203-8.174a1.135 1.135 0 00-.803.305 1.21 1.21 0 00-.38.792c.009.388.15.761.399 1.052.249.291.589.481.961.538a1.057 1.057 0 00.795-.3 1.139 1.139 0 00.347-.798 1.61 1.61 0 00-.343-1.098 1.512 1.512 0 00-.976-.562v.07zm-41.276-6.852c.037.387.213.745.492 1.006.279.26.642.403 1.018.401.544 0 .87-.563.938-1.294.068-.732-.843-1.28-1.673-1.28-.53.013-.802.421-.775 1.097v.07zm-6.555 8.948c0-.915-.49-1.491-1.238-1.407-.157.003-.312.04-.455.108a1.15 1.15 0 00-.608.706 1.22 1.22 0 00-.052.48 1.7 1.7 0 00.422 1.012c.247.279.577.463.938.522.321-.065.605-.258.791-.536.185-.279.258-.622.202-.955v.07zm-8.704 8.174c.334.04.671-.051.945-.254a1.41 1.41 0 00.537-.843 1.34 1.34 0 00-.359-.88 1.26 1.26 0 00-.838-.4 1.43 1.43 0 00-.888.373 1.52 1.52 0 00-.472.864c-.095.521.354.985 1.075 1.07v.07zm8.69-1.984a1.316 1.316 0 00-.311-.974 1.26 1.26 0 00-.407-.312 1.213 1.213 0 00-.492-.12c-.293.01-.57.135-.777.349a1.215 1.215 0 00-.338.804c.038.36.193.695.441.95.247.257.571.418.919.457.282-.035.541-.183.721-.41.18-.23.267-.52.244-.814v.07zm-2.108 7.457c0-.886-.367-1.407-1.142-1.407-.316 0-.62.128-.847.357-.226.228-.356.54-.364.867 0 .492.939 1.21 1.496 1.182a.863.863 0 00.638-.308.924.924 0 00.219-.692zm-63.158 4.333c1.55.76 1.523.76 1.36 2.237a3.204 3.204 0 01-.382 1.432 3.083 3.083 0 01-.978 1.087 8.327 8.327 0 010-4.756zm170.667 22.749c-.286-.703-.558-1.407-.857-2.138.267-.206.592-.317.925-.317.333 0 .657.111.925.317l-.544 2.152-.449-.014zM69.324 61.802c-.558-.267-1.075-.464-.408-1.21.517.267.558.647.408 1.21zm168.98 39.211l-.068-.971h.327l.081 1.041-.34-.07zm-3.712-20.19l1.02.408c-.571.38-.816.31-1.02-.408zm-4.719 163.819l-1.36.155 8.84-11.481a1.24 1.24 0 010 1.337c-.489.717-.925 1.477-1.455 2.166a323.15 323.15 0 00-3.958 4.967c-.229.28-.363.632-.381.999 0 1.786.068 3.559.15 5.332.034.606.116 1.208.245 1.801.299 1.66 1.101 1.997 2.448 1.069a3.68 3.68 0 01.53-.225c.082 1.21.177 2.349.231 3.489v1.97c-.047.558.004 1.12.15 1.66.422 1.361.552 2.802.381 4.22 0 2.997-.177 5.98-.109 8.962a3.665 3.665 0 01-.639 2.054c.256.435.44.91.544 1.407 0 1.689-.204 3.391-.327 5.192-.53.126-1.047.309-1.564.394a79.59 79.59 0 01-16.768.689c-1.673-.098-3.346 0-5.019-.098-2.162-.085-4.338-.169-6.501-.324a23.316 23.316 0 01-2.937-.535 1.053 1.053 0 01-.696-.388 1.12 1.12 0 01-.242-.779c-.109-2.054-.354-4.109-.395-6.149 0-1.406-.326-2.644-.353-3.967 0-.957.149-1.182 1.088-1.196a17.666 17.666 0 008.064-2.42A33.613 33.613 0 00218 258.5a390.372 390.372 0 006.583-7.035 42.438 42.438 0 005.29-6.823zm-26.765 27.054l.095-.379-.992-.211v.379l.897.211zm31.43 4.545h-.191v.619h.15l.041-.619z" fill="#fff"/><path d="M197.98 233.963l5.318.9c.585.099.639.507.666 1.027.091 1.388.214 2.795.368 4.221.043.377.149.743.312 1.083.061.165.164.31.298.419a.915.915 0 001.348-.208c.248-.389.436-.816.558-1.266.086-.312.237-.6.445-.843.207-.243.463-.436.751-.564.667.577.517 1.407.708 2.082.19.676.394 1.717.625 2.575.085.264.204.515.354.746.285.548.748.971 1.36.731a2.585 2.585 0 001.101-1.111 4.08 4.08 0 00.164-1.407c0-.521.163-1.013.856-1.154.431 1.02.68 2.111.735 3.222a17.846 17.846 0 001.591 5.909c.245.436.579.81.979 1.097.17.165.383.274.613.315.229.041.465.012.678-.084a1.2 1.2 0 00.524-.454 1.27 1.27 0 00.198-.677c.177-.971.299-1.941.381-2.912.231-2.744.462-5.473.639-8.231.082-1.195 0-2.405 0-3.784a41.179 41.179 0 016.718-.099v4.32c.04.883.14 1.762.3 2.63.049.52.207 1.022.463 1.471.256.45.604.836 1.019 1.132a41.764 41.764 0 01-4.162 5.206c-.829.928-1.659 1.843-2.461 2.814a57.404 57.404 0 01-10.227 9.482 24.196 24.196 0 01-8.16 3.63c-.791.092-1.59.092-2.38 0-.952-10.664-1.809-21.399-2.68-32.218zm37.7-1.096a9.495 9.495 0 01-1.523.351c-1.564.155-3.142.296-4.719.338-4.325.113-8.65.099-12.975.282a64.515 64.515 0 01-11.764-.394c-.979-.141-1.972-.127-2.965-.211a4.63 4.63 0 01-1.863-.507c.938-.112 1.877-.155 2.802-.338a57.623 57.623 0 016.568-.605 155.318 155.318 0 0116.32 0c2.72 0 5.44.479 8.228.746.612 0 1.225.141 1.823.211l.068.127zm-37.522 25.113c.163 2.814.313 5.431.449 8.005-2.135 0-3.019-1.181-2.625-3.207a9.479 9.479 0 012.176-4.798zM42.37 191.137c2.558.14 5.02.323 7.48.394a2.13 2.13 0 011.14.349c.341.224.615.541.792.917 1.06 1.871 2.067 3.756 3.074 5.627a1.22 1.22 0 010 .901 14.585 14.585 0 01-1.034 1.941c-.87 1.407-1.768 2.814-2.72 4.32l-7.888-.296a249.797 249.797 0 00-4.08-5.304 1.575 1.575 0 01-.19-1.998c1.197-2.237 2.257-4.544 3.427-6.851zm19.23-6.71c1.36 2.617 2.08 5.628 3.862 8.019-.87 1.745-1.741 3.532-2.625 5.304-.11.309-.321.569-.597.733a1.322 1.322 0 01-.913.168c-1.754-.169-3.508-.197-5.25-.394a1.732 1.732 0 01-.965-.83c-1.033-1.689-1.985-3.419-3.019-5.093a2.29 2.29 0 01-.204-2.35c.775-1.674 1.496-3.39 2.203-5.107.083-.243.245-.449.458-.583.213-.133.465-.186.712-.148l5.005.098c.447.033.892.094 1.332.183zm-29.92 13.646a19.45 19.45 0 01.329-8.299 19.04 19.04 0 013.75-7.345c1.36.816 2.625 1.519 3.822 2.321.345.294.593.692.707 1.14.476 1.406.925 2.813 1.36 4.22.075.481-.001.974-.217 1.407-.952 1.801-2.027 3.517-2.924 5.346a1.957 1.957 0 01-.812 1.044c-.38.239-.83.332-1.27.265-1.55-.071-3.032-.057-4.745-.099zm29.758-14.646H58.12c-2.271 0-4.461 0-6.23-1.857a15.446 15.446 0 00-2.72-1.97c-.366-.253-.652-.506-.543-1.013.19-.97.367-1.927.557-2.884a1.14 1.14 0 01.388-.717c.212-.18.481-.27.755-.253 4.17-.344 8.33.781 11.805 3.193a.99.99 0 01.445.502c.087.216.098.457.03.68-.42 1.407-.774 2.8-1.169 4.319zM50.584 206.6l3.713 4.221c-4.584 1.083-8.963 1.28-13.356-.985.585-1.041 1.102-2.068 1.7-3.025.117-.135.26-.243.419-.318.159-.075.331-.115.506-.118 2.38.085 4.774.169 7.018.225zm-10.049-22.834l-4.176-1.857c2.987-3.825 7.282-6.314 11.996-6.95-.381 1.745-.218 3.377-1.904 4.46-2.054 1.28-3.972 2.856-5.916 4.347zm28.368 8.723c0 4.431-1.795 7.949-4.23 11.55-.285-.957-.489-1.66-.706-2.349a8.13 8.13 0 01-.762-2.631c0-.788.802-1.52 1.197-2.308a29.38 29.38 0 001.469-3.123c.08-.332.275-.623.548-.817.273-.195.605-.279.934-.238.518.001 1.036-.027 1.55-.084z" fill="#fff"/><path d="M158.961 20.439a4.507 4.507 0 01-1.794 1.798 4.309 4.309 0 01-2.449.51 7.275 7.275 0 01-3.047-.943c-1.115-.591-1.142-1.407-.149-2.125a4.677 4.677 0 012.251-1.19 4.581 4.581 0 012.522.177c1.007.408 2.122.493 2.666 1.773zm-3.169-.915a3.28 3.28 0 00-2.042-.049 3.386 3.386 0 00-1.698 1.175 3.32 3.32 0 001.254.805c.47.168.971.224 1.466.166.299-1.45.299-1.45 1.02-2.097zm1.17.197l-.15.155.68.985.517-.506-1.047-.634zm-2.882 10.284c-1.183-.436-2.203-.76-3.168-1.21-.218-.098-.463-.717-.354-.886.843-1.407 1.754-2.814 2.72-4.305.068-.113.313-.127.666-.24.319 2.2.365 4.43.136 6.641zm8.527-4.53a3.753 3.753 0 01-.857 1.216 3.61 3.61 0 01-1.249.77 3.521 3.521 0 01-2.844-.2 6.396 6.396 0 01-1.36-.674c-.476-.394-.435-.873 0-1.28 1.931-1.562 4.325-2.055 6.31.168zm-3.087 1.168l-1.006-1.703-1.605.929c.356.315.773.548 1.224.681a3.16 3.16 0 001.387.093zm-4.678 7.275c.748-.605 1.36-1.041 1.904-1.562.544-.52.965-1.111 1.591-1.857.272 1.505-.666 2.026-1.292 2.673-.244.35-.589.61-.985.743a1.907 1.907 0 01-1.218.003zm13.002-7.922c.081-1.238.149-2.265.217-3.376.748-.225.898.478 1.088.985.259.717-.272 1.73-1.305 2.391zm20.686 37.818a1.535 1.535 0 011.208.51 1.677 1.677 0 01.424 1.277 1.257 1.257 0 01-.277.987c-.113.133-.252.24-.408.313a1.148 1.148 0 01-.498.107 1.866 1.866 0 01-1.292-.486 1.992 1.992 0 01-.639-1.259 1.444 1.444 0 01.425-1.07 1.323 1.323 0 011.057-.379zm-36.435-8.682c0 .957-.394 1.491-1.197 1.52a1.706 1.706 0 01-1.228-.468 1.822 1.822 0 01-.567-1.22 1.465 1.465 0 01.066-.578 1.41 1.41 0 01.744-.839c.173-.078.361-.118.55-.117a1.591 1.591 0 011.167.49 1.676 1.676 0 01.465 1.212zm32.952.705a1.217 1.217 0 01-.271 1.02 1.142 1.142 0 01-.433.31 1.104 1.104 0 01-.52.077 1.78 1.78 0 01-1.149-.498 1.898 1.898 0 01-.565-1.148c0-.359.132-.704.369-.966.238-.262.563-.42.91-.44.426.006.835.179 1.143.484.307.306.492.72.516 1.161zm-41.263-6.417c.411.012.801.186 1.09.487.289.302.454.707.461 1.132.019.174.002.35-.048.518-.05.167-.134.322-.245.454a1.23 1.23 0 01-.401.314c-.153.075-.32.116-.489.12a1.61 1.61 0 01-1.084-.502 1.718 1.718 0 01-.467-1.13 1.254 1.254 0 01.289-.972 1.166 1.166 0 01.894-.42zm17.288-.857a1.307 1.307 0 01-.274.944 1.26 1.26 0 01-.376.318c-.145.08-.303.129-.466.144a1.811 1.811 0 01-1.072-.531 1.918 1.918 0 01-.532-1.1 1.283 1.283 0 01.359-.891 1.176 1.176 0 01.865-.362c.377.024.735.186 1.008.456.274.27.447.632.488 1.022zm7.655 5.262c0-.887.354-1.252 1.115-1.196.377.039.725.222.977.514.252.292.389.67.383 1.062-.01.33-.143.645-.37.878a1.234 1.234 0 01-.854.374 1.446 1.446 0 01-.942-.556 1.543 1.543 0 01-.309-1.076zm-9.302 4.362a1.422 1.422 0 01-.848-.532 1.508 1.508 0 01-.308-.974 1.229 1.229 0 01.38-.868 1.137 1.137 0 01.871-.314c.39.036.75.229 1.004.536.255.308.382.707.356 1.11 0 .62-.599 1.055-1.455 1.041zm33.103 17.106c.386.037.747.212 1.023.494.275.282.447.655.486 1.054a1.208 1.208 0 01-.269.898 1.119 1.119 0 01-.819.41 1.43 1.43 0 01-1.023-.39 1.529 1.529 0 01-.473-1.017 1.25 1.25 0 01.218-.978 1.18 1.18 0 01.379-.332c.148-.08.311-.128.478-.139zm-53.123-13.927a1.192 1.192 0 01-.323.957 1.112 1.112 0 01-.428.273 1.08 1.08 0 01-.5.05 1.362 1.362 0 01-.928-.5 1.453 1.453 0 01-.31-1.033 1.2 1.2 0 01.367-.862 1.15 1.15 0 01.857-.32 1.204 1.204 0 01.951.417 1.306 1.306 0 01.314 1.018zm57.311 6.429c.333-.027.664.083.919.308.255.224.413.543.441.888.027.174.013.353-.041.521-.053.168-.146.32-.269.443a1.028 1.028 0 01-.941.288c-.361 0-.707-.148-.962-.412a1.432 1.432 0 01-.398-.995c-.055-.59.476-1.04 1.251-1.04zm-19.203-8.175c.378.042.727.229.978.523.252.294.388.674.382 1.067a1.143 1.143 0 01-.347.798 1.057 1.057 0 01-.795.3 1.577 1.577 0 01-.961-.538 1.678 1.678 0 01-.399-1.053 1.21 1.21 0 01.366-.777c.211-.203.488-.317.776-.32zm-41.277-6.851c0-.675.245-1.083.776-1.097.829 0 1.74.577 1.672 1.28-.068.703-.394 1.294-.938 1.294-.387 0-.759-.152-1.04-.427a1.585 1.585 0 01-.47-1.05zm-6.554 8.949c.032.328-.059.657-.254.918a1.24 1.24 0 01-.793.488 1.603 1.603 0 01-.939-.521 1.707 1.707 0 01-.421-1.012 1.219 1.219 0 01.284-.9 1.15 1.15 0 01.376-.286c.143-.069.298-.105.455-.108.802-.07 1.306.506 1.292 1.42zm-8.703 8.174c-.721-.099-1.17-.549-1.129-1.14.058-.335.224-.64.471-.864a1.43 1.43 0 01.889-.374c.318.021.617.164.838.4.222.237.35.551.359.88-.071.33-.254.623-.516.824a1.33 1.33 0 01-.912.274zm8.688-1.985a1.18 1.18 0 01-.234.845 1.077 1.077 0 01-.745.421 1.514 1.514 0 01-.919-.456 1.613 1.613 0 01-.441-.95c.01-.303.131-.59.338-.804.207-.214.485-.34.777-.35.327.007.639.147.868.389.228.242.356.567.356.905zm-2.107 7.528a.944.944 0 01-.214.701.88.88 0 01-.643.312c-.558 0-1.469-.69-1.496-1.182.007-.327.138-.638.364-.867a1.19 1.19 0 01.846-.357c.776.07 1.143.52 1.143 1.393zm138.475 3.883l-.748-1.407c.748-.098.748-.098.748 1.407zM24.351 39.968a25.226 25.226 0 01-2.584-1.309c-2.366-1.533-4.706-3.137-7.058-4.713a3.239 3.239 0 01-1.088-1.11 3.372 3.372 0 01-.463-1.507c-.231-2.56-.544-5.107-.748-7.681.047-.664.165-1.32.354-1.956.857.45 1.55.732 2.176 1.14 2.57 1.646 5.113 3.334 7.67 5.022l.095.085c1.836.534 2 1.941 1.932 3.615-.096 2.378 0 4.77 0 7.161a8.32 8.32 0 01-.286 1.252zm1.889 1.026a9.463 9.463 0 01-.408-2.012c0-2.574.163-5.149.272-7.723 0-.577.109-1.14.952-1.196.096.233.177.473.245.717.02.187.02.376 0 .563v8.441c.054.479.095 1.126-1.061 1.21zm208.296 235.247v.633h-.149v-.619l.149-.014z" fill="#141414"/><path d="M155.793 19.524c-.721.647-.721.647-1.061 2.096a3.23 3.23 0 01-1.467-.166 3.317 3.317 0 01-1.253-.805 3.38 3.38 0 011.716-1.189 3.28 3.28 0 012.065.064zm1.169.198l1.047.633-.516.506-.681-.984.15-.155zm2.557 6.921a3.16 3.16 0 01-1.387-.093 3.236 3.236 0 01-1.224-.68l1.605-.93 1.006 1.703z" fill="#fff"/></g><defs><clipPath id="clip0_696_4962"><path fill="#fff" d="M0 0h300v300H0z"/></clipPath></defs></svg>