<svg width="300" height="300" viewBox="0 0 300 300" fill="none" xmlns="http://www.w3.org/2000/svg">
<path d="M48.2089 225.968C47.007 225.66 45.8538 225.432 44.7493 225.043C42.9139 224.409 41.1435 223.646 39.3244 223.012C36.5075 222.051 33.8801 220.606 31.5606 218.741C29.7902 217.263 27.7761 216.109 26.022 214.631C23.6383 212.668 21.5823 210.338 19.9311 207.728C18.3069 204.935 16.3415 202.238 14.6848 199.412C13.5804 197.512 12.7683 195.433 11.81 193.451C11.4526 192.737 11.0141 192.054 10.6568 191.34C10.2338 190.535 9.85958 189.705 9.53604 188.855C8.28538 185.428 7.06721 182.001 5.88153 178.541C5.59578 177.557 5.38404 176.552 5.24808 175.536C3.95601 169.816 3.6049 163.924 4.20857 158.092C4.59464 154.406 5.27354 150.756 6.23886 147.177C7.72714 142.491 9.51754 137.907 11.5988 133.452C13.0661 130.654 14.693 127.943 16.4715 125.331C17.8738 123.034 19.5721 120.932 21.5228 119.078C22.7248 117.925 23.813 116.658 24.9824 115.472C27.2737 113.29 29.7102 111.266 32.2752 109.414C35.307 107.337 38.5793 105.635 42.0206 104.346C43.5149 103.648 44.9767 102.917 46.4547 102.202V99.3761C46.4547 96.42 46.4547 93.4639 46.4547 90.5078C46.4547 88.8835 46.7146 87.2593 46.7796 85.5051C46.9095 82.2567 46.9907 78.8296 47.1369 75.4837C47.2344 73.4859 47.478 71.5043 47.5917 69.5227C47.6109 68.7699 47.54 68.0174 47.3805 67.2813C47.3285 67.1268 47.3089 66.9633 47.3229 66.8009C47.3369 66.6385 47.3843 66.4807 47.462 66.3374C47.5398 66.1942 47.6462 66.0684 47.7747 65.9681C47.9032 65.8678 48.051 65.7951 48.2089 65.7545C48.7573 65.5515 49.3313 65.4258 49.9144 65.381C53.1628 65.2185 56.2813 65.0724 59.4648 64.9749C62.6483 64.8775 66.2053 64.8125 69.5837 64.7638C72.4749 64.7638 75.3822 64.5689 78.2571 64.7638C83.1298 65.0561 87.8888 64.5526 92.7127 64.6501C93.382 64.7138 94.0516 64.5312 94.5958 64.1365C95.14 63.7418 95.5216 63.1621 95.6688 62.5061C96.7017 59.7851 98.0713 57.2041 99.7456 54.8235C101.37 52.6308 102.669 50.2919 104.31 48.1804C105.702 46.419 107.251 44.788 108.939 43.3077C110.459 42.1008 112.048 40.9836 113.698 39.9618C114.542 39.3771 115.371 38.7761 116.183 38.1589C119.328 35.871 122.86 34.1707 126.61 33.14C130.07 32.0843 133.513 31.0285 137.022 30.184C139.129 29.7282 141.269 29.435 143.421 29.3069C145.876 29.0501 148.343 28.9308 150.811 28.9495C154.58 28.9495 158.332 29.2744 162.084 29.5343C164.439 29.6967 166.761 30.3139 169.084 30.6712C172.988 31.2758 176.827 32.2437 180.551 33.5623C181.159 33.7914 181.791 33.9495 182.435 34.0334C183.837 34.1854 185.189 34.6398 186.398 35.3652C188.792 36.5957 191.123 37.9455 193.382 39.4096C195.387 40.9552 197.301 42.6146 199.116 44.3797C199.636 44.8345 200.123 45.338 200.659 45.7765C202.354 47.3587 203.848 49.1424 205.109 51.0878C206.734 53.3617 208.553 55.6518 210.096 58.0395C211.345 59.8795 212.161 61.9785 212.483 64.179C212.483 64.6988 212.711 65.2185 212.824 65.8033C215.358 65.8033 217.811 65.7058 220.263 65.8033C222.716 65.9007 225.396 65.9494 227.962 65.8033C229.586 65.8033 231.308 65.6571 232.981 65.6084L249.483 65.1536C249.884 65.0756 250.296 65.0857 250.692 65.1833C251.088 65.2809 251.459 65.4635 251.777 65.7185C252.095 65.9736 252.354 66.2949 252.536 66.6601C252.718 67.0253 252.818 67.4258 252.829 67.8336C252.952 68.9118 253.001 69.9971 252.975 71.082C252.975 74.3305 252.975 77.4327 252.975 80.6C252.975 84.4332 252.975 88.2663 252.975 92.0995C252.975 93.5938 252.78 95.1043 252.715 96.6149C252.715 97.7681 252.845 97.9467 253.901 98.3853C254.957 98.8238 255.931 99.3436 256.955 99.8146C259.082 100.822 261.291 101.731 263.354 102.868C264.885 103.776 266.36 104.774 267.772 105.857C270.719 107.989 273.44 110.416 275.893 113.101C278.801 115.91 281.285 119.127 283.267 122.651C283.884 123.837 284.713 124.909 285.427 126.062C288.172 130.448 289.602 135.401 291.534 140.144C292.745 143.548 293.563 147.079 293.971 150.669C294.364 152.888 294.538 155.14 294.491 157.393C294.393 159.213 294.718 161.064 294.491 162.867C294.121 166.492 293.547 170.093 292.769 173.652C292.018 176.172 291.117 178.645 290.073 181.058C289.797 181.806 289.618 182.601 289.391 183.365C289.103 184.769 288.546 186.104 287.75 187.296C287.468 187.689 287.244 188.121 287.084 188.579C285.253 192.954 282.966 197.124 280.262 201.02C278.903 203.478 277.203 205.731 275.211 207.712C273.798 208.946 272.466 210.295 270.972 211.415C268.184 213.88 265.069 215.946 261.714 217.555C258.725 218.708 255.866 220.349 252.634 220.803C251.643 220.966 251.627 221.615 251.611 222.33C251.611 223.613 251.53 224.913 251.481 226.212C251.221 231.929 250.88 237.582 250.734 243.38C250.539 250.998 250.506 258.615 250.409 266.249C250.409 266.948 250.409 267.646 250.539 268.344C250.685 270.05 250.214 270.683 248.525 270.651C246.836 270.618 245.082 270.407 243.344 270.391C240.388 270.391 237.415 270.391 234.443 270.391C232.339 270.306 230.231 270.393 228.141 270.651C225.217 271.171 222.342 270.472 219.451 270.651C216.073 270.895 212.646 270.651 209.251 270.651C205.856 270.651 202.462 270.959 199.067 271.024C195.932 271.024 192.798 271.024 189.679 271.024C183.994 271.024 178.31 271.024 172.641 271.024C168.905 271.024 165.186 270.813 161.45 270.732C156.171 270.618 150.876 270.537 145.598 270.44L129.355 270.18C125.214 270.082 121.072 269.855 116.93 269.871C110.823 269.871 104.716 270.017 98.6087 270.18C95.0516 270.294 91.4946 270.651 87.9375 270.765C83.4059 270.911 78.8743 270.943 74.3427 271.008C71.9064 271.008 69.4701 271.138 67.0662 271.122C62.3722 271.122 57.6944 271.008 53.0004 270.959C52.4157 270.959 51.8147 270.959 51.23 270.959C50.158 270.959 49.6057 270.456 49.6057 269.335C49.6057 267.5 49.6057 265.681 49.6057 263.845C49.5083 259.85 49.4271 255.854 49.2484 251.859C49.086 248.464 48.7124 245.069 48.5825 241.675C48.4201 236.932 48.4201 232.173 48.3389 227.414C48.2901 227.008 48.2414 226.537 48.2089 225.968ZM247.469 111.444C246.982 110.746 246.316 111.282 245.748 111.2C245.601 111.087 245.455 110.876 245.309 110.859C243.863 110.713 242.402 110.632 240.972 110.453C240.29 110.387 239.624 110.2 239.007 109.901C238.601 109.674 238.269 109.337 238.047 108.929C237.826 108.521 237.725 108.058 237.756 107.595C237.756 106.604 238.568 106.23 239.299 105.97C240.763 105.404 242.36 105.275 243.896 105.597C246.342 105.979 248.731 106.661 251.01 107.627C251.334 107.714 251.666 107.768 252.001 107.79C251.466 107.342 250.847 107.006 250.182 106.799C246.933 105.792 243.847 104.671 240.436 105.175C239.788 105.215 239.138 105.11 238.536 104.866C237.974 104.673 237.51 104.267 237.246 103.735C236.981 103.203 236.937 102.588 237.123 102.024C237.383 100.854 238.276 100.562 239.218 100.302C240.637 99.9529 242.12 99.9529 243.539 100.302L247.794 101.244C248.529 101.707 249.378 101.954 250.247 101.959C249.529 101.448 248.657 101.201 247.778 101.26C247.167 100.939 246.532 100.667 245.877 100.448C244.253 100.058 242.499 99.7496 240.81 99.4248C240.386 99.3618 239.991 99.1734 239.676 98.884C239.36 98.5945 239.139 98.2171 239.039 97.8005C238.877 96.9235 239.51 96.4687 240.095 96.1763C240.655 95.8585 241.287 95.6907 241.931 95.6891C243.555 95.7865 245.033 96.0139 246.576 96.2413C248.119 96.4687 249.402 96.7448 251.01 97.0372C251.172 94.6008 251.432 92.3594 251.465 90.118C251.465 85.9924 251.465 81.8831 251.465 77.7576C251.465 74.6716 251.611 71.5693 251.66 68.4832C251.64 68.0723 251.58 67.6643 251.481 67.2651C244.984 67.2651 238.731 67.2651 232.429 67.2651C226.127 67.2651 219.841 66.989 213.425 66.859C213.763 67.9466 213.976 69.0692 214.059 70.2049C214.059 71.1957 215.033 72.219 213.913 73.4534C213.481 73.0415 213.109 72.5713 212.808 72.0565C212.031 70.2836 211.359 68.4668 210.794 66.6154C210.186 64.1529 209.194 61.8015 207.854 59.6474C205.246 55.6955 202.41 51.8992 199.36 48.2778C198.641 47.481 197.876 46.7271 197.069 46.0202C195.383 44.1322 193.487 42.4429 191.417 40.9851C189.159 39.6207 186.853 38.3213 184.579 37.0057C184.336 36.8877 184.08 36.8004 183.816 36.7458C181.72 36.0799 179.609 35.4302 177.497 34.7968C175.386 34.1633 172.868 33.3512 170.513 32.7665C168.37 32.2558 166.202 31.86 164.016 31.5808C161.304 31.2397 158.559 31.0773 155.895 30.8661C154.157 30.6905 152.412 30.6037 150.665 30.6063C148.196 30.6063 145.793 30.8824 143.275 31.0773C141.835 31.1632 140.402 31.3477 138.987 31.6295C136.047 32.3279 133.124 33.1076 130.232 33.9359C126.156 34.99 122.255 36.6314 118.652 38.8086C116.297 40.3354 113.909 41.8297 111.716 43.5514C109.791 44.9506 108.05 46.5879 106.535 48.424C104.084 51.6405 101.807 54.9857 99.7132 58.4455C98.0116 61.1438 96.7147 64.0769 95.8637 67.1514C95.3602 69.1329 94.873 71.0982 94.4831 73.096C94.3906 73.6676 94.4195 74.2522 94.5678 74.8119C94.7161 75.3716 94.9806 75.8938 95.344 76.3445C95.826 76.0226 96.2354 75.6034 96.5459 75.1139C96.8564 74.6244 97.0611 74.0754 97.1469 73.5021C97.6341 71.8779 98.1864 70.3511 98.6412 68.7431C98.9173 67.8335 99.4371 67.7199 100.265 67.9472C100.265 68.4345 100.412 68.938 100.265 69.2629C99.4897 71.3235 98.8547 73.4344 98.365 75.5811C98.1701 76.1171 98.0077 76.5881 98.5437 77.2053C99.143 76.958 99.6701 76.5633 100.076 76.0579C100.482 75.5525 100.754 74.9527 100.866 74.3142C101.402 72.7874 101.76 71.2119 102.198 69.6527C102.328 69.1979 102.523 68.7106 103.027 68.9055C103.191 69.0119 103.326 69.159 103.417 69.3326C103.508 69.5062 103.552 69.7004 103.546 69.8963C103.416 70.9033 103.092 71.8941 102.88 72.8849C102.621 74.2005 102.393 75.5161 102.133 76.8318C102.02 77.4815 102.296 77.8388 102.945 78.0337C103.822 76.9973 104.425 75.7576 104.7 74.4279C105.008 72.9499 105.333 71.4718 105.69 69.9938C105.749 69.6748 105.902 69.3806 106.129 69.1492C106.45 68.8914 106.854 68.7587 107.266 68.7756C107.509 68.7756 107.737 69.3116 107.851 69.6364C107.89 69.9003 107.856 70.17 107.753 70.4161C107.412 71.8291 107.038 73.226 106.697 74.6391C106.551 75.2563 106.389 75.8897 107.022 76.3932C107.916 76.0521 108.192 75.24 108.565 74.5416C109.134 73.4371 109.475 72.219 110.189 71.1632C111.7 68.6294 113.292 66.1444 114.883 63.643C115.199 63.1391 115.582 62.6801 116.02 62.2787C119.105 59.3344 122.595 56.8459 126.383 54.8885C128.007 54.1088 129.485 53.3617 131.061 52.647C133.89 51.1938 136.892 50.1025 139.994 49.3986C143.744 48.6324 147.543 48.133 151.364 47.9043C153.41 47.9043 155.489 48.018 157.519 47.8068C159.826 47.5622 162.158 47.6938 164.422 48.1966L172.95 50.0158C176.583 50.8987 179.98 52.5614 182.906 54.8885C183.718 55.4894 184.53 56.0741 185.424 56.6264C186.984 57.5321 188.366 58.7156 189.5 60.1185C190 60.8383 190.542 61.5272 191.125 62.1812C192.816 64.3412 194.26 66.6839 195.429 69.1654C196.55 71.2444 196.355 73.5833 196.793 75.7923C196.87 76.0292 196.85 76.287 196.738 76.5092C196.625 76.7314 196.429 76.8999 196.192 76.9779C195.591 77.1566 195.283 76.7506 195.039 76.312C194.542 75.3229 194.171 74.2752 193.935 73.1935C193.418 71.6778 192.805 70.1967 192.099 68.7594C191.791 68.0122 191.352 67.4437 190.394 67.6224C190.016 67.6549 189.635 67.6549 189.257 67.6224C185.424 67.6224 181.607 67.8011 177.774 67.7848C173.94 67.7686 170.448 67.6549 166.794 67.5412C165.819 67.5412 164.861 67.3788 163.903 67.3625C161.271 67.3625 158.64 67.3625 156.009 67.3625C154.385 67.3625 152.76 67.525 151.38 67.6224C151.087 78.0012 150.795 88.1851 150.487 98.6289C151.705 97.7681 152.695 97.1346 153.621 96.42C155.016 95.3084 156.715 94.6458 158.494 94.5196C161.273 94.3335 164.012 95.2563 166.112 97.0859C168.716 99.3341 170.322 102.523 170.578 105.954C170.681 108.128 170.55 110.306 170.188 112.451C170.028 114.004 169.679 115.531 169.149 116.999C168.061 120.247 164.276 121.742 161.564 121.742C159.852 121.73 158.154 121.45 156.529 120.913C154.914 120.535 153.333 120.024 151.802 119.387C151.64 119.289 151.396 119.387 150.974 119.387C151.818 128.823 150.974 138.179 150.763 147.599C151.174 147.69 151.592 147.745 152.013 147.762C152.825 147.762 153.638 147.599 154.433 147.616C157.276 147.713 160.134 147.908 162.993 147.957C168.759 148.07 174.541 148.054 180.324 148.184C183.572 148.184 186.691 148.444 189.858 148.688C192.538 148.883 192.603 149.126 191.628 151.644C190.654 154.161 189.89 156.305 189.078 158.66C188.561 160.234 188.482 161.918 188.851 163.533C188.984 164.372 189.364 165.153 189.942 165.775C190.521 166.397 191.272 166.832 192.099 167.025C194.589 167.791 197.215 168.013 199.798 167.675C202.137 167.301 204.476 166.814 206.799 166.278C207.437 166.139 208.036 165.86 208.553 165.461C209.07 165.063 209.491 164.554 209.787 163.972C210.378 162.873 210.722 161.658 210.795 160.412C210.868 159.167 210.668 157.92 210.209 156.76C209.462 154.73 208.406 152.829 207.481 150.88C207.058 149.971 207.253 149.435 208.195 149.256C208.565 149.185 208.94 149.147 209.316 149.142C211.314 149.142 213.312 148.964 215.309 148.947C219.354 148.947 223.431 148.866 227.459 148.947C231.487 149.029 235.58 149.272 239.608 149.419C243.003 149.532 246.413 149.581 249.808 149.646C250.132 149.619 250.452 149.565 250.766 149.483C250.766 148.217 250.766 147.047 250.766 145.861C250.766 142.532 250.848 139.186 250.896 135.856C251.007 132.862 250.964 129.864 250.766 126.874C250.669 125.737 250.766 121.872 250.766 121.612C250.766 121.352 250.978 120.264 250.62 119.825C248.996 117.811 244.123 116.122 243.409 115.878C242.708 115.676 242.058 115.331 241.499 114.864C240.939 114.397 240.484 113.819 240.16 113.166C239.478 111.801 239.981 110.908 241.492 110.941C243.003 110.973 244.367 111.2 245.812 111.33L247.534 111.59C248.598 112.233 249.746 112.725 250.945 113.052L251.107 112.614L247.469 111.444ZM51.2624 115.992C49.979 116.069 48.7696 116.618 47.8678 117.535L51.23 115.911L52.9517 115.651C54.3485 115.521 55.7291 115.326 57.1097 115.261C58.4903 115.196 58.7339 115.683 58.7339 116.755C58.6873 117.382 58.4685 117.984 58.1016 118.494C57.7348 119.004 57.2341 119.403 56.6549 119.646C55.9902 119.866 55.3527 120.16 54.7545 120.524C54.4459 120.718 50.4991 122.148 49.8819 123.301C49.8819 123.415 49.8007 128.775 49.7844 129.473C49.7032 132.721 49.3134 135.856 49.5245 139.072C49.7032 141.541 49.6382 143.945 49.7032 146.495C49.7032 147.031 49.7844 147.551 49.8331 148.119H51.4574C55.0632 148.038 58.6852 147.859 62.3072 147.859C65.9292 147.859 69.3239 148.07 72.8484 148.152C74.9437 148.152 77.039 148.152 79.1505 148.152C79.8976 148.152 80.661 148.249 81.4081 148.152C82.1553 148.054 83.1136 148.509 83.9582 147.94C83.8865 147.718 83.7883 147.506 83.6658 147.307C81.9111 144.814 80.9282 141.86 80.8396 138.812C80.5907 136.037 81.3152 133.261 82.8888 130.962C84.4624 128.662 86.7872 126.981 89.4643 126.208C93.7384 124.955 98.2522 124.755 102.621 125.624C106.541 126.187 110.265 127.698 113.47 130.025C117.304 132.949 118.164 136.847 117.547 141.249C117.138 143.036 116.595 144.789 115.923 146.495C115.793 146.885 115.728 147.291 115.598 147.859C119.383 148.038 122.988 147.632 126.578 147.567C130.167 147.502 133.919 147.453 137.59 147.307C141.261 147.161 144.785 147.567 148.472 147.307C148.472 145.683 148.472 144.221 148.472 142.775C148.667 139.332 149.041 135.889 149.138 132.429C149.285 128.076 149.236 123.691 149.252 119.322C149.385 118.409 149.196 117.478 148.716 116.69C148.632 116.536 148.588 116.363 148.588 116.187C148.588 116.011 148.632 115.838 148.716 115.683C148.861 115.543 149.035 115.438 149.227 115.376C149.418 115.314 149.621 115.297 149.821 115.326C150.482 115.54 151.102 115.864 151.656 116.284C152.618 117.039 153.723 117.592 154.904 117.908C156.058 118.168 157.211 118.493 158.38 118.721C159.409 118.965 160.459 119.106 161.515 119.143C162.963 119.24 164.393 118.777 165.509 117.848C166.625 116.92 167.341 115.598 167.508 114.157C167.687 112.727 168.109 111.314 168.239 109.869C168.657 107.433 168.433 104.931 167.59 102.608C166.902 100.807 165.705 99.2439 164.145 98.1105C162.585 96.9771 160.729 96.322 158.803 96.2251C158 96.1054 157.18 96.2064 156.431 96.5174C154.109 97.7356 151.559 98.6939 149.934 100.822C149.618 101.095 149.262 101.32 148.879 101.488C148.548 101.022 148.321 100.491 148.215 99.9308C148.108 99.3701 148.124 98.7931 148.261 98.2391C148.261 96.7448 148.586 95.2505 148.619 93.7562C148.619 89.7119 148.619 85.6351 148.7 81.6232C148.7 79.1544 149.09 76.7506 149.171 74.2005C149.528 71.9788 149.528 69.7142 149.171 67.4925C148.635 67.4925 148.099 67.3788 147.547 67.3625L138.012 67.2488C135.804 67.2488 133.595 66.9727 131.402 67.1189C128.194 67.3138 124.978 67.3138 121.77 67.1189C119.415 67.0052 117.044 67.1189 114.77 67.1189C112.914 69.2 111.47 71.614 110.514 74.233C110.139 75.3302 109.49 76.3139 108.63 77.0916C107.152 78.456 107.006 78.456 105.382 77.3353C105.382 77.3353 105.187 77.3353 105.073 77.3353C103.839 79.8366 102.442 80.0802 100.298 78.0824C99.6878 78.5239 98.9315 78.7145 98.185 78.6148C97.4386 78.515 96.7588 78.1326 96.286 77.5464C94.6618 77.985 93.8822 77.8226 93.3787 76.848C92.4357 75.1285 92.1637 73.1204 92.6153 71.2119L93.9147 66.1119H92.8427L89.9353 66.323C87.7913 66.453 85.6636 66.1444 83.4384 66.323C79.9951 66.6154 76.5354 66.5017 73.0758 66.5504C69.9736 66.5504 66.855 66.5504 63.7365 66.6804C62.1123 66.6804 60.4881 66.8265 58.8638 66.9077C55.9845 66.8102 53.1019 66.9242 50.2392 67.2488C49.7844 67.2488 49.3134 67.3788 48.7124 67.46C48.7124 69.7339 48.7124 71.8941 48.7124 74.0381C48.7124 78.7646 48.7124 83.5073 48.5013 88.2338C48.3064 92.3594 48.5013 96.5012 48.6312 100.627C48.6312 100.724 48.6312 100.822 48.8748 101.098L50.8077 100.838C52.7892 100.562 54.7545 100.221 56.7361 100.026C57.3752 100.022 58.0036 100.19 58.5552 100.513C59.14 100.838 59.7734 101.293 59.611 102.137C59.5181 102.557 59.2984 102.938 58.9817 103.228C58.665 103.519 58.2666 103.705 57.8406 103.761C57.196 103.817 56.5557 103.914 55.924 104.054C54.1652 104.28 52.4574 104.801 50.8726 105.597C48.8719 105.627 46.9544 106.403 45.4965 107.773L50.8564 105.581C52.7567 105.191 54.6571 104.785 56.5574 104.427C57.7825 104.206 59.0453 104.341 60.1957 104.817C60.6543 104.988 61.0464 105.3 61.3144 105.71C61.5824 106.119 61.7123 106.603 61.6851 107.092C61.6579 107.58 61.4749 108.047 61.1631 108.424C60.8512 108.801 60.4268 109.068 59.9521 109.186C59.2217 109.347 58.4745 109.418 57.7269 109.398C56.9797 109.398 56.2326 109.398 55.4854 109.398C53.1817 109.61 50.9156 110.124 48.7449 110.924C47.9978 111.173 47.2703 111.477 46.5684 111.834C46.9495 111.983 47.373 111.983 47.7541 111.834C49.9991 110.917 52.3428 110.263 54.7383 109.885C56.2693 109.531 57.8695 109.621 59.3511 110.145C60.082 110.47 60.9753 110.843 60.8941 111.769C60.9197 112.231 60.8163 112.692 60.5955 113.099C60.3746 113.506 60.0451 113.844 59.6435 114.075C59.0834 114.373 58.4713 114.561 57.8406 114.628C56.931 114.725 55.9889 114.628 55.0956 114.725C54.35 114.881 53.617 115.093 52.9029 115.358C52.3994 115.797 51.7335 115.342 51.2624 115.992V115.992ZM189.5 150.734C188.071 150.734 186.788 150.507 185.505 150.491C177.075 150.491 168.645 150.296 160.216 150.296C156.72 150.065 153.21 150.12 149.723 150.458C149.513 150.482 149.3 150.482 149.09 150.458C148.391 150.377 147.709 150.263 147.011 150.247C144.363 150.247 141.716 150.247 139.068 150.247C136.421 150.247 133.887 150.247 131.288 150.247C128.689 150.247 126.545 150.426 124.174 150.539C122.875 150.539 121.575 150.734 120.292 150.767C118.246 150.767 116.199 150.767 114.169 150.767C113.146 150.767 112.545 150.361 112.707 149.354C112.856 148.507 113.079 147.676 113.373 146.868C113.958 145.017 114.705 143.198 115.16 141.33C115.656 139.46 115.525 137.479 114.785 135.692C114.046 133.905 112.739 132.41 111.067 131.438C109.178 130.267 107.109 129.417 104.943 128.921C101.389 127.988 97.7155 127.594 94.0446 127.751C91.391 127.975 88.856 128.95 86.7356 130.561C85.8808 131.092 85.1403 131.787 84.5575 132.607C83.9746 133.427 83.561 134.355 83.3409 135.336C82.5113 138.963 83.1352 142.77 85.0789 145.943C85.6043 146.7 86.0869 147.486 86.5244 148.298C86.8818 149.012 86.5244 149.565 85.7935 149.76C85.4153 149.793 85.0348 149.793 84.6566 149.76C82.5613 149.873 80.4498 150.019 78.3546 150.052C73.4819 150.052 68.6092 150.052 63.7365 150.052C59.5298 150.052 55.3068 150.214 51.1 150.361C49.8656 150.361 49.7519 150.572 49.7032 151.822C49.5895 155.217 49.4758 158.612 49.4108 162.023C49.4108 163.354 49.5732 164.703 49.5895 166.051C49.5895 169.673 49.5895 173.295 49.6707 176.917C49.7682 180.912 49.9793 184.908 50.0768 188.903C50.1742 193.273 50.0768 197.642 50.2392 202.027C50.3691 206.673 50.6128 211.318 50.7914 215.963C50.9051 219.358 51.1487 222.752 51.0351 226.147C50.8401 231.929 51.035 237.712 51.2624 243.478C51.4411 247.847 51.7497 252.216 51.9446 256.585C52.0583 258.956 52.0746 261.328 52.1395 263.699C52.1395 265.323 52.237 266.948 52.3019 268.832H55.5504C58.7014 268.832 61.8362 268.945 64.9709 268.945C68.593 268.945 72.215 268.702 75.8208 268.783C81.3919 268.913 86.9305 268.474 92.4853 268.231C97.2281 268.02 101.987 267.76 106.746 267.662C111.115 267.565 115.484 267.662 119.87 267.662C121.916 267.662 123.963 267.662 126.026 267.76C130.346 267.873 134.65 268.068 139.019 268.15C142.268 268.15 145.614 268.15 148.911 268.15C152.208 268.15 155.603 268.15 158.965 268.15C165.462 268.263 171.829 268.426 178.261 268.523C181.769 268.523 185.277 268.523 188.786 268.523C193.529 268.523 198.288 268.783 203.03 268.523C208.488 268.312 213.929 268.28 219.386 268.377C222.359 268.377 225.331 268.377 228.303 268.377C230.626 268.377 232.932 268.28 235.255 268.28H248.021C248.021 266.412 248.021 264.43 248.021 262.449C248.021 259.038 248.021 255.643 248.021 252.248C248.184 245.865 248.363 239.498 248.639 233.131C248.98 225.091 249.629 217.068 249.597 209.028C249.597 204.918 250.035 200.907 250.149 196.716C250.312 191.486 250.398 186.245 250.409 180.994C250.409 176.884 250.23 172.791 250.214 168.682C250.214 166.684 250.442 164.686 250.506 162.688C250.62 159.667 250.685 156.663 250.766 153.642C250.766 152.797 250.766 151.936 250.766 150.962C243.815 150.864 237.074 150.848 230.334 150.669C223.593 150.491 216.788 150.491 209.836 150.88C209.983 151.297 210.168 151.699 210.388 152.082C211.882 154.155 212.75 156.613 212.889 159.164C213.179 161.312 212.631 163.49 211.357 165.244C210.084 166.998 208.184 168.195 206.051 168.584C204.167 169.023 202.234 169.315 200.318 169.575C197.307 170.009 194.237 169.788 191.32 168.926C190.053 168.61 188.911 167.921 188.042 166.948C187.173 165.974 186.617 164.762 186.447 163.468C186.1 161.548 186.24 159.571 186.853 157.718C187.681 155.672 188.542 153.349 189.5 150.734V150.734ZM47.8678 123.788C46.4892 123.929 45.189 124.497 44.1483 125.412C42.7677 126.517 41.6308 127.93 40.2177 128.986C37.6268 131.242 35.431 133.916 33.7208 136.896C31.9538 139.665 30.3275 142.522 28.8481 145.455C28.1986 146.638 27.6863 147.892 27.3213 149.191C26.7041 151.644 26.2493 154.145 25.8108 156.646C25.4859 158.449 25.2586 160.268 25.0961 162.087C24.9337 163.907 24.9824 165.336 24.9012 166.96C24.6935 169.327 24.9811 171.711 25.7458 173.961C26.1889 175.175 26.5046 176.433 26.6879 177.713C27.2843 180.953 28.4559 184.061 30.1475 186.889C30.9758 188.4 31.8854 189.862 32.8437 191.307C34.0002 193.26 35.3321 195.103 36.8231 196.813C39.7142 199.786 43.5311 201.378 47.4293 203.132C47.1694 176.543 46.5522 150.247 47.8678 123.788V123.788ZM252.78 197.821C254.811 196.732 256.857 195.774 258.774 194.572C260.075 193.808 261.239 192.831 262.217 191.681C265.388 187.582 268.111 183.155 270.338 178.476C270.654 177.799 270.899 177.092 271.069 176.364C271.686 174.009 272.092 171.589 272.872 169.315C273.584 167.272 273.887 165.109 273.765 162.948C273.704 159.775 273.454 156.607 273.018 153.463C272.563 149.388 271.574 145.391 270.078 141.573C269.737 140.794 269.315 140.047 268.925 139.283C268.259 138 267.675 136.668 266.927 135.418C265.855 133.631 264.735 131.861 263.533 130.155C262.565 128.739 261.478 127.408 260.284 126.176C258.514 124.357 256.565 122.749 254.778 120.962C254.56 120.673 254.269 120.447 253.935 120.308C253.602 120.168 253.237 120.119 252.878 120.166C252.878 120.718 252.699 121.206 252.683 121.693C252.683 125.559 252.683 129.424 252.683 133.29C252.683 136.36 252.683 139.446 252.683 142.516C252.664 145.151 252.783 147.786 253.04 150.409C253.214 153.115 253.176 155.83 252.927 158.53C252.797 162.364 252.537 166.197 252.488 170.03C252.488 174.35 252.602 178.671 252.667 183.024C252.667 184.112 252.78 185.184 252.78 186.272C252.797 190.057 252.78 193.776 252.78 197.821V197.821ZM190.118 65.9494L190.345 65.5596C189.306 64.1953 188.364 62.7497 187.21 61.4991C186.197 60.5447 185.111 59.6704 183.962 58.8841C182.294 57.5312 180.559 56.2628 178.764 55.0834C177.16 54.1062 175.449 53.316 173.664 52.7282C171.163 51.9161 168.58 51.3314 165.998 50.7467C164.219 50.2991 162.403 50.011 160.573 49.8858C157.844 49.7559 155.099 49.8858 152.452 49.9833C150.681 49.9833 148.895 50.1619 147.141 50.3569C145.535 50.5311 143.941 50.7968 142.365 51.1527C140.059 51.6725 137.753 52.241 135.511 52.9881C133.887 53.4916 132.506 54.3849 130.947 54.9859C127.553 56.3521 124.331 58.113 121.348 60.2322C120.36 60.8863 119.411 61.5967 118.505 62.3599C117.376 63.1196 116.499 64.2 115.988 65.4622H117.206C118.654 65.3486 120.107 65.3161 121.559 65.3647C125.814 65.7221 130.054 65.1211 134.309 65.3647C136.875 65.4622 139.458 65.3647 142.041 65.3647C145.533 65.3647 149.008 65.7221 152.517 65.5759C160.324 65.1617 168.147 65.1617 175.954 65.5759C179.95 65.8195 183.946 65.8358 187.941 65.9332C188.672 65.9657 189.419 65.9494 190.118 65.9494ZM251.156 102.218L251.042 102.543C251.595 102.852 252.147 103.161 252.667 103.453C252.812 103.477 252.96 103.477 253.105 103.453L253.203 103.225L251.156 102.218Z" fill="#141414"/>
<path d="M259.193 260.662L272.755 260.938C275.711 260.938 278.667 260.938 281.607 261.068C283.231 261.068 284.693 261.491 286.252 261.604C288.608 261.767 290.963 261.832 293.318 261.945C294.211 261.945 295.104 261.946 295.998 262.043C296.891 262.14 297.118 262.774 296.534 263.391C296.199 263.73 295.757 263.942 295.283 263.992C292.254 264.171 289.217 264.171 286.187 263.992C282.062 263.618 277.904 263.489 273.778 263.147C270.124 262.839 266.486 263.245 262.864 263.147C260.492 263.034 258.137 262.823 255.766 262.904C255.393 262.911 255.028 262.797 254.726 262.579C254.622 262.513 254.537 262.422 254.477 262.314C254.418 262.206 254.387 262.085 254.387 261.962C254.387 261.839 254.418 261.717 254.477 261.61C254.537 261.502 254.622 261.41 254.726 261.345C255.099 261.037 255.548 260.835 256.026 260.76C257.098 260.76 258.169 260.76 259.274 260.76L259.193 260.662Z" fill="#141414"/>
<path d="M4.53125 264.544C4.53125 263.326 4.87234 262.823 5.89561 262.725C8.36443 262.514 10.7683 262.173 13.3021 262.011C16.5505 261.799 19.799 261.686 23.1611 261.605C26.8157 261.507 30.4702 261.507 34.1247 261.491C35.2941 261.491 36.4636 261.605 37.6493 261.621C38.835 261.637 39.8745 261.621 41.2551 261.621L42.5219 263.148C42.2783 263.391 42.1159 263.651 41.9047 263.716C40.2731 264.305 38.4936 264.345 36.8372 263.83C36.4103 263.627 35.9453 263.516 35.4728 263.505C30.0803 263.7 24.6879 263.927 19.2305 264.138C17.6063 264.138 15.8846 264.138 14.2116 264.236C11.6779 264.349 9.1603 264.544 6.64275 264.658C5.93749 264.655 5.23281 264.617 4.53125 264.544Z" fill="#141414"/>
<path d="M257.211 67.8823C258.657 66.9402 259.956 65.982 261.353 65.1861C264.747 63.2208 268.142 61.223 271.65 59.4688C273.752 58.5134 275.924 57.7206 278.147 57.0974C278.315 57.0109 278.5 56.9641 278.689 56.9604C278.878 56.9568 279.065 56.9965 279.236 57.0765C279.407 57.1565 279.557 57.2747 279.676 57.4219C279.794 57.5692 279.876 57.7415 279.918 57.9258C279.959 58.2727 279.879 58.6232 279.693 58.9188C279.507 59.2144 279.225 59.4372 278.894 59.55C276.702 60.4596 274.476 61.2717 272.3 62.23C269.734 63.3507 267.184 64.5201 264.699 65.787C262.944 66.6804 261.288 67.7848 259.582 68.7594C258.689 69.2954 258.056 69.0842 257.211 67.8823Z" fill="#141414"/>
<path d="M242.838 55.9581C243.211 54.5775 243.52 53.1644 243.975 51.8C244.819 49.25 245.81 46.7487 246.622 44.1986C247.257 41.8567 248.094 39.5743 249.124 37.3769C249.676 36.3374 250.179 35.9313 250.748 36.1425C251.316 36.3536 251.706 37.1495 251.333 38.2215C250.082 41.6648 248.766 45.0757 247.499 48.5028C246.46 50.578 245.638 52.7552 245.047 54.9998C244.853 55.8279 244.524 56.6182 244.072 57.3387C244.002 57.4434 243.908 57.5302 243.798 57.5922C243.688 57.6542 243.565 57.6898 243.439 57.696C243.309 57.696 243.049 57.4686 243.017 57.3062C242.957 56.8811 242.93 56.4522 242.935 56.023L242.838 55.9581Z" fill="#141414"/>
<path d="M249.953 58.5752C251.025 57.0484 251.951 55.5866 253.023 54.2547C254.923 51.8671 256.905 49.5282 258.87 47.1893C259.251 46.7325 259.675 46.3137 260.137 45.9387C260.252 45.8228 260.388 45.7308 260.539 45.668C260.69 45.6052 260.851 45.5729 261.014 45.5729C261.177 45.5729 261.339 45.6052 261.489 45.668C261.64 45.7308 261.776 45.8228 261.891 45.9387C262.313 46.4747 262.086 46.9132 261.68 47.3842C260.462 48.7973 259.276 50.2266 258.074 51.6559L254.371 56.1063C254.23 56.2637 254.072 56.4053 253.9 56.5286C253.234 57.1458 252.503 57.6981 251.886 58.364C251.269 59.0299 250.879 59.1274 249.953 58.5752Z" fill="#141414"/>
<path d="M269.021 77.7878C268.925 78.1717 268.692 78.5073 268.366 78.7316C268.04 78.9559 267.643 79.0535 267.25 79.006C264.965 78.6462 262.733 78.0023 260.607 77.0894C260.33 76.9347 260.119 76.6851 260.011 76.3866C259.904 76.0882 259.908 75.7609 260.023 75.4652C260.315 74.848 260.802 74.913 261.387 75.0754C263.352 75.6439 265.334 76.1149 267.299 76.6996C267.801 76.8761 268.281 77.1105 268.729 77.398C268.891 77.4467 268.956 77.6904 269.021 77.7878Z" fill="#141414"/>
<path d="M237.494 54.7264C237.284 54.135 237.127 53.5263 237.023 52.9073C236.817 50.2219 236.639 47.5149 236.487 44.7862C236.487 44.1202 236.325 43.2919 237.267 43.0645C237.787 42.9508 238.225 43.6005 238.225 44.6887C238.225 46.9301 238.225 49.1716 238.128 51.413C238.128 52.4687 238.03 53.5245 237.965 54.5802L237.494 54.7264Z" fill="#141414"/>
<path d="M199.779 193.775C200.981 192.289 201.921 190.608 202.556 188.805C202.719 188.35 202.93 187.911 203.125 187.473C203.433 186.709 203.953 186.531 204.862 187.002C204.7 189.958 202.735 192.086 201.078 194.489L203.774 196.633C206.406 194.652 207.266 191.485 209.085 189.048C209.963 189.292 210.206 189.812 209.963 190.445C209.539 191.645 208.995 192.799 208.338 193.888C207.349 195.137 206.297 196.335 205.187 197.478L206.568 198.501C208.631 196.737 210.336 194.592 211.587 192.183C211.739 191.779 211.978 191.414 212.285 191.111C212.421 191.002 212.577 190.923 212.745 190.879C212.913 190.834 213.088 190.824 213.26 190.851C213.405 190.955 213.525 191.092 213.609 191.249C213.694 191.407 213.741 191.582 213.747 191.761C213.697 193.01 213.195 194.199 212.334 195.107C210.97 196.731 209.459 198.16 207.916 199.768C207.916 200.109 208.208 200.824 207.916 201.23C207.431 202.134 206.748 202.917 205.918 203.52C202.586 205.805 198.957 207.625 195.133 208.929C193.323 209.449 191.477 209.84 189.611 210.098C186.804 210.687 183.911 210.743 181.084 210.261C178.696 209.692 176.39 208.75 174.035 207.954C170.83 206.676 167.856 204.882 165.231 202.643C163.948 201.652 163.77 200.759 164.923 199.541C166.123 198.166 167.493 196.949 169 195.919C171.84 193.966 174.858 192.286 178.014 190.9C180.408 189.922 182.929 189.287 185.502 189.016C186.636 188.948 187.774 189.003 188.896 189.178C189.741 189.292 190.521 189.633 191.398 189.779C193.326 190.111 195.153 190.877 196.741 192.021C197.723 192.657 198.737 193.242 199.779 193.775ZM176.438 193.661C172.647 195.6 169.121 198.018 165.946 200.856C167.846 202.172 169.471 203.488 171.273 204.511C173.375 205.645 175.545 206.649 177.77 207.516C179.46 208.22 181.244 208.675 183.065 208.864C186.297 208.987 189.53 208.681 192.681 207.954C194.314 207.642 195.906 207.14 197.424 206.46C199.194 205.697 200.883 204.722 202.605 203.812C204.079 203.09 205.394 202.079 206.47 200.84C203.489 198.49 200.347 196.351 197.066 194.441C197.149 195.441 197.149 196.446 197.066 197.446C196.752 199.282 195.997 201.014 194.865 202.494C193.734 203.974 192.259 205.156 190.569 205.94C188.406 207.037 185.989 207.536 183.569 207.386C181.912 207.319 180.328 206.688 179.079 205.599C177.829 204.509 176.989 203.025 176.698 201.392C176.439 200.142 176.422 198.842 176.179 197.575C175.974 196.567 176.075 195.521 176.471 194.571C176.496 194.267 176.485 193.962 176.438 193.661V193.661Z" fill="#141414"/>
<path d="M140.512 199.802L138.888 201.117C137.783 201.962 136.695 202.742 135.558 203.619C133.077 205.257 130.383 206.547 127.551 207.452C122.882 209.204 117.807 209.576 112.933 208.524C110.428 207.896 108.015 206.946 105.754 205.698C103.339 204.62 101.023 203.332 98.8345 201.848C98.6558 201.718 98.4609 201.637 98.2822 201.491C97.129 200.565 97.0316 200.175 97.5351 198.697C95.4632 197.336 93.7477 195.498 92.5325 193.337C92.2145 192.722 91.9483 192.08 91.7366 191.421C91.4605 190.69 91.7366 190.3 92.6786 190.008C93.355 191.436 94.1031 192.829 94.9201 194.182C95.9321 195.549 97.0165 196.861 98.1685 198.112L100.264 195.968C100.167 195.766 100.047 195.575 99.9065 195.4C97.9865 193.895 96.5379 191.872 95.7322 189.569C95.5802 189.256 95.5329 188.902 95.5973 188.56C95.6616 188.218 95.8342 187.905 96.0895 187.669C96.8529 187.669 97.0153 188.318 97.2427 188.854C97.6059 189.874 98.04 190.868 98.5421 191.827C99.1918 192.915 100.036 193.889 100.913 195.075L103.187 193.597C101.569 191.654 100.418 189.364 99.8252 186.905C99.7116 186.321 99.4029 185.622 100.166 185.362C100.93 185.102 101.222 185.817 101.449 186.337C101.807 187.23 102.034 188.188 102.375 189.098C102.677 189.899 103.03 190.68 103.431 191.437C104 192.476 104.471 192.639 105.364 192.005C107.753 190.529 110.318 189.356 112.998 188.513C115.889 187.427 119.022 187.146 122.061 187.701C124.371 187.871 126.637 188.42 128.769 189.325C133.006 191.369 136.807 194.215 139.96 197.706C140.593 198.486 140.61 198.47 140.512 199.802ZM98.7045 199.428C99.1363 199.789 99.5921 200.12 100.069 200.419C102.863 201.946 105.607 203.57 108.499 204.918C111.53 206.556 114.929 207.395 118.374 207.354C118.601 207.354 118.812 207.354 119.024 207.354C120.257 207.415 121.493 207.345 122.711 207.143C125.226 206.574 127.683 205.775 130.052 204.756C132.328 203.731 134.503 202.497 136.549 201.069C137.292 200.474 138.003 199.84 138.677 199.168C136.517 196.277 130.669 192.022 128.444 191.713C128.558 193.175 128.574 194.637 128.785 196.066C128.957 197.143 128.763 198.247 128.233 199.201C127.394 200.633 126.449 202.002 125.407 203.294C125.023 203.752 124.532 204.109 123.978 204.333C122.13 205.247 120.078 205.672 118.019 205.567C115.961 205.461 113.963 204.83 112.218 203.732C111.366 203.275 110.615 202.651 110.009 201.897C108.729 200.197 108.033 198.129 108.028 196.001C108.028 194.961 108.028 193.906 107.914 192.85C105.721 193.191 100.605 196.846 98.7045 199.347V199.428Z" fill="#141414"/>
<path d="M112.949 215.881C114.989 215.671 117.046 216.066 118.862 217.018C119.157 217.153 119.422 217.347 119.641 217.587C120.885 218.687 121.833 220.081 122.4 221.641C122.968 223.201 123.136 224.878 122.89 226.52C122.763 227.708 122.343 228.847 121.669 229.833C120.994 230.819 120.085 231.623 119.024 232.172C117.934 232.776 116.812 233.318 115.662 233.797C114.945 234.006 114.199 234.093 113.453 234.056C112.43 234.056 111.406 233.894 110.383 233.829C109.073 233.757 107.828 233.235 106.859 232.351C105.108 231.058 103.793 229.262 103.09 227.202C102.619 225.756 102.571 224.205 102.95 222.732C103.33 221.259 104.122 219.924 105.234 218.886C106.095 217.871 107.184 217.076 108.413 216.565C109.641 216.053 110.973 215.842 112.3 215.946C112.518 215.942 112.735 215.92 112.949 215.881Z" fill="#141414"/>
<path d="M192.226 216.042C193.352 216.196 194.465 216.435 195.556 216.757C200.185 218.592 201.127 224.878 199.681 228.679C199.36 229.764 198.801 230.764 198.045 231.607C197.29 232.45 196.356 233.114 195.312 233.551C193.243 234.349 190.987 234.535 188.815 234.087C187.373 233.894 185.982 233.419 184.722 232.691C183.871 232.111 183.154 231.356 182.618 230.477C182.083 229.597 181.743 228.613 181.62 227.59C181.314 225.612 181.544 223.587 182.286 221.727C182.769 220.377 183.614 219.187 184.729 218.284C185.843 217.382 187.183 216.803 188.604 216.611C189.741 216.335 190.927 216.221 192.226 216.042Z" fill="#141414"/>
<path d="M152.937 229.359C149.867 229.178 146.973 227.864 144.816 225.672C144.396 225.191 144.061 224.642 143.825 224.048C143.581 223.544 143.419 222.943 143.971 222.586C144.523 222.229 144.929 222.732 145.319 223.138C146.087 223.963 146.9 224.744 147.756 225.477C149.018 226.559 150.606 227.186 152.266 227.26C153.926 227.333 155.563 226.849 156.916 225.883C157.971 225.142 158.96 224.31 159.872 223.398C160.408 222.927 160.782 222.066 161.708 222.44C162.276 222.667 162.049 223.382 161.448 224.568C160.035 227.313 157.387 228.109 154.756 228.969C154.139 229.164 153.392 229.262 152.937 229.359Z" fill="#141414"/>
<path d="M222.275 98.1747C225.499 98.0385 228.67 99.0323 231.24 100.985C231.29 101.008 231.334 101.041 231.37 101.082C233.417 102.804 233.482 103.762 231.565 105.646C229.557 107.96 226.796 109.491 223.769 109.967C219.553 110.515 215.28 109.541 211.717 107.222C209.297 105.597 209.216 104.883 211.327 102.869C212.72 101.362 214.415 100.165 216.301 99.3561C218.187 98.5474 220.223 98.1449 222.275 98.1747V98.1747ZM211.604 104.818C213.414 106.248 215.513 107.269 217.757 107.81C220 108.352 222.334 108.4 224.597 107.953C227.335 107.256 229.742 105.625 231.403 103.34C228.979 101.234 225.92 99.9986 222.713 99.8314C222.827 100.774 222.855 101.726 222.794 102.674C222.636 103.518 222.34 104.33 221.917 105.078C221.648 105.453 221.298 105.765 220.894 105.989C220.489 106.214 220.04 106.346 219.578 106.377C217.305 106.913 216.151 106.101 214.446 102.755C214.116 102.914 213.796 103.093 213.488 103.291C213.033 103.73 212.383 104.201 211.604 104.818V104.818Z" fill="#141414"/>
<path d="M195.263 110.143C191.738 109.85 188.295 109.753 185.339 107.739C184.518 107.146 183.731 106.506 182.984 105.822C182.836 105.721 182.716 105.585 182.633 105.426C182.549 105.268 182.506 105.092 182.506 104.913C182.506 104.734 182.549 104.557 182.633 104.399C182.716 104.241 182.836 104.105 182.984 104.003C184.032 102.924 185.15 101.915 186.33 100.982C188.166 99.6122 190.297 98.6891 192.552 98.2859C194.808 97.8827 197.126 98.0106 199.324 98.6594C201.685 99.11 203.796 100.417 205.252 102.33C206.048 103.5 206.08 103.662 205.171 104.718C203.021 107.472 199.945 109.353 196.514 110.013L195.263 110.143ZM195.458 99.8289C195.783 104.084 195.101 105.627 192.68 106.326C190.26 107.024 188.945 106.18 187.223 102.785C186.164 103.249 185.23 103.956 184.494 104.848C190 109.363 199.6 110.029 203.985 103.224C201.597 101.179 198.598 99.985 195.458 99.8289V99.8289Z" fill="#141414"/>
<path d="M212.594 127.02C211.961 126.907 211.311 126.825 210.694 126.663C210.499 126.663 210.191 126.289 210.223 126.111C210.246 125.962 210.298 125.82 210.376 125.692C210.454 125.563 210.556 125.452 210.678 125.363C211.017 125.201 211.39 125.118 211.766 125.12C214.082 124.849 216.273 123.925 218.084 122.456C218.549 122.122 218.929 121.683 219.195 121.175C219.46 120.668 219.602 120.105 219.611 119.533C219.699 118.681 219.918 117.848 220.261 117.064C220.367 116.917 220.506 116.798 220.667 116.716C220.828 116.634 221.006 116.592 221.187 116.593C221.349 116.662 221.49 116.772 221.598 116.911C221.706 117.05 221.777 117.214 221.804 117.389C221.91 118.39 221.833 119.403 221.576 120.377C220.908 122.251 219.697 123.883 218.097 125.066C216.497 126.249 214.582 126.93 212.594 127.02V127.02Z" fill="#141414"/>
<path d="M110.089 113.716C110.239 114.171 110.26 114.659 110.151 115.126C110.042 115.593 109.807 116.021 109.472 116.363C108.451 117.807 107.173 119.051 105.703 120.034C105.234 120.356 104.7 120.571 104.139 120.664C103.577 120.756 103.003 120.724 102.455 120.57C101.41 120.444 100.381 120.21 99.3852 119.872C98.3126 119.481 97.3621 118.814 96.6293 117.938C95.8965 117.063 95.4073 116.01 95.2109 114.885C96.1043 113.765 97.3224 113.862 98.4594 113.684C99.3621 113.61 100.269 113.61 101.172 113.684C103.781 113.684 106.396 113.651 109.017 113.586C109.378 113.592 109.737 113.636 110.089 113.716V113.716Z" fill="#141414"/>
<path d="M81.8945 100.349C83.0477 99.3907 83.1777 99.3744 84.0223 100.349C84.8669 101.324 85.8577 102.46 86.7997 103.5C87.3445 104.128 88.0148 104.634 88.7673 104.986C89.5199 105.339 90.338 105.53 91.1689 105.547C92.57 105.54 93.9543 105.241 95.2327 104.667C96.5111 104.094 97.6553 103.259 98.5916 102.217C99.1329 101.5 99.8993 100.985 100.768 100.755C100.974 101.063 101.069 101.432 101.037 101.802C101.004 102.171 100.846 102.518 100.589 102.785C99.0205 104.882 96.8064 106.406 94.2874 107.122C92.8953 107.568 91.4157 107.67 89.9756 107.418C88.5356 107.166 87.1782 106.569 86.0201 105.676C85.3054 105.092 84.542 104.572 83.8436 104.052C83.2877 103.597 82.8287 103.034 82.494 102.398C82.1592 101.762 81.9554 101.065 81.8945 100.349Z" fill="#141414"/>
<path d="M105.492 102.169L106.321 100.886C106.71 101.243 107.051 101.487 107.344 101.795C108.761 103.133 110.459 104.137 112.314 104.735C113.044 104.922 113.809 104.922 114.539 104.735C116.716 104.332 118.808 103.564 120.727 102.461C120.982 102.275 121.211 102.057 121.41 101.812C121.752 101.399 122.121 101.008 122.514 100.642C122.888 100.317 123.31 99.7164 123.878 100.252C124.119 100.481 124.265 100.792 124.286 101.123C124.307 101.455 124.202 101.782 123.992 102.039C123.064 103.31 121.821 104.317 120.386 104.963C118.482 105.932 116.455 106.636 114.36 107.058C113.212 107.265 112.029 107.189 110.917 106.835C109.804 106.481 108.795 105.861 107.977 105.028C107.116 104.183 106.386 103.208 105.492 102.169Z" fill="#141414"/>
<path d="M176.439 193.664C176.475 193.966 176.475 194.272 176.439 194.574C176.044 195.524 175.942 196.57 176.147 197.579C176.39 198.845 176.407 200.145 176.666 201.395C176.957 203.028 177.797 204.512 179.047 205.602C180.296 206.692 181.88 207.322 183.537 207.389C185.958 207.539 188.374 207.04 190.537 205.943C192.227 205.16 193.702 203.977 194.833 202.497C195.965 201.017 196.72 199.285 197.034 197.449C197.117 196.449 197.117 195.444 197.034 194.444C200.315 196.355 203.457 198.493 206.439 200.843C205.362 202.083 204.047 203.093 202.573 203.816C200.851 204.725 199.162 205.7 197.392 206.463C195.874 207.143 194.282 207.645 192.649 207.957C189.498 208.684 186.265 208.99 183.033 208.867C181.212 208.678 179.428 208.224 177.738 207.519C175.513 206.652 173.343 205.648 171.242 204.514C169.439 203.491 167.814 202.175 165.914 200.86C169.099 198.019 172.636 195.601 176.439 193.664V193.664Z" fill="white"/>
<path d="M98.7051 199.348C100.605 196.847 105.722 193.192 107.866 192.851C107.866 193.907 108.028 194.962 107.979 196.002C107.985 198.13 108.681 200.198 109.961 201.898C110.567 202.652 111.318 203.276 112.17 203.733C113.915 204.831 115.912 205.462 117.971 205.568C120.03 205.673 122.081 205.248 123.929 204.334C124.484 204.11 124.974 203.753 125.359 203.295C126.401 202.003 127.346 200.634 128.185 199.202C128.715 198.248 128.909 197.144 128.737 196.067C128.526 194.638 128.51 193.176 128.396 191.714C130.621 192.023 136.517 196.278 138.629 199.169C137.954 199.841 137.244 200.475 136.501 201.07C134.455 202.498 132.28 203.732 130.004 204.757C127.635 205.775 125.178 206.575 122.662 207.144C121.444 207.346 120.208 207.416 118.975 207.355C118.764 207.355 118.553 207.355 118.326 207.355C114.88 207.396 111.482 206.557 108.45 204.919C105.559 203.571 102.814 201.947 100.021 200.42C99.5581 200.093 99.1186 199.735 98.7051 199.348V199.348Z" fill="white"/>
<path d="M211.604 104.815C212.383 104.198 212.968 103.727 213.569 103.288C213.877 103.09 214.197 102.911 214.527 102.752C216.233 106.098 217.386 106.91 219.66 106.374C220.121 106.343 220.57 106.211 220.975 105.986C221.379 105.762 221.729 105.45 221.999 105.075C222.421 104.327 222.718 103.515 222.876 102.671C222.936 101.723 222.909 100.771 222.794 99.8284C226.001 99.9955 229.06 101.23 231.484 103.337C229.823 105.621 227.416 107.253 224.679 107.95C222.402 108.409 220.053 108.367 217.795 107.826C215.537 107.284 213.424 106.257 211.604 104.815V104.815Z" fill="white"/>
<path d="M195.459 99.8284C198.625 99.9794 201.65 101.186 204.051 103.255C199.601 110.012 190.002 109.346 184.561 104.88C185.296 103.988 186.231 103.281 187.289 102.817C189.011 106.212 190.31 107.056 192.747 106.358C195.183 105.659 195.784 104.084 195.459 99.8284Z" fill="white"/>
</svg>
